<svg width="4773" height="974" viewBox="0 0 4773 974" fill="none" xmlns="http://www.w3.org/2000/svg">
<mask id="mask0_68_3" style="mask-type:luminance" maskUnits="userSpaceOnUse" x="0" y="0" width="1088" height="974">
<path d="M1088 0H0V974H1088V0Z" fill="white"/>
</mask>
<g mask="url(#mask0_68_3)">
<path d="M544 60.1719C810.01 60.1719 1022.9 252.706 1022.9 487C1022.9 721.3 810.01 913.83 544 913.83C277.987 913.83 65.0938 721.3 65.0938 487C65.0938 252.706 277.987 60.1719 544 60.1719Z" stroke="#092663" stroke-width="29"/>
<path d="M544 968.72C841.53 968.72 1082.72 753.05 1082.72 487C1082.72 220.952 841.53 5.27734 544 5.27734C246.475 5.27734 5.28125 220.952 5.28125 487C5.28125 753.05 246.475 968.72 544 968.72Z" stroke="#092663" stroke-width="15" stroke-linecap="round" stroke-linejoin="round"/>
<path d="M186.844 209.367C305.546 253.977 614.45 316.431 900.45 209.367" stroke="#092663" stroke-width="29"/>
<path d="M196.695 793.49C312.12 726.57 612.5 632.89 890.59 793.49" stroke="#092663" stroke-width="29"/>
<path d="M67.2109 484.54H1017.28" stroke="#092663" stroke-width="40"/>
<path d="M550.34 60.1719C573.05 60.1719 595.72 70.3939 617.51 90.9759C639.37 111.629 659.7 142.174 677.07 180.986C711.81 258.578 733.66 366.759 733.66 487C733.66 607.24 711.81 715.43 677.07 793.02C659.7 831.83 639.37 862.37 617.51 883.03C595.72 903.61 573.05 913.83 550.34 913.83C527.62 913.83 504.95 903.61 483.16 883.03C461.301 862.37 440.973 831.83 423.596 793.02C388.856 715.43 367.008 607.24 367.008 487C367.008 366.759 388.856 258.578 423.596 180.986C440.973 142.174 461.301 111.629 483.16 90.9759C504.95 70.3939 527.62 60.1719 550.34 60.1719Z" stroke="#092663" stroke-width="29"/>
<path d="M555.609 58.7666V910.661" stroke="#092663" stroke-width="40"/>
<path d="M381.782 445.12H196.695V527.46H381.782V445.12Z" fill="white"/>
<path d="M768.14 492.28H653.43V561.25H768.14V492.28Z" fill="white"/>
<path d="M595.72 409.23H520.42V469.76H595.72V409.23Z" fill="white"/>
<path d="M269.429 360.141C298.93 360.141 324.716 365.434 346.785 376.018C369.08 386.6 386.421 401.35 398.807 420.27C411.193 439.19 417.386 461.37 417.386 486.82C417.386 512.04 411.193 534.22 398.807 553.36C386.421 572.28 369.08 587.03 346.785 597.62C324.716 608.2 298.93 613.49 269.429 613.49H160.172C154.097 613.49 149.172 608.57 149.172 602.49V371.141C149.172 365.066 154.097 360.141 160.172 360.141H269.429ZM206.26 571.18C206.26 578.55 197.405 582.32 192.099 577.19C186.69 571.97 190.386 562.82 197.903 562.82H273.82C290.936 562.82 305.911 559.67 318.748 553.36C331.809 547.06 341.831 538.16 348.812 526.68C355.793 515.19 359.284 501.91 359.284 486.82C359.284 471.5 355.793 458.22 348.812 446.96C341.831 435.47 331.809 426.58 318.748 420.27C305.911 413.96 290.936 410.81 273.82 410.81H197.903C190.386 410.81 186.69 401.66 192.099 396.44C197.405 391.32 206.26 395.08 206.26 402.45V571.18ZM479.924 483.63C479.924 477.55 484.85 472.63 490.92 472.63H577.55C590.38 472.63 600.52 469.7 607.95 463.85C615.61 457.77 619.44 449.43 619.44 438.85C619.44 428.26 615.61 420.05 607.95 414.19C600.52 408.33 590.38 405.41 577.55 405.41H489.41C482.45 405.41 478.751 397.19 483.36 391.98C488.29 386.41 497.49 389.9 497.49 397.33V602.49C497.49 608.57 492.56 613.49 486.49 613.49H451.063C444.988 613.49 440.063 608.57 440.063 602.49V371.141C440.063 365.066 444.988 360.141 451.063 360.141H584.3C602.77 360.141 618.99 363.519 632.95 370.275C646.91 376.806 657.83 385.93 665.71 397.64C673.6 409.35 677.54 423.09 677.54 438.85C677.54 454.39 673.6 468.01 665.71 479.72C657.83 491.43 646.91 500.67 632.95 507.42C618.99 513.95 602.77 517.22 584.3 517.22H490.92C484.85 517.22 479.924 512.3 479.924 506.22V483.63ZM537.96 512.75C532.25 505.54 537.38 494.92 546.58 494.92H584.11C587.44 494.92 590.59 496.43 592.67 499.02L670.53 595.59C676.33 602.79 671.21 613.49 661.97 613.49H623.07C619.71 613.49 616.53 611.96 614.44 609.32L537.96 512.75ZM690.77 542.22C689.59 536.04 694.68 530.73 700.98 530.73H738.1C743.51 530.73 747.97 534.75 749.96 539.78C751.91 544.72 754.81 549.24 758.65 553.36C764.95 559.67 773.29 564.62 783.65 568.23C794.23 571.61 806.39 573.3 820.13 573.3C840.17 573.3 855.94 570.48 867.42 564.85C879.13 558.99 884.99 550.89 884.99 540.53C884.99 532.42 881.61 526.23 874.85 521.95C868.32 517.45 856.05 514.18 838.03 512.15L787.02 506.41C754.14 502.81 730.27 495.15 715.41 483.44C700.78 471.5 693.46 454.95 693.46 433.78C693.46 417.12 698.3 402.93 707.98 391.22C717.89 379.51 731.74 370.613 749.53 364.533C767.32 358.227 788.26 355.074 812.36 355.074C835.78 355.074 856.61 358.565 874.85 365.546C893.09 372.302 907.62 381.87 918.43 394.26C926.63 403.49 931.98 413.95 934.48 425.65C935.8 431.82 930.69 437.16 924.38 437.16H887.35C881.91 437.16 877.49 433.06 875.19 428.13C873.44 424.39 870.97 420.98 867.76 417.91C862.35 412.28 854.81 408 845.13 405.07C835.44 401.92 824.07 400.34 811.01 400.34C792.77 400.34 778.24 403.04 767.43 408.45C756.62 413.85 751.22 421.51 751.22 431.42C751.22 439.07 754.37 445.04 760.68 449.32C767.21 453.38 778.58 456.42 794.79 458.44L847.83 464.86C871.25 467.34 889.83 471.39 903.57 477.02C917.53 482.43 927.44 489.75 933.29 498.98C939.37 508.21 942.41 519.92 942.41 534.11C942.41 551 937.23 565.86 926.87 578.7C916.74 591.31 902.44 601.11 883.97 608.09C865.51 615.07 843.89 618.56 819.12 618.56C793.89 618.56 771.71 614.96 752.57 607.75C733.43 600.32 718.34 590.07 707.3 577.01C698.74 566.7 693.23 555.11 690.77 542.22Z" fill="#092663"/>
<mask id="mask1_68_3" style="mask-type:luminance" maskUnits="userSpaceOnUse" x="112" y="317" width="868" height="339">
<path d="M979.27 317.914H112.25V655.72H979.27V317.914Z" fill="white"/>
<path d="M269.429 360.141C298.93 360.141 324.716 365.434 346.785 376.018C369.08 386.6 386.421 401.35 398.807 420.27C411.193 439.19 417.386 461.37 417.386 486.82C417.386 512.04 411.193 534.22 398.807 553.36C386.421 572.28 369.08 587.03 346.785 597.62C324.716 608.2 298.93 613.49 269.429 613.49H149.172V360.141H269.429ZM206.26 590.86L177.209 562.82H273.82C290.936 562.82 305.911 559.67 318.748 553.36C331.809 547.06 341.831 538.16 348.812 526.68C355.793 515.19 359.284 501.91 359.284 486.82C359.284 471.5 355.793 458.22 348.812 446.96C341.831 435.47 331.809 426.58 318.748 420.27C305.911 413.96 290.936 410.81 273.82 410.81H177.209L206.26 382.77V590.86ZM479.924 472.63H577.55C590.38 472.63 600.52 469.7 607.95 463.85C615.61 457.77 619.44 449.43 619.44 438.85C619.44 428.26 615.61 420.05 607.95 414.19C600.52 408.33 590.38 405.41 577.55 405.41H471.479L497.49 376.018V613.49H440.063V360.141H584.3C602.77 360.141 618.99 363.519 632.95 370.275C646.91 376.806 657.83 385.93 665.71 397.64C673.6 409.35 677.54 423.09 677.54 438.85C677.54 454.39 673.6 468.01 665.71 479.72C657.83 491.43 646.91 500.67 632.95 507.42C618.99 513.95 602.77 517.22 584.3 517.22H479.924V472.63ZM523.84 494.92H589.37L684.97 613.49H617.75L523.84 494.92ZM689.4 530.73H747.5C748.85 539.29 752.57 546.83 758.65 553.36C764.95 559.67 773.29 564.62 783.65 568.23C794.23 571.61 806.39 573.3 820.13 573.3C840.17 573.3 855.94 570.48 867.42 564.85C879.13 558.99 884.99 550.89 884.99 540.53C884.99 532.42 881.61 526.23 874.85 521.95C868.32 517.45 856.05 514.18 838.03 512.15L787.02 506.41C754.14 502.81 730.27 495.15 715.41 483.44C700.78 471.5 693.46 454.95 693.46 433.78C693.46 417.12 698.3 402.93 707.98 391.22C717.89 379.51 731.74 370.613 749.53 364.533C767.32 358.227 788.26 355.074 812.36 355.074C835.78 355.074 856.61 358.565 874.85 365.546C893.09 372.302 907.62 381.87 918.43 394.26C929.24 406.42 935.09 420.72 935.99 437.16H877.89C876.77 429.73 873.39 423.31 867.76 417.91C862.35 412.28 854.81 408 845.13 405.07C835.44 401.92 824.07 400.34 811.01 400.34C792.77 400.34 778.24 403.04 767.43 408.45C756.62 413.85 751.22 421.51 751.22 431.42C751.22 439.07 754.37 445.04 760.68 449.32C767.21 453.38 778.58 456.42 794.79 458.44L847.83 464.86C871.25 467.34 889.83 471.39 903.57 477.02C917.53 482.43 927.44 489.75 933.29 498.98C939.37 508.21 942.41 519.92 942.41 534.11C942.41 551 937.23 565.86 926.87 578.7C916.74 591.31 902.44 601.11 883.97 608.09C865.51 615.07 843.89 618.56 819.12 618.56C793.89 618.56 771.71 614.96 752.57 607.75C733.43 600.32 718.34 590.07 707.3 577.01C696.27 563.72 690.3 548.3 689.4 530.73Z" fill="black"/>
</mask>
<g mask="url(#mask1_68_3)">
<path d="M346.779 376.016L330.954 409.01C330.997 409.03 331.041 409.05 331.085 409.07L346.779 376.016ZM398.8 553.36L429.416 573.41C429.453 573.35 429.489 573.3 429.525 573.24L398.8 553.36ZM346.779 597.61L331.085 564.56C331.041 564.58 330.997 564.6 330.954 564.62L346.779 597.61ZM149.165 613.49H112.57C112.57 633.7 128.954 650.09 149.165 650.09V613.49ZM149.165 360.139V323.544C128.954 323.544 112.57 339.928 112.57 360.139H149.165ZM206.254 590.86L180.841 617.19C191.406 627.39 207.043 630.28 220.557 624.54C234.072 618.8 242.849 605.54 242.849 590.86H206.254ZM177.203 562.82V526.23C162.283 526.23 148.857 535.28 143.271 549.12C137.684 562.95 141.054 578.79 151.79 589.15L177.203 562.82ZM318.741 553.36L302.832 520.41C302.756 520.44 302.682 520.48 302.606 520.52L318.741 553.36ZM348.806 446.95L317.534 465.96C317.59 466.05 317.646 466.15 317.703 466.24L348.806 446.95ZM318.741 420.27L302.606 453.11C302.682 453.15 302.756 453.19 302.832 453.22L318.741 420.27ZM177.203 410.81L151.79 384.48C141.054 394.84 137.684 410.68 143.271 424.51C148.857 438.35 162.283 447.4 177.203 447.4V410.81ZM206.254 382.77H242.849C242.849 368.089 234.072 354.827 220.557 349.088C207.043 343.349 191.406 346.243 180.841 356.44L206.254 382.77ZM269.422 360.139V396.73C294.554 396.73 314.734 401.23 330.954 409.01L346.779 376.016L362.603 343.019C334.684 329.629 303.293 323.544 269.422 323.544V360.139ZM346.779 376.016L331.085 409.07C347.88 417.05 359.816 427.53 368.184 440.31L398.8 420.27L429.416 400.22C413.012 375.168 390.269 356.152 362.473 342.957L346.779 376.016ZM398.8 420.27L368.184 440.31C376.193 452.55 380.784 467.57 380.784 486.82H417.379H453.974C453.974 455.17 446.18 425.82 429.416 400.22L398.8 420.27ZM417.379 486.82H380.784C380.784 505.76 376.229 520.88 368.076 533.48L398.8 553.36L429.525 573.24C446.144 547.56 453.974 518.31 453.974 486.82H417.379ZM398.8 553.36L368.184 533.32C359.816 546.1 347.88 556.58 331.085 564.56L346.779 597.61L362.473 630.67C390.269 617.48 413.012 598.46 429.416 573.41L398.8 553.36ZM346.779 597.61L330.954 564.62C314.734 572.4 294.554 576.9 269.422 576.9V613.49V650.09C303.293 650.09 334.684 644 362.603 630.61L346.779 597.61ZM269.422 613.49V576.9H149.165V613.49V650.09H269.422V613.49ZM149.165 613.49H185.76V360.139H149.165H112.57V613.49H149.165ZM149.165 360.139V396.73H269.422V360.139V323.544H149.165V360.139ZM206.254 590.86L231.667 564.53L202.616 536.49L177.203 562.82L151.79 589.15L180.841 617.19L206.254 590.86ZM177.203 562.82V599.42H273.814V562.82V526.23H177.203V562.82ZM273.814 562.82V599.42C295.435 599.42 316.126 595.42 334.876 586.21L318.741 553.36L302.606 520.52C295.684 523.92 286.424 526.23 273.814 526.23V562.82ZM318.741 553.36L334.651 586.32C353.546 577.2 369.136 563.68 380.077 545.68L348.806 526.68L317.534 507.67C314.513 512.64 310.06 516.92 302.832 520.41L318.741 553.36ZM348.806 526.68L380.077 545.68C390.954 527.79 395.873 507.76 395.873 486.82H359.277H322.682C322.682 496.04 320.62 502.59 317.534 507.67L348.806 526.68ZM359.277 486.82H395.873C395.873 465.77 391.01 445.58 379.908 427.67L348.806 446.95L317.703 466.24C320.563 470.85 322.682 477.23 322.682 486.82H359.277ZM348.806 446.95L380.077 427.95C369.136 409.95 353.546 396.43 334.651 387.31L318.741 420.27L302.832 453.22C310.06 456.71 314.513 460.99 317.534 465.96L348.806 446.95ZM318.741 420.27L334.876 387.42C316.126 378.21 295.435 374.214 273.814 374.214V410.81V447.4C286.424 447.4 295.684 449.71 302.606 453.11L318.741 420.27ZM273.814 410.81V374.214H177.203V410.81V447.4H273.814V410.81ZM177.203 410.81L202.616 437.14L231.667 409.1L206.254 382.77L180.841 356.44L151.79 384.48L177.203 410.81ZM206.254 382.77H169.659V590.86H206.254H242.849V382.77H206.254ZM479.917 472.63V436.03C459.706 436.03 443.322 452.42 443.322 472.63H479.917ZM607.94 463.84L630.59 492.59C630.63 492.56 630.67 492.53 630.7 492.5L607.94 463.84ZM607.94 414.19L585.3 442.93C585.43 443.04 585.57 443.15 585.71 443.26L607.94 414.19ZM471.472 405.4L444.068 381.15C434.527 391.93 432.193 407.3 438.105 420.43C444.016 433.56 457.076 442 471.472 442V405.4ZM497.48 376.016H534.08C534.08 360.808 524.67 347.185 510.45 341.796C496.23 336.406 480.159 340.373 470.079 351.761L497.48 376.016ZM497.48 613.49V650.09C517.69 650.09 534.08 633.7 534.08 613.49H497.48ZM440.057 613.49H403.462C403.462 633.7 419.846 650.09 440.057 650.09V613.49ZM440.057 360.139V323.544C419.846 323.544 403.462 339.928 403.462 360.139H440.057ZM632.94 370.273L617 403.21C617.15 403.28 617.29 403.35 617.44 403.42L632.94 370.273ZM632.94 507.42L648.45 540.57C648.59 540.5 648.74 540.43 648.88 540.36L632.94 507.42ZM479.917 517.22H443.322C443.322 537.43 459.706 553.81 479.917 553.81V517.22ZM523.83 494.92V458.33C509.8 458.33 497 466.35 490.89 478.99C484.78 491.62 486.43 506.64 495.14 517.64L523.83 494.92ZM589.36 494.92L617.85 471.95C610.91 463.34 600.43 458.33 589.36 458.33V494.92ZM684.96 613.49V650.09C699.06 650.09 711.89 641.99 717.97 629.28C724.05 616.57 722.29 601.49 713.45 590.52L684.96 613.49ZM617.74 613.49L589.05 636.21C595.99 644.98 606.56 650.09 617.74 650.09V613.49ZM479.917 472.63V509.22H577.54V472.63V436.03H479.917V472.63ZM577.54 472.63V509.22C595.68 509.22 614.74 505.08 630.59 492.59L607.94 463.84L585.3 435.1C586.28 434.32 585.07 436.03 577.54 436.03V472.63ZM607.94 463.84L630.7 492.5C647.9 478.85 656.02 459.54 656.02 438.85H619.43H582.83C582.83 439.68 582.7 439.07 583.3 437.76C583.59 437.14 583.95 436.56 584.35 436.06C584.74 435.56 585.06 435.28 585.19 435.19L607.94 463.84ZM619.43 438.85H656.02C656.02 418.15 647.86 398.64 630.17 385.12L607.94 414.19L585.71 443.26C585.5 443.09 585.09 442.74 584.62 442.16C584.13 441.57 583.71 440.9 583.38 440.19C582.7 438.72 582.83 438.01 582.83 438.85H619.43ZM607.94 414.19L630.59 385.44C614.74 372.954 595.68 368.809 577.54 368.809V405.4V442C585.07 442 586.28 443.71 585.3 442.93L607.94 414.19ZM577.54 405.4V368.809H471.472V405.4V442H577.54V405.4ZM471.472 405.4L498.88 429.66L524.89 400.27L497.48 376.016L470.079 351.761L444.068 381.15L471.472 405.4ZM497.48 376.016H460.888V613.49H497.48H534.08V376.016H497.48ZM497.48 613.49V576.9H440.057V613.49V650.09H497.48V613.49ZM440.057 613.49H476.652V360.139H440.057H403.462V613.49H440.057ZM440.057 360.139V396.73H584.3V360.139V323.544H440.057V360.139ZM584.3 360.139V396.73C598.28 396.73 608.87 399.28 617 403.21L632.94 370.273L648.88 337.332C629.09 327.755 607.24 323.544 584.3 323.544V360.139ZM632.94 370.273L617.44 403.42C625.96 407.41 631.51 412.37 635.35 418.07L665.71 397.64L696.07 377.201C684.14 359.483 667.85 346.201 648.45 337.125L632.94 370.273ZM665.71 397.64L635.35 418.07C638.7 423.05 640.94 429.48 640.94 438.85H677.53H714.12C714.12 416.69 708.48 395.64 696.07 377.201L665.71 397.64ZM677.53 438.85H640.94C640.94 447.87 638.76 454.22 635.35 459.29L665.71 479.72L696.07 500.16C708.42 481.8 714.12 460.9 714.12 438.85H677.53ZM665.71 479.72L635.35 459.29C631.43 465.11 625.73 470.26 617 474.48L632.94 507.42L648.88 540.36C668.08 531.07 684.22 517.76 696.07 500.16L665.71 479.72ZM632.94 507.42L617.44 474.27C609.19 478.13 598.45 480.62 584.3 480.62V517.22V553.81C607.08 553.81 628.76 549.78 648.45 540.57L632.94 507.42ZM584.3 517.22V480.62H479.917V517.22V553.81H584.3V517.22ZM479.917 517.22H516.51V472.63H479.917H443.322V517.22H479.917ZM523.83 494.92V531.52H589.36V494.92V458.33H523.83V494.92ZM589.36 494.92L560.88 517.89L656.47 636.46L684.96 613.49L713.45 590.52L617.85 471.95L589.36 494.92ZM684.96 613.49V576.9H617.74V613.49V650.09H684.96V613.49ZM617.74 613.49L646.43 590.77L552.52 472.2L523.83 494.92L495.14 517.64L589.05 636.21L617.74 613.49ZM689.4 530.73V494.13C679.36 494.13 669.77 498.25 662.86 505.52C655.96 512.8 652.34 522.59 652.85 532.6L689.4 530.73ZM747.5 530.73L783.65 525.02C780.84 507.23 765.5 494.13 747.5 494.13V530.73ZM758.64 553.36L731.86 578.3C732.16 578.62 732.46 578.93 732.77 579.24L758.64 553.36ZM783.64 568.23L771.62 602.79C771.92 602.89 772.22 602.99 772.51 603.09L783.64 568.23ZM867.41 564.85L883.52 597.71C883.61 597.67 883.7 597.62 883.78 597.58L867.41 564.85ZM874.85 521.95L854.07 552.07C854.47 552.34 854.87 552.61 855.27 552.86L874.85 521.95ZM787.02 506.41L791.11 470.04C791.08 470.04 791.04 470.03 791.01 470.03L787.02 506.41ZM715.4 483.44L692.28 511.8C692.44 511.93 692.6 512.06 692.76 512.18L715.4 483.44ZM707.97 391.22L680.04 367.578C679.95 367.684 679.86 367.79 679.77 367.896L707.97 391.22ZM749.52 364.53L761.36 399.16C761.49 399.11 761.62 399.07 761.75 399.02L749.52 364.53ZM874.85 365.544L861.77 399.72C861.89 399.77 862.02 399.82 862.14 399.86L874.85 365.544ZM918.42 394.26L890.86 418.32C890.93 418.4 891 418.49 891.07 418.57L918.42 394.26ZM935.99 437.16V473.75C946.04 473.75 955.65 469.62 962.57 462.32C969.48 455.02 973.08 445.19 972.53 435.16L935.99 437.16ZM877.89 437.16L841.71 442.64C844.42 460.53 859.79 473.75 877.89 473.75V437.16ZM867.75 417.9L841.35 443.25C841.7 443.61 842.05 443.96 842.41 444.3L867.75 417.9ZM845.12 405.07L833.8 439.86C834.04 439.94 834.28 440.02 834.54 440.1L845.12 405.07ZM760.67 449.32L740.13 479.6C740.53 479.88 740.95 480.15 741.37 480.41L760.67 449.32ZM794.79 458.44L790.25 494.75C790.3 494.76 790.35 494.76 790.4 494.77L794.79 458.44ZM847.82 464.86L843.43 501.19C843.61 501.21 843.79 501.23 843.97 501.25L847.82 464.86ZM903.56 477.02L889.68 510.88C889.91 510.97 890.12 511.06 890.35 511.15L903.56 477.02ZM933.29 498.98L902.38 518.57C902.5 518.75 902.61 518.93 902.72 519.1L933.29 498.98ZM926.87 578.7L898.39 555.72C898.37 555.73 898.36 555.75 898.34 555.78L926.87 578.7ZM752.56 607.75L739.32 641.86C739.44 641.91 739.56 641.95 739.67 642L752.56 607.75ZM707.3 577.01L679.15 600.39C679.21 600.47 679.28 600.55 679.35 600.63L707.3 577.01ZM689.4 530.73V567.33H747.5V530.73V494.13H689.4V530.73ZM747.5 530.73L711.35 536.44C713.88 552.42 720.97 566.6 731.86 578.3L758.64 553.36L785.43 528.43C784.15 527.06 783.82 526.16 783.65 525.02L747.5 530.73ZM758.64 553.36L732.77 579.24C743.77 590.24 757.22 597.78 771.62 602.79L783.64 568.23L795.67 533.66C789.35 531.46 786.13 529.09 784.52 527.49L758.64 553.36ZM783.64 568.23L772.51 603.09C787.43 607.85 803.46 609.89 820.12 609.89V573.29V536.7C809.31 536.7 801.02 535.36 794.77 533.36L783.64 568.23ZM820.12 573.29V609.89C842.91 609.89 864.98 606.8 883.52 597.71L867.41 564.85L851.31 531.99C846.89 534.16 837.43 536.7 820.12 536.7V573.29ZM867.41 564.85L883.78 597.58C903.99 587.48 921.58 568.63 921.58 540.53H884.98H848.38C848.38 539.62 848.53 538.32 849 536.81C849.48 535.29 850.19 533.97 850.93 532.95C852.35 530.97 853.2 531.04 851.05 532.12L867.41 564.85ZM884.98 540.53H921.58C921.58 520.09 911.95 502.13 894.43 491.03L874.85 521.95L855.27 552.86C854.11 552.13 851.99 550.38 850.32 547.32C848.67 544.29 848.38 541.67 848.38 540.53H884.98ZM874.85 521.95L895.63 491.82C880.88 481.65 860.29 477.83 842.12 475.78L838.03 512.15L833.94 548.52C841.84 549.41 847.51 550.47 851.33 551.49C855.55 552.61 855.71 553.2 854.07 552.07L874.85 521.95ZM838.03 512.15L842.12 475.78L791.11 470.04L787.02 506.41L782.93 542.77L833.94 548.52L838.03 512.15ZM787.02 506.41L791.01 470.03C760.49 466.69 744.86 460.05 738.06 454.69L715.4 483.44L692.76 512.18C715.69 530.24 747.8 538.92 783.03 542.79L787.02 506.41ZM715.4 483.44L738.53 455.08C733.52 450.99 730.04 445.45 730.04 433.78H693.45H656.85C656.85 464.44 668.02 492.02 692.28 511.8L715.4 483.44ZM693.45 433.78H730.04C730.04 424.75 732.46 419.04 736.18 414.54L707.97 391.22L679.77 367.896C664.13 386.81 656.85 409.48 656.85 433.78H693.45ZM707.97 391.22L735.91 414.86C740.68 409.22 748.42 403.58 761.36 399.16L749.52 364.53L737.69 329.901C715.04 337.641 695.09 349.789 680.04 367.578L707.97 391.22ZM749.52 364.53L761.75 399.02C774.7 394.43 791.32 391.67 812.35 391.67V355.072V318.477C785.19 318.477 759.93 322.016 737.3 330.037L749.52 364.53ZM812.35 355.072V391.67C832.17 391.67 848.44 394.62 861.77 399.72L874.85 365.544L887.93 331.366C864.77 322.503 839.38 318.477 812.35 318.477V355.072ZM874.85 365.544L862.14 399.86C875.7 404.88 884.74 411.32 890.86 418.32L918.42 394.26L946 370.194C930.49 352.426 910.48 339.717 887.56 331.227L874.85 365.544ZM918.42 394.26L891.07 418.57C896.32 424.47 899 430.88 899.45 439.16L935.99 437.16L972.53 435.16C971.18 410.56 962.15 388.37 945.78 369.944L918.42 394.26ZM935.99 437.16V400.56H877.89V437.16V473.75H935.99V437.16ZM877.89 437.16L914.07 431.68C911.69 415.95 904.31 402.27 893.1 391.5L867.75 417.9L842.41 444.3C842.61 444.49 842.4 444.34 842.13 443.82C842 443.58 841.9 443.33 841.82 443.09C841.75 442.86 841.71 442.7 841.71 442.64L877.89 437.16ZM867.75 417.9L894.16 392.56C883.3 381.25 869.67 374.258 855.71 370.037L845.12 405.07L834.54 440.1C837.2 440.9 838.93 441.7 839.99 442.3C840.51 442.6 840.85 442.84 841.06 443C841.26 443.15 841.35 443.24 841.35 443.25L867.75 417.9ZM845.12 405.07L856.45 370.27C842.24 365.644 826.89 363.742 811 363.742V400.34V436.93C821.25 436.93 828.63 438.18 833.8 439.86L845.12 405.07ZM811 400.34V363.742C789.73 363.742 768.88 366.803 751.06 375.713L767.43 408.44L783.79 441.18C787.59 439.28 795.8 436.93 811 436.93V400.34ZM767.43 408.44L751.06 375.713C741.77 380.36 732.42 387.15 725.37 397.14C718.05 407.5 714.62 419.36 714.62 431.42H751.21H787.81C787.81 432.3 787.68 433.62 787.2 435.17C786.72 436.74 786 438.17 785.17 439.35C783.52 441.67 782.27 441.94 783.79 441.18L767.43 408.44ZM751.21 431.42H714.62C714.62 451.13 723.72 468.47 740.13 479.6L760.67 449.32L781.22 419.04C782.37 419.82 784.37 421.58 785.93 424.54C787.5 427.5 787.81 430.1 787.81 431.42H751.21ZM760.67 449.32L741.37 480.41C755.12 488.95 773.39 492.65 790.25 494.75L794.79 458.44L799.33 422.13C792.3 421.25 787.14 420.24 783.55 419.29C779.7 418.26 779.02 417.63 779.97 418.23L760.67 449.32ZM794.79 458.44L790.4 494.77L843.43 501.19L847.82 464.86L852.22 428.53L799.19 422.11L794.79 458.44ZM847.82 464.86L843.97 501.25C865.72 503.55 880.46 507.1 889.68 510.88L903.56 477.02L917.44 443.16C899.19 435.68 876.77 431.12 851.67 428.47L847.82 464.86ZM903.56 477.02L890.35 511.15C899.66 514.75 902.02 518 902.38 518.57L933.29 498.98L964.19 479.38C952.84 461.48 935.39 450.1 916.78 442.89L903.56 477.02ZM933.29 498.98L902.72 519.1C903.9 520.88 905.81 525.06 905.81 534.11H942.41H979C979 514.78 974.84 495.54 963.85 478.85L933.29 498.98ZM942.41 534.11H905.81C905.81 542.85 903.36 549.55 898.39 555.72L926.87 578.7L955.35 601.68C971.1 582.17 979 559.14 979 534.11H942.41ZM926.87 578.7L898.34 555.78C893.12 562.28 884.73 568.68 871.03 573.86L883.97 608.09L896.91 642.32C920.15 633.53 940.36 620.34 955.4 601.62L926.87 578.7ZM883.97 608.09L871.03 573.86C857.6 578.93 840.55 581.96 819.11 581.96V618.56V655.15C847.22 655.15 873.4 651.2 896.91 642.32L883.97 608.09ZM819.11 618.56V581.96C797.3 581.96 779.64 578.84 765.45 573.5L752.56 607.75L739.67 642C763.77 651.07 790.47 655.15 819.11 655.15V618.56ZM752.56 607.75L765.81 573.63C751.23 567.97 741.62 560.93 735.26 553.39L707.3 577.01L679.35 600.63C695.05 619.22 715.62 632.66 739.32 641.86L752.56 607.75ZM707.3 577.01L735.45 553.63C729.56 546.54 726.45 538.69 725.95 528.86L689.4 530.73L652.85 532.6C654.15 557.9 662.97 580.91 679.15 600.39L707.3 577.01Z" fill="white"/>
</g>
<path d="M75 484H113" stroke="#092663" stroke-width="44" stroke-linecap="round"/>
<path d="M966 484H1013" stroke="#092663" stroke-width="44" stroke-linecap="round"/>
</g>
<path d="M1599.71 351.54C1596.98 375.1 1588.67 395.93 1574.78 414.04C1561.14 431.89 1543.04 445.78 1520.47 455.7C1498.15 465.62 1472.61 470.58 1443.84 470.58C1412.1 470.58 1384.2 464.5 1360.14 452.35C1336.33 440.2 1317.73 423.34 1304.34 401.76C1290.95 379.94 1284.25 354.516 1284.25 325.5C1284.25 296.484 1290.95 271.188 1304.34 249.612C1317.73 227.788 1336.33 210.8 1360.14 198.648C1384.2 186.496 1412.1 180.42 1443.84 180.42C1472.61 180.42 1498.15 185.38 1520.47 195.3C1543.04 205.22 1561.14 219.108 1574.78 236.964C1588.67 254.82 1596.98 275.652 1599.71 299.46H1536.1C1533.62 286.316 1528.28 275.032 1520.1 265.608C1511.92 255.936 1501.38 248.496 1488.48 243.288C1475.58 238.08 1460.58 235.476 1443.47 235.476C1423.88 235.476 1406.89 239.196 1392.5 246.636C1378.37 253.828 1367.46 264.244 1359.77 277.884C1352.08 291.276 1348.24 307.148 1348.24 325.5C1348.24 343.852 1352.08 359.848 1359.77 373.488C1367.46 386.88 1378.37 397.3 1392.5 404.74C1406.89 411.93 1423.88 415.52 1443.47 415.52C1460.58 415.52 1475.58 413.04 1488.48 408.08C1501.38 402.88 1511.92 395.56 1520.1 386.14C1528.28 376.464 1533.62 364.932 1536.1 351.54H1599.71ZM1790.12 470.58C1757.63 470.58 1729.11 464.5 1704.56 452.35C1680.25 440.2 1661.28 423.34 1647.64 401.76C1634 379.94 1627.18 354.516 1627.18 325.5C1627.18 296.484 1634 271.188 1647.64 249.612C1661.28 227.788 1680.25 210.8 1704.56 198.648C1729.11 186.496 1757.63 180.42 1790.12 180.42C1822.6 180.42 1851 186.496 1875.3 198.648C1899.86 210.8 1918.95 227.788 1932.59 249.612C1946.23 271.188 1953.05 296.484 1953.05 325.5C1953.05 354.516 1946.23 379.94 1932.59 401.76C1918.95 423.34 1899.86 440.2 1875.3 452.35C1851 464.5 1822.6 470.58 1790.12 470.58ZM1790.12 414.41C1810.45 414.41 1827.94 410.81 1842.57 403.62C1857.45 396.43 1868.86 386.14 1876.79 372.744C1884.98 359.352 1889.07 343.604 1889.07 325.5C1889.07 307.396 1884.98 291.648 1876.79 278.256C1868.86 264.864 1857.45 254.572 1842.57 247.38C1827.94 240.188 1810.45 236.592 1790.12 236.592C1770.03 236.592 1752.54 240.188 1737.66 247.38C1722.78 254.572 1711.25 264.864 1703.07 278.256C1695.13 291.648 1691.16 307.396 1691.16 325.5C1691.16 343.604 1695.13 359.352 1703.07 372.744C1711.25 386.14 1722.78 396.43 1737.66 403.62C1752.54 410.81 1770.03 414.41 1790.12 414.41ZM2255.14 423.34L2233.19 426.68V186H2294.57V465H2214.59L2036.03 224.316L2057.61 220.968V465H1996.6V186H2078.44L2255.14 423.34ZM2336.64 373.86H2400.63C2402.11 383.28 2406.21 391.59 2412.9 398.78C2419.85 405.73 2429.02 411.18 2440.43 415.15C2452.09 418.87 2465.48 420.73 2480.61 420.73C2502.68 420.73 2520.04 417.63 2532.69 411.43C2545.58 404.98 2552.03 396.06 2552.03 384.65C2552.03 375.72 2548.31 368.9 2540.87 364.188C2533.68 359.228 2520.16 355.632 2500.32 353.4L2444.15 347.076C2407.94 343.108 2381.65 334.676 2365.29 321.78C2349.17 308.636 2341.11 290.408 2341.11 267.096C2341.11 248.744 2346.44 233.12 2357.1 220.224C2368.01 207.328 2383.27 197.532 2402.86 190.836C2422.45 183.892 2445.51 180.42 2472.05 180.42C2497.84 180.42 2520.78 184.264 2540.87 191.952C2560.96 199.392 2576.95 209.932 2588.86 223.572C2600.76 236.964 2607.21 252.712 2608.2 270.816H2544.22C2542.98 262.632 2539.26 255.564 2533.06 249.612C2527.11 243.412 2518.8 238.7 2508.13 235.476C2497.47 232.004 2484.95 230.268 2470.56 230.268C2450.47 230.268 2434.48 233.244 2422.57 239.196C2410.67 245.148 2404.72 253.58 2404.72 264.492C2404.72 272.924 2408.19 279.496 2415.13 284.208C2422.33 288.672 2434.85 292.02 2452.71 294.252L2511.11 301.32C2536.9 304.048 2557.36 308.512 2572.49 314.712C2587.87 320.664 2598.78 328.724 2605.23 338.892C2611.92 349.06 2615.27 361.956 2615.27 377.58C2615.27 396.18 2609.57 412.55 2598.16 426.68C2587 440.57 2571.25 451.36 2550.91 459.05C2530.58 466.74 2506.77 470.58 2479.49 470.58C2451.71 470.58 2427.29 466.61 2406.21 458.68C2385.13 450.49 2368.51 439.21 2356.36 424.82C2344.21 410.19 2337.63 393.2 2336.64 373.86ZM2717.29 342.612C2717.29 357.492 2720.14 370.264 2725.85 380.93C2731.55 391.59 2739.86 399.9 2750.77 405.85C2761.93 411.56 2775.32 414.41 2790.95 414.41C2806.82 414.41 2820.21 411.56 2831.12 405.85C2842.03 399.9 2850.34 391.59 2856.05 380.93C2861.75 370.264 2864.6 357.492 2864.6 342.612V186H2927.84V345.588C2927.84 370.636 2922.14 392.58 2910.73 411.43C2899.32 430.03 2883.33 444.54 2862.74 454.96C2842.16 465.37 2818.23 470.58 2790.95 470.58C2763.67 470.58 2739.73 465.37 2719.15 454.96C2698.81 444.54 2682.82 430.03 2671.16 411.43C2659.75 392.58 2654.05 370.636 2654.05 345.588V186H2717.29V342.612ZM3044.69 186V437.1L3016.05 409.2H3225.48V465H2981.45V186H3044.69ZM3292.69 214.272H3355.56V465H3292.69V214.272ZM3181.46 186H3466.41V241.8H3181.46V186ZM3500.93 406.22V354.888H3694.37V406.22H3500.93ZM3639.68 186L3770.26 465H3702.92L3588.72 211.668H3609.55L3495.35 465H3428.02L3558.59 186H3639.68ZM4058.83 423.34L4036.88 426.68V186H4098.26V465H4018.28L3839.72 224.316L3861.3 220.968V465H3800.29V186H3882.13L4058.83 423.34ZM4457.28 351.54C4454.55 375.1 4446.24 395.93 4432.35 414.04C4418.71 431.89 4400.61 445.78 4378.04 455.7C4355.72 465.62 4330.18 470.58 4301.41 470.58C4269.67 470.58 4241.77 464.5 4217.71 452.35C4193.9 440.2 4175.3 423.34 4161.91 401.76C4148.52 379.94 4141.82 354.516 4141.82 325.5C4141.82 296.484 4148.52 271.188 4161.91 249.612C4175.3 227.788 4193.9 210.8 4217.71 198.648C4241.77 186.496 4269.67 180.42 4301.41 180.42C4330.18 180.42 4355.72 185.38 4378.04 195.3C4400.61 205.22 4418.71 219.108 4432.35 236.964C4446.24 254.82 4454.55 275.652 4457.28 299.46H4393.67C4391.19 286.316 4385.85 275.032 4377.67 265.608C4369.49 255.936 4358.95 248.496 4346.05 243.288C4333.15 238.08 4318.15 235.476 4301.04 235.476C4281.45 235.476 4264.46 239.196 4250.07 246.636C4235.94 253.828 4225.03 264.244 4217.34 277.884C4209.65 291.276 4205.81 307.148 4205.81 325.5C4205.81 343.852 4209.65 359.848 4217.34 373.488C4225.03 386.88 4235.94 397.3 4250.07 404.74C4264.46 411.93 4281.45 415.52 4301.04 415.52C4318.15 415.52 4333.15 413.04 4346.05 408.08C4358.95 402.88 4369.49 395.56 4377.67 386.14C4385.85 376.464 4391.19 364.932 4393.67 351.54H4457.28ZM4578.4 465V330.336H4641.64V465H4578.4ZM4447.08 186H4517.39L4624.9 321.78H4594.39L4701.9 186H4772.21L4630.1 365.676L4589.56 366.048L4447.08 186ZM1282.76 724.86H1346.75C1348.24 734.28 1352.33 742.59 1359.02 749.78C1365.97 756.73 1375.14 762.18 1386.55 766.15C1398.21 769.87 1411.6 771.73 1426.73 771.73C1448.8 771.73 1466.16 768.63 1478.81 762.43C1491.7 755.98 1498.15 747.06 1498.15 735.65C1498.15 726.72 1494.43 719.9 1486.99 715.19C1479.8 710.23 1466.28 706.63 1446.44 704.4L1390.27 698.08C1354.06 694.11 1327.78 685.68 1311.41 672.78C1295.29 659.64 1287.23 641.41 1287.23 618.1C1287.23 599.74 1292.56 584.12 1303.22 571.22C1314.14 558.33 1329.39 548.53 1348.98 541.84C1368.57 534.89 1391.64 531.42 1418.17 531.42C1443.96 531.42 1466.9 535.26 1486.99 542.95C1507.08 550.39 1523.08 560.93 1534.98 574.57C1546.88 587.96 1553.33 603.71 1554.32 621.82H1490.34C1489.1 613.63 1485.38 606.56 1479.18 600.61C1473.23 594.41 1464.92 589.7 1454.26 586.48C1443.59 583 1431.07 581.27 1416.68 581.27C1396.6 581.27 1380.6 584.24 1368.7 590.2C1356.79 596.15 1350.84 604.58 1350.84 615.49C1350.84 623.92 1354.31 630.5 1361.26 635.21C1368.45 639.67 1380.97 643.02 1398.83 645.25L1457.23 652.32C1483.02 655.05 1503.48 659.51 1518.61 665.71C1533.99 671.66 1544.9 679.72 1551.35 689.89C1558.04 700.06 1561.39 712.96 1561.39 728.58C1561.39 747.18 1555.69 763.55 1544.28 777.68C1533.12 791.57 1517.37 802.36 1497.04 810.05C1476.7 817.74 1452.89 821.58 1425.61 821.58C1397.84 821.58 1373.41 817.61 1352.33 809.68C1331.25 801.49 1314.63 790.21 1302.48 775.82C1290.33 761.19 1283.76 744.2 1282.76 724.86ZM1833.8 652.32V700.68H1634.04V652.32H1833.8ZM1676.45 676.5L1657.85 794.8L1630.32 763.55H1845.34V816H1594.24L1615.81 676.5L1594.24 537H1843.48V589.45H1630.32L1657.85 558.2L1676.45 676.5ZM1937.32 660.88H2044.83C2058.97 660.88 2070.13 657.65 2078.31 651.2C2086.74 644.51 2090.96 635.33 2090.96 623.68C2090.96 612.02 2086.74 602.97 2078.31 596.52C2070.13 590.07 2058.97 586.85 2044.83 586.85H1928.02L1956.67 554.48V816H1893.43V537H2052.27C2072.61 537 2090.46 540.72 2105.84 548.16C2121.21 555.35 2133.24 565.4 2141.92 578.29C2150.6 591.19 2154.94 606.32 2154.94 623.68C2154.94 640.79 2150.6 655.79 2141.92 668.69C2133.24 681.58 2121.21 691.75 2105.84 699.19C2090.46 706.38 2072.61 709.98 2052.27 709.98H1937.32V660.88ZM1985.68 685.43H2057.85L2163.13 816H2089.1L1985.68 685.43ZM2343.91 788.1H2316.01L2429.84 537H2496.8L2364.37 816H2293.31L2161.25 537H2228.96L2343.91 788.1ZM2526.99 537H2590.23V816H2526.99V537ZM2949.3 702.54C2946.57 726.1 2938.26 746.93 2924.37 765.04C2910.73 782.89 2892.63 796.78 2870.06 806.7C2847.74 816.62 2822.2 821.58 2793.43 821.58C2761.69 821.58 2733.79 815.5 2709.73 803.35C2685.92 791.2 2667.32 774.34 2653.93 752.76C2640.54 730.94 2633.84 705.52 2633.84 676.5C2633.84 647.48 2640.54 622.19 2653.93 600.61C2667.32 578.79 2685.92 561.8 2709.73 549.65C2733.79 537.5 2761.69 531.42 2793.43 531.42C2822.2 531.42 2847.74 536.38 2870.06 546.3C2892.63 556.22 2910.73 570.11 2924.37 587.96C2938.26 605.82 2946.57 626.65 2949.3 650.46H2885.69C2883.21 637.32 2877.87 626.03 2869.69 616.61C2861.51 606.94 2850.97 599.5 2838.07 594.29C2825.17 589.08 2810.17 586.48 2793.06 586.48C2773.47 586.48 2756.48 590.2 2742.09 597.64C2727.96 604.83 2717.05 615.24 2709.36 628.88C2701.67 642.28 2697.83 658.15 2697.83 676.5C2697.83 694.85 2701.67 710.85 2709.36 724.49C2717.05 737.88 2727.96 748.3 2742.09 755.74C2756.48 762.93 2773.47 766.52 2793.06 766.52C2810.17 766.52 2825.17 764.04 2838.07 759.08C2850.97 753.88 2861.51 746.56 2869.69 737.14C2877.87 727.46 2883.21 715.93 2885.69 702.54H2949.3ZM3220.45 652.32V700.68H3020.68V652.32H3220.45ZM3063.09 676.5L3044.49 794.8L3016.96 763.55H3231.98V816H2980.88L3002.46 676.5L2980.88 537H3230.12V589.45H3016.96L3044.49 558.2L3063.09 676.5ZM3265.19 724.86H3329.17C3330.66 734.28 3334.75 742.59 3341.45 749.78C3348.39 756.73 3357.57 762.18 3368.98 766.15C3380.63 769.87 3394.03 771.73 3409.15 771.73C3431.23 771.73 3448.59 768.63 3461.23 762.43C3474.13 755.98 3480.58 747.06 3480.58 735.65C3480.58 726.72 3476.86 719.9 3469.42 715.19C3462.23 710.23 3448.71 706.63 3428.87 704.4L3372.7 698.08C3336.49 694.11 3310.2 685.68 3293.83 672.78C3277.71 659.64 3269.65 641.41 3269.65 618.1C3269.65 599.74 3274.99 584.12 3285.65 571.22C3296.56 558.33 3311.81 548.53 3331.41 541.84C3351 534.89 3374.06 531.42 3400.6 531.42C3426.39 531.42 3449.33 535.26 3469.42 542.95C3489.51 550.39 3505.5 560.93 3517.41 574.57C3529.31 587.96 3535.76 603.71 3536.75 621.82H3472.77C3471.53 613.63 3467.81 606.56 3461.61 600.61C3455.65 594.41 3447.35 589.7 3436.68 586.48C3426.02 583 3413.49 581.27 3399.11 581.27C3379.02 581.27 3363.03 584.24 3351.12 590.2C3339.22 596.15 3333.27 604.58 3333.27 615.49C3333.27 623.92 3336.74 630.5 3343.68 635.21C3350.87 639.67 3363.4 643.02 3381.25 645.25L3439.66 652.32C3465.45 655.05 3485.91 659.51 3501.04 665.71C3516.41 671.66 3527.33 679.72 3533.77 689.89C3540.47 700.06 3543.82 712.96 3543.82 728.58C3543.82 747.18 3538.11 763.55 3526.71 777.68C3515.55 791.57 3499.8 802.36 3479.46 810.05C3459.13 817.74 3435.32 821.58 3408.04 821.58C3380.26 821.58 3355.83 817.61 3334.75 809.68C3313.67 801.49 3297.06 790.21 3284.91 775.82C3272.75 761.19 3266.18 744.2 3265.19 724.86Z" fill="#092663"/>
</svg>
