<svg width="2219" height="2218" viewBox="0 0 2219 2218" fill="none" xmlns="http://www.w3.org/2000/svg">
<mask id="mask0_8_920" style="mask-type:luminance" maskUnits="userSpaceOnUse" x="109" y="214" width="2001" height="1791">
<path d="M2109.5 214H109.5V2004.27H2109.5V214Z" fill="white"/>
</mask>
<g mask="url(#mask0_8_920)">
<path d="M1096.66 298.325C1100.58 298.331 1104.5 298.327 1108.42 298.321C1134.71 298.293 1160.89 298.874 1187.1 301.164C1188.2 301.259 1188.2 301.259 1189.31 301.356C1212.42 303.388 1235.38 306.22 1258.31 309.783C1259.4 309.951 1260.49 310.118 1261.6 310.291C1282.07 313.473 1302.32 317.459 1322.51 322.031C1324.8 322.546 1327.07 323.056 1329.35 323.565C1338.29 325.571 1347.14 327.763 1355.97 330.192C1357.03 330.482 1358.09 330.771 1359.19 331.07C1389.18 339.211 1418.64 348.508 1447.83 359.193C1450.31 360.099 1452.79 360.996 1455.27 361.89C1461.99 364.314 1468.6 366.789 1475.05 369.837C1478.26 371.306 1481.51 372.634 1484.77 373.962C1490.86 376.45 1496.93 378.982 1502.99 381.559C1503.76 381.887 1504.52 382.213 1505.33 382.549C1509.92 384.513 1514.41 386.634 1518.86 388.894C1522.12 390.531 1525.43 392.083 1528.73 393.643C1536.85 397.478 1544.87 401.425 1552.75 405.713C1555.42 407.153 1558.12 408.516 1560.86 409.851C1572.9 415.822 1584.55 422.549 1596.15 429.297C1597.04 429.811 1597.92 430.324 1598.83 430.853C1604.02 433.881 1609.1 437.022 1614.15 440.261C1617.66 442.487 1621.21 444.62 1624.76 446.76C1629.9 449.884 1634.94 453.078 1639.84 456.597C1642.18 458.271 1644.58 459.858 1646.99 461.444C1659.25 469.576 1671.1 478.227 1682.8 487.127C1683.32 487.522 1683.84 487.918 1684.37 488.325C1691.6 493.826 1698.74 499.414 1705.87 505.037C1707.18 506.072 1708.5 507.103 1709.82 508.134C1714.42 511.77 1718.82 515.584 1723.15 519.544C1725.44 521.574 1727.79 523.491 1730.19 525.397C1735.07 529.348 1739.64 533.592 1744.21 537.903C1747.13 540.653 1750.06 543.367 1753.11 545.979C1756.08 548.535 1758.84 551.264 1761.56 554.086C1763.3 555.787 1765.1 557.374 1766.95 558.966C1771.17 562.639 1775.13 566.557 1779.1 570.527C1779.78 571.216 1780.48 571.906 1781.19 572.616C1785 576.438 1788.66 580.345 1792.19 584.435C1793.87 586.364 1795.68 588.146 1797.53 589.917C1801.33 593.658 1804.65 597.673 1807.98 601.831C1809.6 603.788 1811.25 605.562 1813.08 607.323C1816.41 610.539 1819.25 614.08 1822.14 617.681C1824.65 620.744 1827.22 623.728 1829.82 626.713C1834.19 631.773 1838.34 636.968 1842.39 642.301C1844.07 644.534 1845.79 646.739 1847.53 648.938C1859.27 664.031 1870.21 679.789 1880.71 695.769C1881.25 696.578 1881.78 697.385 1882.33 698.219C1894.65 716.897 1894.65 716.897 1899.29 725.085C1901.44 728.833 1903.76 732.482 1906.06 736.14C1913.09 747.678 1919 759.964 1925.2 771.968C1925.73 772.981 1925.73 772.981 1926.26 774.014C1937.86 796.539 1948.57 819.809 1957.22 843.632C1957.9 845.499 1958.6 847.358 1959.31 849.216C1969.65 876.597 1978.37 904.539 1985.25 932.979C1985.94 935.787 1986.65 938.586 1987.38 941.386C1989.5 949.68 1991.2 958.023 1992.78 966.434C1992.91 967.147 1993.05 967.859 1993.19 968.6C2001.48 1012.68 2005.61 1056.7 2005.44 1101.55C2005.43 1105.9 2005.44 1110.23 2005.46 1114.56C2005.55 1143.51 2004.25 1172.3 2000.15 1200.99C1999.96 1202.42 1999.77 1203.86 1999.56 1205.3C1998 1216.62 1996.26 1227.9 1994.2 1239.14C1994.02 1240.11 1993.85 1241.1 1993.65 1242.1C1991.62 1253.19 1989.46 1264.2 1986.58 1275.1C1985.91 1277.7 1985.28 1280.32 1984.65 1282.94C1981.1 1297.55 1977.05 1311.93 1972.41 1326.23C1972.21 1326.83 1972.02 1327.43 1971.82 1328.05C1970.32 1332.64 1968.81 1337.24 1967.31 1341.81C1967.1 1342.44 1966.9 1343.06 1966.69 1343.69C1964.13 1351.46 1961.34 1359.09 1958.23 1366.65C1956.93 1369.89 1955.72 1373.14 1954.53 1376.4C1949.09 1391.14 1942.81 1405.62 1936.01 1419.76C1935.07 1421.73 1934.15 1423.71 1933.24 1425.68C1929.61 1433.49 1925.8 1441.07 1921.43 1448.5C1919.81 1451.31 1918.34 1454.17 1916.92 1457.08C1914.87 1461.24 1912.64 1465.19 1910.21 1469.12C1908.84 1471.4 1907.59 1473.69 1906.36 1476.02C1903.69 1480.99 1900.71 1485.73 1897.68 1490.49C1895.75 1493.52 1893.93 1496.58 1892.21 1499.73C1889.4 1504.86 1886.14 1509.67 1882.87 1514.52C1882.22 1515.48 1881.58 1516.44 1880.92 1517.43C1879.04 1520.22 1877.15 1523.01 1875.27 1525.8C1874.56 1526.86 1874.56 1526.86 1873.82 1527.94C1864.25 1542.13 1854.02 1555.85 1843.5 1569.34C1842.7 1570.37 1841.89 1571.41 1841.1 1572.44C1835.6 1579.52 1829.87 1586.38 1823.99 1593.15C1822.6 1594.74 1821.25 1596.34 1819.89 1597.95C1814.91 1603.8 1809.84 1609.55 1804.59 1615.17C1802.15 1617.78 1799.75 1620.43 1797.42 1623.14C1794.82 1626.16 1792.05 1628.94 1789.18 1631.71C1787.48 1633.47 1785.88 1635.26 1784.28 1637.11C1780.75 1641.17 1777 1644.98 1773.19 1648.78C1772.21 1649.75 1772.21 1649.75 1771.23 1650.74C1767.51 1654.45 1763.7 1657.98 1759.73 1661.4C1757.9 1662.99 1756.2 1664.67 1754.52 1666.41C1751.68 1669.29 1748.75 1671.96 1745.68 1674.59C1743.66 1676.34 1741.7 1678.15 1739.74 1679.96C1735.08 1684.28 1730.32 1688.39 1725.37 1692.38C1722.97 1694.34 1720.63 1696.34 1718.3 1698.37C1712.5 1703.42 1706.54 1708.16 1700.41 1712.79C1696.08 1716.06 1691.83 1719.4 1687.62 1722.82C1681.36 1727.87 1674.9 1732.59 1668.28 1737.17C1667.29 1737.84 1666.31 1738.52 1665.29 1739.24C1662.82 1740.79 1662.82 1740.79 1661.01 1740.79C1661.01 1741.39 1661.01 1741.99 1661.01 1742.61C1659.47 1743.76 1657.86 1744.84 1656.24 1745.89C1654.75 1746.86 1654.75 1746.86 1653.23 1747.85C1652.45 1748.35 1652.45 1748.35 1651.67 1748.86C1649.28 1750.4 1646.92 1751.97 1644.55 1753.55C1643.66 1754.14 1642.77 1754.74 1641.84 1755.34C1638.64 1757.51 1635.5 1759.73 1632.36 1761.98C1630.13 1763.47 1627.83 1764.8 1625.5 1766.12C1622.52 1767.82 1619.64 1769.64 1616.75 1771.46C1616.12 1771.86 1615.48 1772.26 1614.83 1772.67C1611.2 1774.95 1607.58 1777.25 1603.99 1779.57C1600.1 1782.05 1596.12 1784.3 1592.06 1786.46C1588.83 1788.22 1585.62 1790.01 1582.43 1791.82C1581.18 1792.52 1579.92 1793.22 1578.67 1793.92C1576.7 1795.03 1574.72 1796.15 1572.75 1797.26C1563.26 1802.61 1553.69 1807.69 1543.89 1812.45C1542.88 1812.95 1541.86 1813.45 1540.81 1813.96C1505.36 1831.27 1505.36 1831.27 1487.05 1838.46C1481.55 1840.62 1476.09 1842.91 1470.65 1845.24C1447.32 1855.12 1423.21 1863.8 1398.85 1870.82C1396.15 1871.62 1393.49 1872.48 1390.82 1873.36C1378.15 1877.48 1365.24 1880.77 1352.34 1884.12C1351.38 1884.36 1350.43 1884.61 1349.45 1884.87C1333.57 1889 1317.56 1892.55 1301.49 1895.91C1300.81 1896.06 1300.12 1896.19 1299.41 1896.34C1287.65 1898.78 1275.86 1900.85 1263.99 1902.72C1263.13 1902.86 1262.26 1902.98 1261.37 1903.13C1232.42 1907.68 1203.4 1911.08 1174.16 1913.26C1173.27 1913.33 1172.36 1913.4 1171.45 1913.47C1149.8 1914.99 1128.14 1915.11 1106.46 1915.08C1102.59 1915.07 1098.74 1915.07 1094.87 1915.08C1017.9 1915.17 941.582 1906.13 866.729 1888.2C864.814 1887.75 862.897 1887.3 860.98 1886.83C845.429 1883.12 830.081 1878.95 814.845 1874.08C806.84 1871.55 798.81 1869.13 790.714 1866.9C787.845 1866.04 785.08 1865.04 782.283 1863.97C778.995 1862.73 775.655 1861.68 772.32 1860.59C767.297 1858.94 762.331 1857.22 757.442 1855.21C753.966 1853.78 750.461 1852.42 746.956 1851.07C746.237 1850.78 745.52 1850.51 744.78 1850.22C740.879 1848.71 736.969 1847.22 733.054 1845.73C720.67 1840.98 708.348 1835.92 696.357 1830.24C693.766 1829.04 691.165 1827.86 688.554 1826.69C680.417 1823.05 672.365 1819.39 664.553 1815.08C660.325 1812.78 656.006 1810.72 651.63 1808.71C646.651 1806.42 641.933 1803.97 637.285 1801.05C634.021 1799.1 630.605 1797.48 627.174 1795.84C623.9 1794.14 620.772 1792.27 617.619 1790.35C615.127 1788.86 612.617 1787.39 610.097 1785.94C592.838 1775.97 576.137 1765.35 559.537 1754.34C558.842 1753.88 558.147 1753.43 557.431 1752.95C548.033 1746.72 538.834 1740.28 529.804 1733.53C529.315 1733.16 528.824 1732.79 528.318 1732.42C526.136 1730.79 523.958 1729.16 521.782 1727.53C519.645 1725.93 517.504 1724.32 515.357 1722.73C505.394 1715.32 495.81 1707.57 486.406 1699.47C483.154 1696.67 479.863 1693.93 476.524 1691.23C472.226 1687.75 468.13 1684.08 464.055 1680.35C458.451 1675.14 458.451 1675.14 452.433 1670.42C451.634 1669.78 451.634 1669.78 450.82 1669.12C450.82 1668.53 450.82 1667.93 450.82 1667.31C450.284 1667.08 449.748 1666.83 449.195 1666.58C447.105 1665.45 445.769 1664.27 444.117 1662.57C443.564 1662.01 443.01 1661.44 442.44 1660.87C441.873 1660.28 441.305 1659.69 440.72 1659.09C439.585 1657.92 438.447 1656.76 437.308 1655.6C436.809 1655.08 436.309 1654.56 435.793 1654.04C434.502 1652.7 434.502 1652.7 432.662 1651.89C432.662 1651.29 432.662 1650.7 432.662 1650.08C432.128 1649.83 431.593 1649.6 431.042 1649.35C428.924 1648.2 427.575 1647 425.91 1645.25C425.367 1644.69 424.824 1644.13 424.265 1643.56C423.478 1642.75 423.478 1642.75 422.676 1641.91C421.788 1641.06 420.899 1640.21 420.008 1639.36C418.137 1637.37 418.137 1637.37 418.137 1635.56C417.537 1635.56 416.938 1635.56 416.321 1635.56C414.945 1634.17 414.945 1634.17 413.37 1632.27C411.285 1629.81 409.175 1627.48 406.845 1625.24C404.518 1622.86 404.518 1622.86 404.518 1621.05C403.919 1621.05 403.32 1621.05 402.703 1621.05C401.518 1619.91 401.518 1619.91 400.092 1618.21C399.526 1617.55 398.96 1616.88 398.376 1616.19C397.372 1615 397.372 1615 396.348 1613.8C395.104 1612.33 393.855 1610.88 392.607 1609.42C391.683 1608.35 390.76 1607.27 389.837 1606.2C387.4 1603.35 384.952 1600.51 382.477 1597.69C376.379 1590.74 370.524 1583.65 364.868 1576.33C363.689 1574.81 362.498 1573.3 361.302 1571.81C347.705 1554.69 335.084 1537.03 323.005 1518.83C320.176 1514.56 317.293 1510.35 314.274 1506.23C312.572 1503.64 311.111 1500.95 309.619 1498.24C306.481 1492.64 303.09 1487.2 299.764 1481.72C296.517 1476.34 293.383 1470.94 290.424 1465.39C289.224 1463.21 287.94 1461.12 286.609 1459C283.799 1454.4 281.572 1449.57 279.317 1444.68C277.392 1440.51 275.33 1436.48 273.105 1432.48C267.477 1422.21 263.006 1411.34 258.351 1400.61C257.699 1399.11 257.699 1399.11 257.034 1397.59C250.576 1382.76 244.713 1367.78 239.286 1352.53C239.078 1351.96 238.871 1351.37 238.655 1350.77C233.331 1335.84 228.313 1320.91 224.374 1305.54C223.652 1302.79 222.846 1300.05 222.037 1297.32C215.193 1273.51 210.24 1249.3 206.191 1224.88C205.874 1222.98 205.552 1221.07 205.223 1219.18C199.115 1183.64 197.028 1147.52 197.169 1111.51C197.185 1107.5 197.175 1103.5 197.16 1099.5C197.053 1067.22 199.316 1035.26 203.88 1003.29C203.965 1002.69 204.05 1002.09 204.136 1001.47C206.509 984.748 209.475 968.216 213.217 951.726C213.825 949.045 214.414 946.36 214.997 943.672C221.152 915.581 229.655 888.246 239.164 861.131C240.141 858.298 241.073 855.452 241.999 852.601C243.836 847.064 246.065 841.733 248.365 836.375C249.146 834.515 249.926 832.653 250.706 830.79C264.396 798.258 278.721 765.218 297.716 735.354C299.152 733.049 300.437 730.713 301.703 728.312C309.482 713.853 319.069 700.284 328.258 686.697C328.71 686.027 329.164 685.356 329.631 684.665C338.416 671.702 347.7 659.145 357.309 646.783C357.867 646.058 358.425 645.333 359.001 644.587C365.515 636.147 372.357 627.979 379.265 619.861C380.95 617.879 382.627 615.89 384.293 613.892C389.404 607.787 394.676 601.872 400.11 596.051C402.466 593.528 404.773 590.963 407.072 588.387C409.856 585.279 412.729 582.31 415.707 579.389C417.328 577.739 418.84 576.022 420.35 574.269C423.651 570.457 427.025 566.628 430.847 563.327C431.446 563.327 432.045 563.327 432.662 563.327C432.662 562.728 432.662 562.129 432.662 561.513C433.932 560.265 433.932 560.265 435.726 558.792C439.77 555.378 443.427 551.661 447.097 547.852C449.004 546.091 449.004 546.091 450.82 546.091C450.82 545.493 450.82 544.894 450.82 544.277C452.058 543.03 452.058 543.03 453.827 541.556C456.917 538.935 459.926 536.251 462.906 533.504C467.068 529.709 471.357 526.117 475.74 522.58C477.763 520.931 479.734 519.247 481.688 517.517C486.121 513.607 490.706 509.89 495.305 506.177C495.834 505.75 496.363 505.322 496.908 504.882C504.431 498.805 512.028 492.86 519.818 487.127C520.357 486.731 520.895 486.335 521.45 485.927C524.913 483.378 528.381 480.839 531.853 478.305C533.272 477.269 534.69 476.229 536.107 475.189C546.614 467.502 557.364 460.262 568.326 453.245C570.938 451.57 573.544 449.888 576.148 448.206C586.895 441.281 597.681 434.494 608.79 428.164C609.582 427.71 610.374 427.255 611.191 426.787C622.309 420.42 633.508 414.26 644.882 408.365C646.845 407.34 648.794 406.291 650.739 405.234C671.87 393.809 693.881 383.917 716.088 374.787C718.653 373.73 721.211 372.663 723.77 371.592C747.002 361.927 770.37 353.211 794.388 345.687C798.687 344.338 802.957 342.929 807.223 341.48C814.677 338.981 822.219 336.864 829.799 334.786C830.867 334.491 830.867 334.491 831.955 334.191C844.07 330.85 856.213 327.658 868.44 324.75C869.211 324.565 869.982 324.38 870.776 324.19C918.288 312.852 966.854 305.315 1015.52 301.164C1016.55 301.077 1017.56 300.988 1018.62 300.896C1044.62 298.694 1070.58 298.29 1096.66 298.325ZM1025.5 399.136C1024.63 399.833 1023.77 400.531 1022.88 401.251C1011.05 410.839 999.671 421.702 990.309 433.724C988.636 435.863 986.936 437.955 985.196 440.038C984.633 440.706 984.085 441.375 983.509 442.065C982.413 443.37 981.33 444.675 980.233 445.977C973.544 454.029 967.855 462.779 962.07 471.48C961.426 472.435 960.795 473.392 960.137 474.378C950.076 489.503 950.076 489.503 941.069 505.27C938.492 510.069 935.906 514.827 933.012 519.444C929.786 524.743 927.265 530.351 924.668 535.974C923.257 539.023 921.777 542.025 920.246 545.014C911.405 562.537 903.571 580.802 896.821 599.226C895.875 601.794 894.891 604.335 893.86 606.87C889.407 617.872 885.434 629.056 881.582 640.28C880.856 642.393 880.122 644.504 879.389 646.613C878.92 647.976 878.451 649.34 877.984 650.702C877.767 651.323 877.551 651.944 877.327 652.585C876.137 656.076 875.293 659.456 874.795 663.112C906.104 667.105 937.497 669.902 968.979 672.043C972.022 672.251 975.065 672.471 978.108 672.69C1004.17 674.535 1030.25 675.78 1056.37 676.379C1057.18 676.398 1057.97 676.416 1058.81 676.435C1061.14 676.489 1063.45 676.537 1065.78 676.585C1066.77 676.605 1066.77 676.605 1067.77 676.627C1075.18 676.765 1082.56 676.719 1089.97 676.719C1089.97 574.04 1089.97 471.362 1089.97 365.571C1067.79 365.571 1041.4 385.492 1025.5 399.136ZM1155.33 371.921C1155.31 410.62 1155.28 449.318 1155.28 488.017C1155.28 492.58 1155.28 497.144 1155.27 501.707C1155.27 502.616 1155.27 503.525 1155.27 504.461C1155.27 519.193 1155.27 533.925 1155.26 548.657C1155.24 563.761 1155.24 578.866 1155.24 593.97C1155.24 603.299 1155.23 612.626 1155.23 621.954C1155.23 628.342 1155.22 634.73 1155.23 641.116C1155.23 644.808 1155.23 648.5 1155.22 652.19C1155.22 655.563 1155.22 658.937 1155.22 662.31C1155.22 664.121 1155.22 665.931 1155.22 667.742C1155.22 668.801 1155.22 669.862 1155.22 670.955C1155.22 671.877 1155.22 672.8 1155.22 673.751C1155.09 675.783 1155.09 675.783 1156.23 676.719C1159.11 676.77 1161.96 676.757 1164.83 676.705C1165.73 676.691 1166.62 676.676 1167.55 676.663C1170.56 676.613 1173.54 676.553 1176.55 676.493C1177.57 676.472 1178.6 676.453 1179.67 676.432C1200.18 676.018 1220.63 674.927 1241.1 673.589C1246.4 673.243 1251.69 672.92 1257 672.637C1288.27 670.944 1319.42 667.77 1350.51 664.02C1351.82 660.128 1350.29 657.285 1348.99 653.566C1348.73 652.796 1348.46 652.024 1348.2 651.23C1347.33 648.724 1346.46 646.223 1345.58 643.722C1344.99 642.01 1344.4 640.298 1343.81 638.586C1340.12 627.937 1336.27 617.364 1332.16 606.875C1331.06 604.024 1330.08 601.138 1329.07 598.251C1327.36 593.429 1325.35 588.859 1323.15 584.24C1320.82 579.264 1318.77 574.175 1316.64 569.11C1311.2 556.171 1305.44 543.46 1298.73 531.125C1296.18 526.439 1293.79 521.684 1291.47 516.885C1289.05 511.932 1286.21 507.259 1283.33 502.549C1282.48 501.112 1281.63 499.676 1280.77 498.236C1265.99 473.389 1249.62 450.025 1230.68 428.164C1230.09 427.474 1230.09 427.474 1229.47 426.771C1226.1 422.83 1226.1 422.83 1222.51 419.093C1221.91 419.093 1221.32 419.093 1220.7 419.093C1220.45 418.556 1220.21 418.018 1219.96 417.466C1215.5 409.236 1205.52 402.924 1198.34 397.151C1197.77 396.687 1197.19 396.224 1196.6 395.746C1191.01 390.687 1191.01 390.687 1184.37 388.25C1184.37 387.651 1184.37 387.052 1184.37 386.435C1183.03 385.38 1183.03 385.38 1181.26 384.402C1180.59 384.014 1179.93 383.628 1179.25 383.229C1178.55 382.827 1177.83 382.427 1177.12 382.013C1176.11 381.422 1176.11 381.422 1175.07 380.819C1168.58 377.066 1162.56 373.951 1155.33 371.921ZM955.596 373.736C954.799 373.889 954.004 374.044 953.185 374.203C947.493 375.289 941.807 376.353 936.084 377.255C924.485 379.085 913.098 381.392 901.677 384.114C897.723 385.056 893.764 385.953 889.789 386.801C859.6 393.245 829.866 401.957 800.577 411.665C799.094 412.157 799.094 412.157 797.582 412.657C792.528 414.357 787.56 416.183 782.624 418.195C777.807 420.118 772.903 421.811 768.018 423.548C761.759 425.796 755.631 428.292 749.509 430.885C747.593 431.687 745.677 432.487 743.76 433.288C733.751 437.489 723.771 441.703 713.984 446.405C712.076 447.314 710.158 448.205 708.24 449.096C699.257 453.277 690.454 457.718 681.71 462.376C678.446 464.113 675.15 465.772 671.829 467.397C667.792 469.389 663.974 471.617 660.14 473.974C656.809 475.922 653.353 477.587 649.87 479.247C645.747 481.386 641.81 483.807 637.841 486.22C636.236 487.186 634.631 488.151 633.025 489.115C616.428 499.136 600.173 509.595 584.277 520.691C583.64 521.134 583.001 521.578 582.344 522.035C574.74 527.321 567.265 532.713 559.97 538.416C556.169 541.355 552.217 544.09 548.248 546.797C546.91 547.728 545.616 548.719 544.331 549.72C544.331 550.319 544.331 550.918 544.331 551.534C543.862 551.74 543.394 551.946 542.912 552.158C539.886 553.785 536.934 555.617 534.344 557.884C534.344 558.483 534.344 559.082 534.344 559.699C533.858 559.903 533.372 560.107 532.872 560.319C530.012 561.899 527.662 563.973 525.208 566.105C524.158 567.009 523.105 567.913 522.052 568.816C521.264 569.492 521.264 569.492 520.459 570.183C517.444 572.731 514.332 575.163 511.226 577.6C508.344 580.173 505.925 583.026 503.477 586.006C523.146 592.705 542.88 598.812 563.013 603.97C568.676 605.425 574.296 606.989 579.908 608.627C591.566 612.012 603.352 614.885 615.145 617.755C616.372 618.055 616.372 618.055 617.623 618.36C622.225 619.48 626.831 620.569 631.442 621.644C633.426 622.107 635.407 622.575 637.387 623.044C693.88 636.409 751.132 646.331 808.521 654.948C810.454 651.312 811.816 647.883 812.865 643.906C815.163 635.609 817.929 627.487 820.72 619.343C820.994 618.539 821.268 617.736 821.552 616.909C826.721 601.803 832.296 586.874 838.124 572.01C839.37 568.816 840.591 565.614 841.811 562.409C843.361 558.378 845.004 554.463 846.877 550.571C849.006 546.105 851.078 541.621 853.089 537.101C875.105 487.669 901.873 434.9 939.119 394.93C941.25 392.586 943.23 390.153 945.212 387.682C948.717 383.348 952.463 379.389 956.503 375.549C956.204 374.952 955.904 374.353 955.596 373.736ZM1274.26 379.178C1276.27 382.833 1278.64 385.635 1281.52 388.646C1286.62 394.083 1291.21 399.824 1295.75 405.733C1296.9 407.236 1298.08 408.727 1299.25 410.216C1313.46 428.303 1326.17 447.887 1337.55 467.854C1338.82 470.064 1340.1 472.261 1341.38 474.46C1354.27 496.676 1365.31 519.791 1375.61 543.292C1376.82 546.028 1378.05 548.749 1379.3 551.467C1380.86 554.892 1382.33 558.327 1383.66 561.852C1384.03 562.848 1384.41 563.843 1384.8 564.868C1385.17 565.857 1385.54 566.845 1385.92 567.862C1386.65 569.735 1387.36 571.606 1388.09 573.476C1388.46 574.457 1388.84 575.437 1389.23 576.449C1390.1 578.713 1390.98 580.974 1391.87 583.232C1395.09 591.369 1398.16 599.551 1401.14 607.777C1401.48 608.719 1401.82 609.661 1402.17 610.63C1403.96 615.602 1405.59 620.58 1407.07 625.651C1407.66 627.585 1408.35 629.455 1409.07 631.341C1411.04 636.404 1412.41 641.651 1413.85 646.879C1414.06 647.659 1414.3 648.439 1414.52 649.242C1414.72 649.947 1414.91 650.652 1415.12 651.377C1415.83 653.456 1415.83 653.456 1418.62 654.948C1421.62 654.734 1421.62 654.734 1425.06 654.029C1426 653.857 1426 653.857 1426.98 653.678C1429.06 653.299 1431.12 652.904 1433.19 652.51C1434.61 652.246 1436.05 651.983 1437.48 651.722C1440.26 651.211 1443.04 650.696 1445.83 650.177C1449.88 649.423 1453.97 648.739 1458.04 648.087C1464.85 646.975 1471.64 645.754 1478.41 644.516C1479.42 644.332 1480.44 644.15 1481.49 643.961C1487.29 642.892 1492.98 641.617 1498.7 640.15C1502.33 639.253 1505.99 638.593 1509.68 637.939C1537.97 632.702 1566.53 626.116 1594.12 617.965C1599.63 616.341 1605.17 614.852 1610.72 613.396C1634.02 607.284 1656.97 600.188 1679.79 592.465C1684.09 591.015 1688.38 589.587 1692.67 588.16C1693.96 587.732 1695.24 587.306 1696.52 586.876C1697.38 586.59 1698.25 586.302 1699.14 586.006C1698 582.59 1696.57 581.747 1693.75 579.543C1690.31 576.797 1686.96 574.01 1683.7 571.038C1679.01 566.77 1674.12 562.779 1669.18 558.792C1668.06 557.874 1666.95 556.956 1665.83 556.038C1647.72 541.166 1628.66 527.484 1609.27 514.342C1608.73 513.981 1608.21 513.621 1607.66 513.249C1597.41 506.265 1586.87 499.729 1576.33 493.196C1574.19 491.868 1572.05 490.528 1569.92 489.179C1569.38 488.834 1568.83 488.487 1568.27 488.131C1566.88 487.262 1565.51 486.388 1564.14 485.515C1562.04 484.192 1562.04 484.192 1559.33 484.406C1559.33 483.807 1559.33 483.208 1559.33 482.591C1558.64 482.262 1557.97 481.932 1557.26 481.592C1556.34 481.137 1555.41 480.68 1554.45 480.21C1553.54 479.769 1552.64 479.326 1551.71 478.871C1549.24 477.618 1546.91 476.225 1544.55 474.775C1537.51 470.508 1530.13 466.837 1522.78 463.089C1521.63 462.493 1521.63 462.493 1520.44 461.885C1506.94 454.977 1493.31 448.398 1479.49 442.125C1477.66 441.293 1475.83 440.456 1474.01 439.613C1469.21 437.407 1464.43 435.382 1459.47 433.607C1455.31 432.091 1451.25 430.513 1447.27 428.617C1442.48 426.371 1437.56 424.634 1432.56 422.93C1429.25 421.8 1426 420.604 1422.77 419.277C1415.82 416.473 1408.73 414.088 1401.65 411.665C1400.89 411.406 1400.12 411.146 1399.34 410.879C1384.7 405.883 1369.98 401.417 1355.05 397.321C1353.91 397.004 1352.76 396.687 1351.58 396.362C1336.82 392.299 1322 388.567 1307.05 385.249C1304.17 384.611 1301.3 383.961 1298.42 383.31C1296.57 382.896 1294.72 382.483 1292.87 382.07C1291.62 381.788 1291.62 381.788 1290.36 381.5C1285 380.327 1279.71 379.604 1274.26 379.178ZM450.82 636.805C444.964 643.033 439.245 649.295 433.886 655.961C431.396 659.018 428.828 662.001 426.251 664.983C421.915 670.017 417.678 675.104 413.597 680.347C413.18 680.883 412.762 681.419 412.333 681.972C404.66 691.854 397.249 701.907 389.992 712.098C389.471 712.826 388.95 713.555 388.414 714.306C375.145 732.894 363.416 752.288 351.862 771.968C351.283 772.951 350.703 773.932 350.107 774.944C349.27 776.369 349.27 776.369 348.416 777.822C347.919 778.664 347.423 779.507 346.912 780.375C344.968 783.805 343.234 787.323 341.5 790.863C340.217 793.426 338.877 795.953 337.508 798.472C332.868 807.015 328.698 815.757 324.627 824.582C324.273 825.347 323.921 826.112 323.557 826.9C319.095 836.611 314.888 846.375 311.008 856.332C310.424 857.788 309.837 859.243 309.249 860.697C308.624 862.265 307.999 863.835 307.376 865.403C307.146 865.981 306.916 866.56 306.677 867.156C303.204 875.895 299.947 884.643 297.056 893.593C296.459 895.407 295.841 897.212 295.216 899.016C285.969 925.859 279.22 953.673 273.785 981.513C273.625 982.321 273.466 983.13 273.3 983.966C269.515 1003.28 266.95 1022.79 264.934 1042.35C264.76 1044.01 264.76 1044.01 264.583 1045.69C264.479 1046.76 264.374 1047.82 264.268 1048.9C264.176 1049.82 264.085 1050.74 263.991 1051.68C263.716 1056.41 263.763 1061.14 263.799 1065.89C264.83 1065.89 264.829 1065.89 265.881 1065.9C272.385 1065.97 278.888 1066.05 285.393 1066.15C288.735 1066.19 292.078 1066.23 295.422 1066.27C298.653 1066.3 301.885 1066.34 305.116 1066.39C306.938 1066.41 308.758 1066.43 310.579 1066.45C323.737 1066.65 332.824 1069.12 342.539 1078.18C349.906 1086.09 351.483 1095.15 351.238 1105.61C350.98 1110.45 349.714 1114.29 347.323 1118.5C346.949 1119.2 346.573 1119.91 346.188 1120.64C341.25 1129 332.942 1134.03 323.718 1136.63C318.986 1137.17 314.28 1137.18 309.526 1137.19C308.174 1137.21 306.824 1137.22 305.474 1137.24C301.948 1137.28 298.422 1137.29 294.898 1137.3C291.289 1137.32 287.679 1137.36 284.07 1137.4C277.01 1137.47 269.951 1137.51 262.891 1137.55C263.339 1151.18 264.221 1164.69 265.727 1178.25C265.825 1179.14 265.922 1180.02 266.022 1180.94C269.856 1215.54 276.326 1249.7 285.869 1283.2C286.485 1285.38 287.087 1287.56 287.683 1289.75C291.6 1304.78 291.6 1304.78 296.908 1319.32C298.521 1323.13 299.714 1326.98 300.908 1330.93C302.697 1336.71 304.639 1342.32 307.068 1347.87C308.299 1350.75 309.426 1353.67 310.542 1356.59C313.195 1363.56 316.07 1370.33 319.289 1377.06C320.913 1380.46 322.448 1383.88 323.98 1387.32C333.605 1408.94 344.409 1430.4 357.26 1450.29C358.897 1452.86 360.372 1455.45 361.792 1458.15C365.154 1464.45 369.097 1470.35 373.027 1476.3C374.106 1477.95 375.183 1479.58 376.258 1481.21C383.46 1492.19 390.777 1502.99 398.801 1513.38C400.602 1515.73 402.358 1518.1 404.121 1520.47C411.061 1529.7 418.233 1538.7 425.74 1547.49C427.977 1550.11 430.154 1552.77 432.322 1555.45C435.611 1559.48 439.032 1563.38 442.543 1567.22C444.274 1569.13 445.963 1571.07 447.642 1573.03C450.54 1576.36 453.637 1579.46 456.806 1582.53C458.558 1584.32 460.189 1586.13 461.821 1588.04C465.98 1592.82 470.487 1597.25 474.993 1601.72C476.257 1602.97 476.257 1602.97 477.545 1604.25C479.112 1605.8 480.679 1607.37 482.247 1608.91C484.487 1611.15 486.72 1613.37 488.95 1615.6C494.004 1614.14 498.474 1611.82 503.137 1609.42C521.156 1600.32 539.505 1592 558.151 1584.25C561.59 1582.81 564.991 1581.32 568.374 1579.77C573.664 1577.35 579.039 1575.17 584.447 1573.03C585.949 1572.42 585.949 1572.42 587.483 1571.82C607.18 1564.02 627.116 1556.67 647.29 1550.19C650.08 1549.29 652.764 1548.3 655.452 1547.13C659.296 1545.52 663.175 1544.35 667.176 1543.2C673.03 1541.49 678.83 1539.69 684.596 1537.7C694.814 1534.22 705.222 1531.38 715.611 1528.46C719.082 1527.49 722.547 1526.49 726.011 1525.49C743.545 1520.44 761.163 1515.77 778.919 1511.56C783.98 1510.37 789.012 1509.15 793.995 1507.65C793.404 1501.65 792.063 1496.02 790.533 1490.19C788.539 1482.43 786.739 1474.67 785.263 1466.79C784.536 1462.95 783.694 1459.17 782.724 1455.39C781.069 1448.87 779.71 1442.29 778.391 1435.71C778.258 1435.06 778.126 1434.4 777.991 1433.71C774.688 1417.22 771.9 1400.64 769.12 1384.05C768.987 1383.24 768.853 1382.44 768.714 1381.62C768.008 1377.37 767.349 1373.12 766.758 1368.86C767.851 1368.53 767.851 1368.53 768.964 1368.2C788.857 1361.12 807.123 1348.37 824.269 1336.32C825.77 1335.3 825.77 1335.3 827.586 1334.4C827.523 1336 827.523 1336 827.459 1337.65C827.463 1343.76 828.602 1349.71 829.629 1355.71C829.838 1356.96 830.047 1358.21 830.254 1359.47C830.57 1361.36 830.888 1363.27 831.208 1365.17C832.028 1370.05 832.799 1374.93 833.559 1379.83C834.969 1388.87 836.579 1397.84 838.431 1406.8C839.315 1411.09 840.129 1415.39 840.936 1419.69C842.862 1429.9 844.952 1440.07 847.161 1450.22C847.29 1450.82 847.419 1451.41 847.552 1452.03C849.2 1459.63 851.049 1467.16 853.09 1474.67C854.25 1478.96 855.307 1483.27 856.352 1487.59C857.157 1490.9 857.157 1490.9 858.454 1494.04C863.599 1493.47 868.677 1492.66 873.778 1491.77C902.055 1486.89 930.54 1482.68 959.097 1479.83C961.906 1479.54 964.716 1479.22 967.526 1478.91C1008.27 1474.29 1048.97 1472.14 1089.97 1470.46C1089.97 1401.31 1089.97 1332.16 1089.97 1260.91C1090.56 1260.91 1091.16 1260.91 1091.78 1260.91C1091.99 1261.42 1092.2 1261.91 1092.43 1262.42C1093.89 1265.08 1095.7 1267.17 1097.68 1269.48C1102.1 1274.7 1106.29 1280.07 1110.45 1285.52C1117.33 1294.51 1124.28 1303.43 1131.58 1312.1C1133.85 1314.8 1136.01 1317.55 1138.15 1320.35C1139.53 1322.14 1140.93 1323.93 1142.34 1325.71C1142.78 1326.26 1143.22 1326.82 1143.67 1327.38C1144.52 1328.48 1145.39 1329.56 1146.25 1330.64C1146.66 1331.15 1147.06 1331.66 1147.47 1332.19C1147.83 1332.63 1148.18 1333.08 1148.55 1333.55C1148.99 1334.12 1149.43 1334.7 1149.88 1335.3C1150.64 1336.13 1151.41 1336.95 1152.2 1337.8C1155.68 1342.75 1155.05 1348.37 1155.02 1354.19C1155.02 1355.47 1155.04 1356.73 1155.05 1358C1155.07 1361.44 1155.07 1364.87 1155.07 1368.3C1155.07 1371.9 1155.08 1375.49 1155.11 1379.09C1155.13 1385.89 1155.15 1392.68 1155.15 1399.48C1155.16 1407.22 1155.19 1414.96 1155.22 1422.71C1155.28 1438.62 1155.31 1454.55 1155.33 1470.46C1156.93 1470.61 1158.53 1470.77 1160.14 1470.9C1161.03 1470.98 1161.92 1471.08 1162.85 1471.16C1165.44 1471.38 1168.02 1471.49 1170.62 1471.53C1192.57 1471.97 1214.41 1473.84 1236.29 1475.69C1238.59 1475.88 1240.89 1476.07 1243.19 1476.26C1270.68 1478.58 1298.03 1482.07 1325.26 1486.39C1326.09 1486.53 1326.9 1486.65 1327.73 1486.79C1337.53 1488.34 1347.29 1490.05 1357.01 1492.01C1360.64 1492.73 1364.04 1493.36 1367.77 1493.14C1369.65 1487.74 1371.27 1482.32 1372.6 1476.76C1372.78 1475.95 1372.97 1475.15 1373.17 1474.32C1375.61 1463.77 1377.49 1453.11 1379.45 1442.47C1380.38 1437.36 1381.38 1432.25 1382.39 1427.15C1385.11 1413.26 1387.66 1399.35 1390.19 1385.42C1390.45 1383.97 1390.45 1383.97 1390.71 1382.5C1392.56 1372.31 1394.37 1362.14 1395.89 1351.92C1396.6 1347.23 1397.56 1342.64 1398.63 1338.02C1401.89 1339.2 1404.43 1340.61 1407.21 1342.66C1411.35 1345.64 1415.64 1348.19 1420.08 1350.67C1423.69 1352.7 1427.24 1354.82 1430.75 1357.02C1435.22 1359.79 1439.74 1362.43 1444.32 1365.01C1444.89 1365.34 1445.48 1365.67 1446.09 1366.01C1450.19 1368.3 1454.35 1370.42 1458.56 1372.49C1452.58 1408.71 1446.18 1444.72 1437.67 1480.44C1437 1483.34 1436.31 1486.23 1435.63 1489.12C1435.37 1490.27 1435.09 1491.42 1434.8 1492.6C1433.63 1497.62 1432.47 1502.64 1431.32 1507.65C1435.08 1508.96 1438.84 1510.04 1442.69 1511.01C1443.82 1511.3 1444.96 1511.59 1446.14 1511.89C1447.05 1512.11 1447.05 1512.11 1447.95 1512.34C1469.87 1517.89 1491.42 1524.46 1512.9 1531.51C1514.9 1532.16 1516.89 1532.82 1518.89 1533.47C1536.75 1539.32 1554.49 1545.38 1572.04 1552.11C1573.38 1552.62 1574.72 1553.14 1576.08 1553.64C1579.73 1555.04 1583.36 1556.44 1587 1557.84C1588.43 1558.39 1589.84 1558.94 1591.27 1559.48C1598.94 1562.44 1606.5 1565.52 1613.93 1569.04C1616.67 1570.31 1619.45 1571.48 1622.26 1572.63C1625.94 1574.14 1629.49 1575.78 1633.02 1577.61C1635.2 1578.66 1637.46 1579.44 1639.74 1580.27C1644.47 1582.13 1649.02 1584.38 1653.6 1586.56C1655.63 1587.52 1657.64 1588.45 1659.67 1589.39C1667.76 1593.16 1675.7 1597.11 1683.56 1601.32C1689.53 1604.49 1695.6 1607.39 1701.74 1610.2C1706.99 1612.63 1706.99 1612.63 1709.39 1614.54C1710.87 1615.81 1710.87 1615.81 1712.69 1615.37C1715.86 1614.25 1717.88 1611.64 1720.14 1609.26C1725.28 1603.91 1725.28 1603.91 1727.28 1602.91C1727.28 1602.31 1727.28 1601.7 1727.28 1601.09C1727.88 1601.09 1728.49 1601.09 1729.1 1601.09C1729.1 1600.5 1729.1 1599.9 1729.1 1599.28C1729.71 1599.28 1730.29 1599.28 1730.91 1599.28C1732.19 1598.02 1732.19 1598.02 1733.53 1596.33C1736.44 1592.9 1739.52 1589.72 1742.71 1586.57C1746.25 1583.09 1749.64 1579.57 1752.86 1575.8C1754.57 1573.82 1756.33 1571.92 1758.09 1570C1762.41 1565.36 1766.53 1560.62 1770.49 1555.69C1772.17 1553.64 1773.87 1551.63 1775.61 1549.63C1776.11 1549.05 1776.61 1548.48 1777.12 1547.89C1778.12 1546.75 1779.11 1545.61 1780.11 1544.47C1782.7 1541.87 1782.7 1541.87 1783.58 1538.5C1784.17 1538.5 1784.77 1538.5 1785.39 1538.5C1786.84 1536.77 1786.84 1536.77 1788.39 1534.47C1792.31 1528.93 1796.44 1523.57 1800.63 1518.24C1801.12 1517.59 1801.62 1516.96 1802.13 1516.3C1802.58 1515.73 1803.03 1515.15 1803.48 1514.56C1804.62 1513.14 1804.62 1513.14 1804.46 1511.29C1805.06 1511.29 1805.65 1511.29 1806.26 1511.29C1807.61 1509.46 1807.61 1509.46 1808.99 1507.09C1811.56 1502.94 1814.24 1498.95 1817.11 1495.02C1823.99 1485.46 1830.31 1475.65 1836.46 1465.61C1838.74 1461.9 1841.06 1458.22 1843.51 1454.63C1846.57 1450.09 1849.1 1445.34 1851.67 1440.53C1852.71 1438.61 1853.75 1436.69 1854.79 1434.77C1865 1415.85 1874.85 1396.88 1883.28 1377.1C1884.84 1373.42 1886.48 1369.81 1888.21 1366.2C1890.65 1360.96 1892.69 1355.6 1894.68 1350.18C1895.7 1347.39 1896.74 1344.64 1897.82 1341.88C1905.73 1321.62 1912.38 1301.01 1917.94 1279.96C1918.19 1278.99 1918.45 1278 1918.73 1277C1930.6 1231.92 1939.84 1184.35 1939.73 1137.55C1938.29 1137.54 1938.29 1137.54 1936.83 1137.54C1927.79 1137.5 1918.74 1137.44 1909.71 1137.37C1905.06 1137.35 1900.41 1137.32 1895.76 1137.3C1891.27 1137.29 1886.77 1137.25 1882.29 1137.21C1880.58 1137.19 1878.88 1137.19 1877.16 1137.19C1863.48 1137.18 1853.3 1135.77 1842.91 1126.19C1835.78 1118.76 1833.78 1109.89 1833.94 1099.91C1834.38 1090.29 1838.22 1082.91 1845.03 1076.14C1853.17 1068.85 1861.38 1066.53 1872.21 1066.5C1872.95 1066.49 1873.69 1066.47 1874.45 1066.47C1876.85 1066.45 1879.25 1066.43 1881.66 1066.41C1883.33 1066.39 1885 1066.38 1886.69 1066.37C1891.08 1066.31 1895.48 1066.28 1899.86 1066.24C1904.36 1066.2 1908.84 1066.16 1913.34 1066.12C1922.14 1066.02 1930.93 1065.95 1939.73 1065.89C1937.93 1043.47 1935.97 1021.24 1932.09 999.086C1931.6 996.262 1931.13 993.439 1930.68 990.601C1922.97 942.966 1908.88 895.201 1889.79 850.889C1889.17 849.417 1888.54 847.943 1887.92 846.471C1884.14 837.58 1880.29 828.756 1876.12 820.038C1875.15 817.991 1874.2 815.939 1873.26 813.884C1870.12 807.152 1867.02 800.552 1863.03 794.268C1860.86 790.593 1859.03 786.753 1857.18 782.907C1854.71 777.869 1851.86 773.121 1848.94 768.339C1848.09 766.924 1847.25 765.508 1846.4 764.091C1837.14 748.545 1827.57 733.263 1817.16 718.447C1816.49 717.482 1816.49 717.482 1815.81 716.498C1810.67 709.144 1805.47 701.846 1800.04 694.698C1798.73 692.964 1797.42 691.221 1796.13 689.469C1791.76 683.548 1787.17 677.901 1782.37 672.319C1780.18 669.755 1778.04 667.151 1775.92 664.53C1768.17 655.031 1760.11 645.811 1751.8 636.805C1745.66 638.022 1740.04 639.822 1734.2 642.021C1718.37 647.853 1702.28 652.93 1686.21 658.095C1682.71 659.218 1679.22 660.349 1675.74 661.485C1665.4 664.841 1654.97 667.833 1644.48 670.72C1640.84 671.726 1637.2 672.772 1633.58 673.869C1621.66 677.476 1609.57 680.447 1597.49 683.506C1595.7 683.962 1593.9 684.421 1592.1 684.881C1561.73 692.62 1531.25 699.585 1500.47 705.41C1496.09 706.239 1491.73 707.1 1487.38 707.983C1476.37 710.216 1465.31 712.194 1454.24 714.139C1452.35 714.471 1450.47 714.804 1448.58 715.138C1444.04 715.94 1439.49 716.741 1434.96 717.54C1434.76 721.815 1435.42 725.363 1436.52 729.489C1436.86 730.783 1437.19 732.079 1437.53 733.374C1437.71 734.05 1437.88 734.724 1438.05 735.419C1439.68 741.896 1441.07 748.436 1442.5 754.96C1442.76 756.153 1442.76 756.153 1443.03 757.369C1446.68 773.975 1449.97 790.639 1453.11 807.347C1453.3 808.335 1453.49 809.323 1453.68 810.342C1453.93 811.669 1453.93 811.669 1454.19 813.023C1454.41 814.151 1454.41 814.151 1454.63 815.303C1454.93 817.325 1454.93 817.325 1454.93 820.953C1454 821.295 1453.08 821.635 1452.13 821.986C1434.86 828.383 1418.26 835.488 1402.41 844.908C1401.37 845.524 1401.37 845.524 1400.32 846.151C1399.71 846.519 1399.1 846.886 1398.46 847.264C1396.82 848.168 1396.82 848.168 1394.09 849.075C1394.06 848.528 1394.02 847.983 1393.98 847.421C1393.37 839.552 1392.05 831.836 1390.69 824.072C1390.45 822.656 1390.2 821.238 1389.95 819.822C1386.63 800.818 1382.91 781.966 1378.46 763.192C1377.23 757.939 1376.01 752.678 1374.8 747.419C1374.59 746.454 1374.35 745.488 1374.13 744.494C1373.8 743.119 1373.8 743.119 1373.49 741.717C1373.28 740.85 1373.08 739.984 1372.87 739.092C1372.34 736.694 1371.82 734.293 1371.3 731.888C1370.86 728.637 1370.86 728.637 1369.58 727.518C1363.18 727.099 1356.96 727.735 1350.64 728.653C1337.42 730.447 1324.14 731.507 1310.86 732.637C1309.98 732.712 1309.1 732.786 1308.21 732.864C1306.55 733.005 1304.89 733.145 1303.25 733.282C1300.21 733.541 1297.22 733.824 1294.2 734.332C1290.54 734.934 1286.88 735.157 1283.19 735.396C1282.39 735.449 1281.58 735.504 1280.74 735.561C1278.08 735.736 1275.44 735.909 1272.78 736.08C1271.86 736.14 1270.94 736.201 1269.99 736.262C1263.55 736.682 1257.09 737.093 1250.65 737.497C1249.94 737.541 1249.24 737.587 1248.5 737.633C1233.01 738.608 1217.52 739.343 1202.02 740.027C1201.37 740.055 1200.73 740.084 1200.07 740.113C1185.15 740.771 1170.24 741.397 1155.33 742.033C1155.02 764.186 1154.72 786.338 1154.42 809.16C1133.45 809.16 1112.47 809.16 1090.87 809.16C1090.57 787.008 1090.27 764.856 1089.97 742.033C1083.5 741.77 1077.04 741.508 1070.39 741.24C1063.11 740.942 1055.83 740.643 1048.55 740.345C1046.55 740.262 1044.56 740.182 1042.56 740.099C1030.13 739.589 1017.68 739.063 1005.25 738.512C1002.91 738.409 1000.56 738.308 998.218 738.206C961.878 736.63 925.662 733.421 889.493 729.545C884.969 729.062 880.444 728.586 875.918 728.113C873.656 727.876 871.394 727.636 869.132 727.395C868.143 727.29 867.154 727.186 866.135 727.079C865.281 726.989 864.426 726.897 863.548 726.804C861.233 726.616 858.96 726.576 856.638 726.612C853.87 735.141 851.631 743.721 849.659 752.465C849.433 753.459 849.433 753.459 849.201 754.474C845.123 772.421 841.56 790.48 838.045 808.546C837.726 810.188 837.405 811.831 837.082 813.473C835.16 823.275 833.387 833.048 832.069 842.952C830.932 851.234 829.668 859.454 828.054 867.656C827.531 871.215 827.507 874.512 827.586 878.103C823.191 875.652 818.983 873.044 814.819 870.223C813.62 869.419 812.422 868.617 811.223 867.817C810.321 867.214 810.321 867.214 809.401 866.598C802.081 861.709 794.839 857.015 786.88 853.2C782.831 851.222 778.877 849.074 774.917 846.922C772.517 845.628 770.259 844.495 767.667 843.632C768.071 832.997 769.907 822.818 771.922 812.393C772.252 810.656 772.583 808.919 772.913 807.182C773.572 803.713 774.237 800.245 774.905 796.778C775.608 793.126 776.302 789.473 776.987 785.818C779.681 771.465 782.695 757.222 786.07 743.014C787.18 738.325 788.263 733.632 789.342 728.935C789.537 728.098 789.733 727.259 789.934 726.395C790.111 725.626 790.288 724.856 790.469 724.064C790.703 723.056 790.703 723.056 790.941 722.028C791.355 720.116 791.354 720.116 791.271 717.54C790.632 717.444 789.993 717.349 789.335 717.251C786.348 716.801 783.363 716.349 780.377 715.896C779.372 715.746 778.369 715.595 777.334 715.441C771.116 714.494 764.932 713.419 758.755 712.24C752.363 711.027 745.948 709.969 739.527 708.918C728.488 707.108 717.457 705.258 706.442 703.31C704.962 703.051 704.962 703.051 703.453 702.787C697.678 701.757 691.978 700.528 686.269 699.185C680.95 697.968 675.594 696.934 670.24 695.883C667.84 695.407 665.438 694.929 663.038 694.45C662.443 694.332 661.847 694.214 661.233 694.091C648.569 691.572 635.93 689.044 623.426 685.818C618.069 684.454 612.668 683.281 607.269 682.095C601.906 680.9 596.596 679.543 591.291 678.112C587.56 677.107 583.822 676.135 580.074 675.192C565.407 671.492 550.828 667.515 536.273 663.396C534.946 663.02 534.947 663.02 533.593 662.638C527.788 660.993 521.986 659.336 516.187 657.669C515.071 657.349 515.071 657.349 513.933 657.023C511.844 656.424 509.756 655.82 507.668 655.214C507.071 655.042 506.472 654.871 505.856 654.694C502.296 653.654 498.846 652.439 495.386 651.118C491.978 649.85 488.518 648.748 485.06 647.63C483.889 647.251 483.889 647.251 482.694 646.861C481.056 646.33 479.415 645.799 477.775 645.269C475.279 644.46 472.783 643.65 470.288 642.838C468.687 642.319 467.086 641.799 465.485 641.281C464.746 641.041 464.007 640.8 463.245 640.553C459.124 639.222 454.993 637.968 450.82 636.805ZM1049.5 1536.4C1048.84 1536.44 1048.2 1536.47 1047.51 1536.51C1006.42 1538.85 965.387 1542.72 924.703 1548.98C921.412 1549.48 918.115 1549.93 914.816 1550.37C906.213 1551.55 897.651 1552.95 889.094 1554.43C887.397 1554.71 887.397 1554.71 885.667 1555C884.621 1555.19 883.575 1555.37 882.498 1555.56C881.559 1555.73 880.62 1555.89 879.653 1556.06C878.596 1556.34 878.596 1556.34 877.519 1556.65C876.348 1558.98 876.801 1559.63 877.586 1562.09C877.816 1562.81 878.047 1563.53 878.283 1564.28C878.536 1565.05 878.79 1565.83 879.05 1566.63C879.305 1567.41 879.559 1568.19 879.821 1569.01C881.309 1573.58 882.916 1578.04 884.786 1582.47C885.974 1585.49 886.961 1588.54 887.959 1591.63C889.378 1595.96 890.938 1600.16 892.875 1604.3C894.18 1607.26 895.291 1610.3 896.414 1613.34C901.237 1626.3 906.707 1638.91 912.415 1651.49C912.699 1652.12 912.983 1652.75 913.275 1653.4C917.481 1662.69 921.943 1671.82 926.544 1680.92C927.249 1682.34 927.951 1683.76 928.65 1685.19C931.542 1691.07 934.51 1696.81 937.966 1702.39C939.326 1704.62 940.57 1706.9 941.807 1709.22C951.852 1727.74 963.482 1745.57 976.518 1762.12C977.848 1763.82 979.178 1765.52 980.494 1767.23C994.257 1785.01 1009.29 1802.49 1027.32 1816.08C1028.38 1816.92 1029.43 1817.76 1030.47 1818.59C1045.35 1830.3 1069.94 1847.83 1089.97 1847.83C1089.97 1744.86 1089.97 1641.87 1089.97 1535.78C1069.71 1535.7 1069.71 1535.7 1049.5 1536.4ZM1155.33 1535.78C1155.33 1636.66 1155.33 1737.54 1155.33 1841.49C1160.37 1840.05 1163.45 1838.85 1167.81 1836.26C1168.91 1835.62 1170.02 1834.97 1171.12 1834.33C1171.67 1834 1172.21 1833.69 1172.78 1833.36C1176.59 1831.14 1180.49 1829.07 1184.37 1826.97C1184.37 1826.37 1184.37 1825.78 1184.37 1825.16C1184.98 1824.97 1185.57 1824.78 1186.18 1824.58C1189.99 1822.86 1193.13 1820.42 1196.46 1817.89C1197.48 1817.15 1197.48 1817.15 1198.51 1816.4C1199.45 1815.67 1199.45 1815.67 1200.43 1814.95C1201 1814.51 1201.59 1814.08 1202.18 1813.63C1202.81 1813.04 1202.81 1813.04 1203.44 1812.45C1203.44 1811.85 1203.44 1811.26 1203.44 1810.64C1204.22 1810.29 1204.22 1810.29 1205.02 1809.93C1207.27 1808.72 1209.01 1807.32 1210.94 1805.65C1211.57 1805.1 1212.21 1804.54 1212.87 1803.98C1214.54 1802.61 1214.54 1802.61 1214.34 1800.66C1215.15 1800.29 1215.15 1800.29 1215.98 1799.92C1217.97 1798.85 1219.25 1797.85 1220.7 1796.13C1220.7 1795.52 1220.7 1794.93 1220.7 1794.32C1221.29 1794.32 1221.89 1794.32 1222.51 1794.32C1222.51 1793.71 1222.51 1793.11 1222.51 1792.49C1223.06 1792.26 1223.59 1792.03 1224.15 1791.78C1226.26 1790.61 1227.38 1789.52 1228.92 1787.68C1229.75 1786.69 1229.75 1786.69 1230.58 1785.71C1231.21 1784.95 1231.84 1784.2 1232.5 1783.43C1233.24 1782.57 1233.98 1781.72 1234.75 1780.84C1240.88 1773.75 1246.57 1766.41 1252.1 1758.85C1253.26 1757.29 1254.41 1755.73 1255.57 1754.17C1266.09 1739.8 1275.65 1724.62 1284.25 1709.04C1284.87 1707.96 1285.48 1706.87 1286.1 1705.79C1299.21 1682.94 1310.6 1659.28 1320.6 1634.93C1321.6 1632.51 1322.62 1630.09 1323.62 1627.68C1324.41 1625.78 1325.21 1623.87 1326 1621.95C1326.42 1620.99 1326.81 1620.02 1327.22 1619.02C1332.75 1605.68 1337.9 1592.29 1342.47 1578.58C1342.67 1577.95 1342.89 1577.32 1343.1 1576.66C1345.31 1570.05 1347.36 1563.49 1348.7 1556.65C1344.07 1555.23 1339.49 1554.23 1334.74 1553.42C1333.64 1553.23 1333.64 1553.23 1332.53 1553.04C1330.14 1552.63 1327.76 1552.22 1325.39 1551.82C1324.55 1551.68 1323.73 1551.55 1322.88 1551.4C1283.95 1544.83 1244.67 1540.03 1205.26 1537.59C1203.98 1537.51 1202.69 1537.43 1201.4 1537.35C1197.82 1537.13 1194.24 1536.91 1190.66 1536.7C1189.27 1536.62 1187.88 1536.54 1186.48 1536.45C1176.07 1535.82 1165.8 1535.78 1155.33 1535.78ZM1413.16 1570.24C1412.64 1571.79 1412.64 1571.79 1412.1 1573.36C1400.27 1608.35 1400.27 1608.35 1394.59 1622.87C1393.34 1626.05 1392.24 1629.26 1391.2 1632.51C1389.83 1636.73 1388.12 1640.69 1386.22 1644.71C1384.94 1647.52 1383.81 1650.37 1382.69 1653.25C1373.67 1676.17 1362.87 1698.47 1351.54 1720.32C1350.83 1721.7 1350.83 1721.7 1350.1 1723.1C1347.48 1728.12 1344.73 1733 1341.77 1737.83C1340.47 1739.99 1339.27 1742.18 1338.09 1744.42C1331.47 1756.65 1323.88 1768.34 1316.02 1779.8C1315.53 1780.51 1315.05 1781.21 1314.54 1781.95C1305.57 1795.02 1296.12 1807.48 1285.81 1819.53C1283.24 1822.54 1280.7 1825.57 1278.18 1828.61C1277.04 1829.97 1277.04 1829.97 1275.89 1831.36C1275.35 1832 1274.82 1832.64 1274.26 1833.32C1277.19 1834.29 1278.15 1834.17 1281.1 1833.58C1281.95 1833.41 1282.8 1833.23 1283.67 1833.05C1284.62 1832.86 1285.55 1832.67 1286.51 1832.47C1287.5 1832.26 1288.49 1832.07 1289.49 1831.86C1298.38 1830.01 1307.22 1828.02 1316.08 1826.01C1316.74 1825.86 1317.4 1825.71 1318.07 1825.54C1330.95 1822.61 1343.8 1819.55 1356.48 1815.8C1357.41 1815.52 1358.33 1815.25 1359.29 1814.97C1361.19 1814.41 1363.11 1813.84 1365.02 1813.27C1367.57 1812.51 1370.13 1811.77 1372.69 1811.01C1400 1802.95 1426.79 1793.23 1453.11 1782.4C1454.19 1781.97 1455.27 1781.51 1456.4 1781.06C1462.62 1778.47 1468.76 1775.73 1474.87 1772.88C1477.31 1771.78 1479.75 1770.77 1482.23 1769.79C1487.38 1767.78 1492.34 1765.42 1497.31 1763.02C1498.29 1762.54 1499.27 1762.07 1500.29 1761.58C1508.79 1757.47 1517.15 1753.14 1525.5 1748.74C1529.72 1746.5 1534 1744.38 1538.27 1742.27C1542.78 1740.03 1547.14 1737.69 1551.42 1735.04C1553.95 1733.49 1556.52 1731.97 1559.08 1730.48C1561.78 1728.9 1564.48 1727.31 1567.18 1725.72C1568.6 1724.88 1570.02 1724.05 1571.43 1723.23C1598.63 1707.31 1624.37 1689 1649.5 1670.04C1651.06 1668.87 1652.64 1667.71 1654.22 1666.57C1654.89 1666.08 1655.56 1665.6 1656.24 1665.1C1656.82 1664.69 1657.4 1664.28 1657.99 1663.86C1658.38 1663.5 1658.78 1663.14 1659.19 1662.77C1659.19 1662.17 1659.19 1661.58 1659.19 1660.96C1658.25 1660.53 1657.3 1660.09 1656.33 1659.63C1649.76 1656.56 1643.21 1653.45 1636.72 1650.19C1628.65 1646.12 1620.49 1642.24 1612.32 1638.39C1610.45 1637.51 1608.57 1636.61 1606.69 1635.71C1601.49 1633.27 1596.33 1631.15 1590.91 1629.26C1588.13 1628.2 1585.46 1626.98 1582.77 1625.69C1576.61 1622.8 1570.32 1620.43 1563.93 1618.11C1560.75 1616.95 1557.57 1615.77 1554.39 1614.59C1553.27 1614.17 1552.15 1613.75 1550.99 1613.33C1548.47 1612.37 1546.02 1611.31 1543.56 1610.2C1539.27 1608.27 1534.9 1606.69 1530.45 1605.17C1529.57 1604.87 1528.69 1604.57 1527.77 1604.25C1524.67 1603.2 1521.58 1602.14 1518.48 1601.09C1517.24 1600.68 1516.02 1600.25 1514.79 1599.84C1481.3 1588.48 1447.64 1578.22 1413.16 1570.24ZM806.056 1571.15C805.168 1571.36 804.281 1571.56 803.365 1571.77C802.389 1572 801.412 1572.22 800.406 1572.47C798.862 1572.82 798.862 1572.82 797.287 1573.19C793.767 1574.01 790.248 1574.85 786.732 1575.69C786.091 1575.84 785.448 1576 784.787 1576.15C767.335 1580.33 750.107 1584.88 732.997 1590.31C729.16 1591.51 725.293 1592.59 721.422 1593.66C712.609 1596.13 703.88 1598.85 695.15 1601.59C694.48 1601.81 693.81 1602.02 693.119 1602.24C686.14 1604.43 679.169 1606.65 672.22 1608.94C671.169 1609.29 670.119 1609.63 669.038 1609.98C665.836 1611.12 662.747 1612.44 659.63 1613.8C658.346 1614.26 657.054 1614.7 655.753 1615.12C655.083 1615.34 654.413 1615.55 653.723 1615.78C653.032 1616 652.341 1616.22 651.63 1616.45C646.498 1618.14 641.446 1619.9 636.458 1621.96C633.656 1623.09 630.816 1624.08 627.969 1625.08C623.196 1626.76 618.52 1628.59 613.86 1630.56C610.373 1632.03 606.872 1633.47 603.367 1634.89C594.847 1638.36 586.359 1641.87 577.922 1645.54C576.823 1646.01 575.723 1646.47 574.591 1646.97C564.374 1651.35 554.348 1656.14 544.331 1660.96C544.331 1661.86 544.331 1662.76 544.331 1663.68C546.093 1665.3 546.093 1665.3 548.473 1666.86C549.371 1667.49 550.27 1668.11 551.197 1668.75C551.941 1669.27 551.941 1669.27 552.699 1669.79C554.472 1671.05 556.211 1672.34 557.948 1673.63C558.559 1674.08 559.171 1674.55 559.801 1675.02C561.016 1675.92 562.228 1676.82 563.438 1677.74C566.289 1680.11 566.289 1680.11 569.751 1680.92C569.751 1681.51 569.751 1682.12 569.751 1682.73C571.838 1684.31 573.93 1685.78 576.106 1687.22C577.45 1688.12 578.794 1689.02 580.139 1689.93C581.174 1690.63 581.174 1690.63 582.23 1691.33C584.739 1693.03 587.224 1694.74 589.71 1696.47C607.285 1708.65 625.516 1719.79 643.992 1730.55C646.14 1731.79 648.285 1733.05 650.431 1734.32C657.36 1738.37 664.274 1742.34 671.507 1745.83C673.966 1747.05 676.378 1748.33 678.787 1749.64C687.245 1754.23 695.911 1758.35 704.627 1762.43C706.558 1763.34 708.487 1764.25 710.414 1765.17C717.734 1768.63 725.141 1771.85 732.596 1775.02C737.009 1776.89 741.376 1778.83 745.707 1780.87C750.994 1783.34 756.396 1785.41 761.871 1787.41C764.613 1788.41 767.338 1789.44 770.056 1790.51C782.925 1795.52 795.985 1799.9 809.108 1804.2C811.663 1805.04 814.213 1805.89 816.758 1806.76C859.969 1821.5 904.994 1831.31 950.065 1838.29C952.255 1838.66 954.363 1839.09 956.503 1839.66C955.308 1836.99 954.052 1835.25 951.907 1833.26C948.426 1829.89 945.424 1826.21 942.385 1822.44C940.453 1820.07 938.484 1817.73 936.49 1815.4C927.992 1805.49 920.24 1795.15 912.925 1784.34C912.511 1783.72 912.097 1783.12 911.67 1782.49C904.817 1772.4 898.306 1762.14 892.044 1751.67C891.663 1751.04 891.282 1750.41 890.89 1749.75C882.776 1736.22 874.873 1722.57 868.306 1708.22C866.354 1703.97 864.226 1699.87 861.971 1695.77C858.882 1690.15 856.462 1684.42 854.209 1678.41C853.13 1675.55 853.13 1675.55 851.719 1673.38C850.055 1670.55 848.917 1667.67 847.725 1664.61C846.481 1661.43 845.197 1658.28 843.907 1655.11C843.405 1653.88 842.904 1652.64 842.403 1651.42C841.636 1649.53 840.869 1647.65 840.103 1645.78C838.842 1642.68 837.582 1639.58 836.326 1636.48C835.372 1634.12 834.41 1631.78 833.441 1629.42C829.996 1620.99 827.053 1612.47 824.239 1603.82C823.593 1601.83 822.946 1599.85 822.295 1597.88C821.712 1596.1 821.132 1594.33 820.554 1592.55C819.759 1590.27 818.935 1588.12 817.978 1585.91C816.595 1582.72 815.633 1579.55 814.706 1576.21C814.394 1575.08 814.081 1573.96 813.759 1572.81C813.529 1571.96 813.297 1571.12 813.06 1570.24C810.498 1570.24 808.539 1570.59 806.056 1571.15Z" fill="#092663"/>
<path d="M1050.09 221.069C1053.89 221.069 1057.67 221.065 1061.47 221.061C1070.43 221.051 1079.4 221.05 1088.38 221.056C1097.53 221.061 1106.69 221.05 1115.86 221.031C1123.8 221.014 1131.75 221.009 1139.68 221.013C1144.4 221.014 1149.1 221.012 1153.82 220.999C1175.97 220.943 1197.77 221.605 1219.78 224.063C1221.23 224.223 1221.23 224.223 1222.71 224.385C1227.94 224.962 1233.13 225.596 1238.34 226.276C1239.88 226.472 1241.41 226.669 1242.95 226.865C1271.99 230.602 1300.82 235.225 1329.42 241.559C1332.17 242.163 1334.91 242.754 1337.67 243.337C1356.61 247.358 1375.48 251.746 1394.05 257.206C1397.24 258.144 1400.45 259.034 1403.67 259.892C1404.96 260.234 1404.96 260.234 1406.26 260.584C1407.85 261.008 1409.44 261.427 1411.05 261.841C1417.66 263.602 1424.1 265.775 1430.58 267.956C1434.9 269.409 1439.23 270.813 1443.58 272.206C1444.65 272.548 1444.65 272.548 1445.73 272.898C1448.62 273.827 1451.51 274.757 1454.41 275.681C1468.81 280.288 1468.81 280.288 1475.56 283.091C1479.48 284.696 1483.5 286.078 1487.5 287.507C1493.69 289.742 1499.85 292.031 1505.91 294.632C1508.42 295.697 1510.94 296.703 1513.47 297.7C1519.31 299.992 1525 302.47 1530.66 305.139C1534.53 306.897 1538.44 308.51 1542.36 310.129C1549.13 312.936 1555.68 316.041 1562.21 319.374C1565.59 321.101 1569.03 322.713 1572.49 324.302C1579.68 327.626 1586.77 331.143 1593.83 334.735C1595.17 335.413 1595.17 335.413 1596.55 336.107C1609.23 342.535 1621.66 349.204 1633.83 356.562C1636.93 358.426 1640.05 360.191 1643.24 361.903C1648.44 364.72 1653.52 367.753 1658.57 370.85C1659.48 371.405 1660.4 371.96 1661.33 372.533C1667.33 376.21 1673.3 379.949 1679.21 383.787C1681.66 385.378 1684.13 386.934 1686.61 388.483C1697.01 395.097 1707.14 402.182 1717.15 409.404C1720.01 411.471 1722.92 413.486 1725.85 415.463C1726.53 415.916 1727.2 416.371 1727.9 416.84C1729.2 417.726 1730.53 418.606 1731.84 419.48C1733.38 420.517 1734.87 421.616 1736.37 422.727C1736.37 423.326 1736.37 423.923 1736.37 424.54C1736.97 424.728 1737.59 424.914 1738.2 425.108C1741.86 426.801 1744.65 429.216 1747.72 431.799C1749.01 432.875 1750.31 433.949 1751.61 435.023C1752.58 435.82 1752.58 435.82 1753.57 436.633C1756.16 438.75 1758.82 440.777 1761.49 442.796C1766.55 446.642 1771.39 450.679 1776.22 454.799C1778.74 456.962 1781.32 459.071 1783.91 461.167C1788.64 465.006 1793.24 468.979 1797.82 472.979C1798.37 473.453 1798.92 473.929 1799.48 474.419C1800 474.879 1800.53 475.339 1801.07 475.814C1802.62 477.132 1804.18 478.398 1805.77 479.663C1806.92 480.666 1806.92 480.666 1808.09 481.69C1808.09 482.289 1808.09 482.888 1808.09 483.505C1808.69 483.505 1809.28 483.505 1809.9 483.505C1809.9 484.103 1809.9 484.702 1809.9 485.319C1810.42 485.544 1810.93 485.768 1811.45 485.999C1813.89 487.326 1815.76 488.918 1817.85 490.762C1818.57 491.398 1819.3 492.034 1820.04 492.69C1821.7 494.391 1821.7 494.391 1821.7 496.204C1822.22 496.424 1822.73 496.644 1823.26 496.87C1825.74 498.244 1827.43 499.881 1829.43 501.886C1830.23 502.685 1831.04 503.485 1831.86 504.308C1832.73 505.183 1833.6 506.059 1834.46 506.934C1835.37 507.834 1836.27 508.733 1837.16 509.633C1839.05 511.519 1840.93 513.406 1842.81 515.297C1845.21 517.709 1847.62 520.115 1850.02 522.52C1851.88 524.378 1853.74 526.238 1855.6 528.1C1856.48 528.987 1857.37 529.874 1858.26 530.759C1870.73 543.245 1870.73 543.245 1870.73 546.097C1871.32 546.097 1871.93 546.097 1872.54 546.097C1872.54 546.695 1872.54 547.294 1872.54 547.911C1873.15 547.911 1873.75 547.911 1874.37 547.911C1875.54 549.053 1875.55 549.053 1876.97 550.746C1877.82 551.741 1877.82 551.741 1878.68 552.755C1879.36 553.552 1880.03 554.348 1880.71 555.168C1881.55 556.134 1882.37 557.099 1883.21 558.063C1885.55 560.783 1887.88 563.508 1890.21 566.236C1891.12 567.289 1892.01 568.34 1892.91 569.39C1898.05 575.376 1903.06 581.446 1907.9 587.674C1910.62 591.172 1913.43 594.587 1916.3 597.974C1920.43 602.894 1924.21 607.986 1927.92 613.225C1928.64 614.226 1929.36 615.227 1930.08 616.226C1931.61 618.362 1933.13 620.5 1934.65 622.64C1936.23 624.842 1937.81 627.04 1939.37 629.238C1945.66 638.007 1951.88 646.795 1957.85 655.786C1959.1 657.666 1960.34 659.538 1961.62 661.406C1962.23 662.326 1962.87 663.246 1963.5 664.195C1964.06 665.012 1964.62 665.83 1965.18 666.672C1967.02 669.56 1968.66 672.511 1970.31 675.509C1972.21 678.906 1974.27 682.204 1976.33 685.512C1980.05 691.56 1983.65 697.661 1987.14 703.846C1988.58 706.365 1990.08 708.839 1991.58 711.309C1993.97 715.247 1996.02 719.297 1998.05 723.428C1999.62 726.561 2001.25 729.653 2002.89 732.744C2006.57 739.631 2010.08 746.558 2013.35 753.642C2015.38 758.029 2017.53 762.341 2019.74 766.644C2022.37 771.826 2024.66 777.064 2026.76 782.483C2028.13 786.008 2029.62 789.427 2031.25 792.838C2037.46 806.075 2042.4 819.937 2047.17 833.751C2048.12 836.504 2049.1 839.249 2050.09 841.993C2050.64 843.541 2050.64 843.541 2051.2 845.119C2051.93 847.121 2052.65 849.12 2053.41 851.114C2056.6 859.757 2059.11 868.54 2061.59 877.412C2062.74 881.561 2063.93 885.703 2065.13 889.845C2065.76 892.066 2066.4 894.286 2067.03 896.509C2067.54 898.277 2068.06 900.041 2068.58 901.804C2071.1 910.367 2073.09 918.991 2074.94 927.718C2075.09 928.447 2075.26 929.175 2075.42 929.926C2078.08 942.318 2080.52 954.739 2082.73 967.217C2083.13 969.479 2083.54 971.727 2083.95 973.989C2089.68 1005.16 2092.84 1036.44 2092.73 1068.12C2092.72 1071.81 2092.73 1075.51 2092.75 1079.21C2092.75 1085.41 2092.73 1091.6 2092.72 1097.8C2092.71 1104.86 2092.71 1111.92 2092.73 1118.98C2092.75 1125.16 2092.75 1131.33 2092.73 1137.51C2092.73 1141.14 2092.73 1144.79 2092.75 1148.42C2092.89 1196.05 2084.65 1243.41 2073.87 1289.67C2073.31 1292.14 2072.75 1294.59 2072.2 1297.05C2068.42 1313.67 2063.93 1330.1 2058.36 1346.22C2057.41 1349 2056.56 1351.82 2055.71 1354.63C2049.24 1375.51 2041.58 1395.85 2033.24 1416.05C2032.79 1417.11 2032.35 1418.18 2031.9 1419.29C2027.5 1429.96 2023.02 1440.51 2017.71 1450.77C2015.82 1454.43 2014.09 1458.17 2012.35 1461.91C2009.8 1467.41 2007.07 1472.78 2004.17 1478.12C2002.37 1481.43 2000.66 1484.78 1999.01 1488.18C1994.26 1497.98 1988.69 1507.3 1983.14 1516.66C1981.54 1519.38 1979.95 1522.09 1978.37 1524.8C1973.12 1533.78 1967.73 1542.6 1961.86 1551.18C1959.9 1554.06 1957.97 1556.96 1956.05 1559.87C1951.27 1567.07 1946.46 1574.24 1941.6 1581.36C1941.14 1582.05 1940.69 1582.72 1940.21 1583.42C1937.37 1587.56 1934.39 1591.55 1931.3 1595.48C1928.95 1598.47 1926.68 1601.51 1924.4 1604.56C1923.95 1605.17 1923.48 1605.79 1923 1606.42C1920.78 1609.38 1918.57 1612.34 1916.39 1615.33C1916.02 1615.84 1915.64 1616.36 1915.26 1616.88C1914.26 1618.25 1913.26 1619.62 1912.26 1620.99C1911.47 1621.93 1911.47 1621.93 1910.68 1622.87C1910.08 1622.87 1909.47 1622.87 1908.86 1622.87C1908.65 1623.34 1908.44 1623.82 1908.24 1624.31C1906.62 1627.26 1904.59 1629.82 1902.51 1632.45C1901.84 1633.29 1901.84 1633.29 1901.17 1634.15C1897.67 1638.53 1893.98 1642.67 1890.17 1646.76C1886.55 1650.75 1883.19 1654.96 1879.81 1659.16C1878.04 1661.34 1876.26 1663.43 1874.37 1665.5C1873.76 1665.5 1873.16 1665.5 1872.54 1665.5C1872.54 1666.11 1872.54 1666.7 1872.54 1667.31C1871.94 1667.31 1871.35 1667.31 1870.73 1667.31C1870.42 1668.05 1870.42 1668.05 1870.1 1668.82C1868.57 1671.56 1866.57 1673.71 1864.43 1675.99C1863.99 1676.47 1863.54 1676.94 1863.08 1677.43C1858.49 1682.35 1853.76 1687.12 1849.01 1691.86C1848.1 1692.77 1847.18 1693.69 1846.28 1694.59C1844.4 1696.47 1842.51 1698.35 1840.63 1700.23C1838.23 1702.62 1835.83 1705.02 1833.43 1707.42C1831.56 1709.3 1829.69 1711.17 1827.83 1713.03C1826.94 1713.92 1826.06 1714.8 1825.17 1715.69C1815.94 1724.93 1815.94 1724.93 1811.72 1728.09C1811.12 1728.09 1810.51 1728.09 1809.9 1728.09C1809.9 1728.7 1809.9 1729.29 1809.9 1729.9C1809.31 1729.9 1808.7 1729.9 1808.09 1729.9C1808.09 1730.51 1808.09 1731.11 1808.09 1731.73C1806.95 1732.91 1806.95 1732.91 1805.25 1734.33C1804.58 1734.89 1803.92 1735.46 1803.24 1736.05C1802.44 1736.72 1801.65 1737.39 1800.82 1738.07C1799.85 1738.9 1798.89 1739.73 1797.93 1740.56C1775.64 1759.73 1752.82 1778.12 1729.16 1795.57C1728.47 1796.07 1727.79 1796.58 1727.07 1797.1C1718.48 1803.41 1709.68 1809.44 1700.85 1815.41C1699.21 1816.54 1697.55 1817.66 1695.9 1818.79C1690.19 1822.67 1684.44 1826.48 1678.57 1830.15C1676.48 1831.49 1674.42 1832.88 1672.36 1834.29C1668.64 1836.79 1664.76 1838.88 1660.81 1840.99C1658.42 1842.32 1656.15 1843.74 1653.86 1845.23C1647.35 1849.45 1640.56 1853.21 1633.8 1857.03C1630.28 1859.03 1626.77 1861.08 1623.28 1863.15C1619.11 1865.59 1614.83 1867.75 1610.49 1869.88C1607.58 1871.36 1604.76 1872.92 1601.92 1874.52C1591.6 1880.38 1580.96 1885.45 1570.23 1890.47C1568.02 1891.51 1565.83 1892.54 1563.63 1893.58C1562.37 1894.17 1561.11 1894.76 1559.85 1895.33C1556.89 1896.73 1553.95 1898.16 1551.04 1899.64C1547.57 1901.38 1544.04 1902.65 1540.36 1903.87C1537.96 1904.82 1535.76 1905.87 1533.48 1907.05C1527.76 1909.96 1521.84 1912.22 1515.86 1914.51C1506.73 1918.03 1506.73 1918.03 1497.67 1921.75C1491.19 1924.46 1484.61 1926.96 1478.01 1929.42C1477.38 1929.66 1476.75 1929.9 1476.09 1930.15C1467.24 1933.47 1458.37 1936.58 1449.31 1939.29C1446.32 1940.21 1443.43 1941.25 1440.51 1942.38C1436.85 1943.74 1433.12 1944.9 1429.39 1946.09C1428.53 1946.37 1427.66 1946.64 1426.77 1946.93C1418.16 1949.63 1409.49 1951.99 1400.77 1954.3C1398.04 1955.04 1395.33 1955.84 1392.63 1956.63C1366.43 1964.16 1339.66 1970.19 1312.86 1975.13C1310.45 1975.59 1308.05 1976.07 1305.65 1976.57C1294.15 1978.94 1282.63 1980.87 1271.02 1982.6C1269.66 1982.8 1269.66 1982.8 1268.27 1983.02C1254.75 1985.07 1241.25 1986.86 1227.65 1988.2C1224.77 1988.49 1221.89 1988.82 1219.03 1989.15C1217.08 1989.37 1215.13 1989.57 1213.2 1989.79C1210.5 1990.08 1207.81 1990.4 1205.13 1990.73C1187.68 1992.76 1170.08 1992.36 1152.53 1992.34C1148.73 1992.34 1144.95 1992.34 1141.15 1992.36C1132.19 1992.36 1123.22 1992.36 1114.24 1992.36C1105.09 1992.36 1095.93 1992.36 1086.76 1992.39C1078.82 1992.4 1070.87 1992.4 1062.93 1992.4C1058.22 1992.4 1053.52 1992.4 1048.8 1992.41C1026.65 1992.47 1004.85 1991.82 982.837 1989.36C981.686 1989.22 980.521 1989.1 979.342 1988.96C972.173 1988.15 965.017 1987.27 957.866 1986.34C956.802 1986.2 955.739 1986.08 954.643 1985.93C938.085 1983.8 921.641 1981.34 905.246 1978.17C902.148 1977.58 899.046 1977 895.942 1976.43C860.459 1969.85 825.382 1961.49 790.885 1950.89C785.973 1949.38 781.049 1947.94 776.097 1946.56C767.707 1944.23 759.42 1941.64 751.154 1938.9C750.136 1938.55 749.117 1938.21 748.067 1937.87C742.798 1936.1 737.62 1934.19 732.474 1932.1C729.601 1930.96 726.694 1930.03 723.749 1929.08C718.699 1927.44 713.804 1925.57 708.925 1923.48C705.213 1921.93 701.461 1920.49 697.704 1919.05C692.421 1917.02 687.241 1914.87 682.114 1912.47C679.066 1911.1 675.963 1909.89 672.851 1908.67C667.641 1906.64 662.658 1904.32 657.704 1901.72C655.649 1900.72 653.676 1899.9 651.538 1899.13C648.064 1897.85 644.821 1896.31 641.53 1894.61C636.107 1891.85 630.643 1889.19 625.146 1886.59C613.796 1881.19 602.606 1875.57 591.539 1869.6C590.803 1869.22 590.066 1868.82 589.306 1868.41C576.563 1861.54 564.06 1854.28 551.594 1846.93C550.407 1846.23 550.407 1846.23 549.195 1845.52C537.485 1838.65 526.07 1831.36 514.736 1823.87C513.01 1822.73 511.279 1821.6 509.548 1820.47C497.016 1812.22 484.583 1803.71 472.662 1794.61C470.44 1792.92 468.201 1791.27 465.945 1789.63C456.614 1782.86 447.624 1775.78 438.774 1768.4C436.846 1766.81 434.877 1765.27 432.89 1763.76C429.014 1760.79 425.316 1757.64 421.609 1754.46C417.986 1751.37 414.269 1748.45 410.43 1745.64C409.978 1745.24 409.524 1744.83 409.058 1744.42C409.058 1743.83 409.058 1743.23 409.058 1742.61C408.561 1742.41 408.063 1742.19 407.55 1741.98C404.809 1740.45 402.783 1738.51 400.491 1736.37C400.018 1735.94 399.545 1735.5 399.057 1735.04C398.055 1734.11 397.054 1733.18 396.053 1732.23C394.073 1730.38 392.079 1728.55 390.085 1726.71C388.222 1725 386.362 1723.28 384.502 1721.56C383.16 1720.32 381.809 1719.1 380.456 1717.88C373.068 1711.21 365.985 1704.24 358.95 1697.2C357.016 1695.26 355.077 1693.33 353.138 1691.4C351.883 1690.14 350.629 1688.89 349.376 1687.63C348.807 1687.07 348.24 1686.5 347.653 1685.91C344.241 1682.49 341.002 1678.95 337.853 1675.28C336.456 1673.65 336.456 1673.65 334.883 1672.21C333.705 1670.95 333.705 1670.95 333.705 1669.14C333.106 1669.14 332.507 1669.14 331.889 1669.14C330.641 1667.89 330.641 1667.89 329.165 1666.12C326.543 1663.04 323.856 1660.03 321.109 1657.06C317.394 1652.99 313.87 1648.81 310.408 1644.52C308.115 1641.71 305.764 1638.95 303.405 1636.2C299.092 1631.14 294.965 1625.94 290.879 1620.71C288.65 1617.84 286.381 1615.02 284.104 1612.19C279.267 1606.2 274.604 1600.13 270.153 1593.84C269.579 1593.03 269.579 1593.03 268.994 1592.21C266.728 1589.01 264.47 1585.82 262.221 1582.63C260.232 1579.79 258.228 1576.98 256.214 1574.15C248.532 1563.38 241.413 1552.32 234.488 1541.03C233.077 1538.75 231.659 1536.46 230.236 1534.17C219.925 1517.51 210.434 1500.4 201.156 1483.17C200.74 1482.41 200.326 1481.64 199.899 1480.84C188.068 1458.97 178.115 1436.22 168.473 1413.32C168.142 1412.54 167.812 1411.77 167.472 1410.96C163.738 1402.16 160.397 1393.28 157.286 1384.24C156.388 1381.67 155.449 1379.09 154.514 1376.53C141.502 1340.05 130.795 1302.86 123.638 1264.79C123.127 1262.08 122.602 1259.38 122.068 1256.66C121.161 1252.04 120.291 1247.41 119.447 1242.78C119.301 1241.97 119.153 1241.16 119.002 1240.32C116.986 1229.1 115.327 1217.81 113.887 1206.49C113.744 1205.38 113.6 1204.26 113.45 1203.1C112.994 1199.4 112.58 1195.69 112.185 1191.97C112.107 1191.26 112.03 1190.53 111.951 1189.78C110.336 1174.15 110.097 1158.58 110.125 1142.89C110.13 1139.43 110.125 1135.98 110.122 1132.51C110.119 1126.71 110.123 1120.91 110.133 1115.11C110.142 1108.46 110.138 1101.83 110.129 1095.2C110.121 1089.42 110.119 1083.64 110.125 1077.87C110.127 1074.46 110.127 1071.04 110.122 1067.63C110.089 1046.98 111.171 1026.7 113.944 1006.24C114.179 1004.46 114.179 1004.46 114.421 1002.65C115.323 995.908 116.248 989.164 117.235 982.433C117.328 981.789 117.42 981.145 117.516 980.487C118.343 975.031 119.449 969.644 120.544 964.243C121.236 960.816 121.888 957.38 122.529 953.942C125.12 940.144 128.056 926.52 131.607 912.928C132.307 910.18 132.92 907.415 133.52 904.643C135.175 897.33 137.468 890.196 139.663 883.031C140.249 881.09 140.818 879.146 141.371 877.194C146.075 860.643 151.774 844.358 157.408 828.103C157.753 827.099 157.753 827.099 158.104 826.077C159.767 821.33 161.67 816.703 163.624 812.069C164.865 809.108 166.075 806.137 167.277 803.16C167.689 802.144 168.1 801.127 168.524 800.08C169.358 798.015 170.19 795.951 171.021 793.885C173.527 787.701 176.192 781.62 179.021 775.576C180.384 772.647 181.681 769.694 182.966 766.731C186.005 759.741 189.33 753.001 192.986 746.315C194.901 742.802 196.668 739.221 198.432 735.631C201.28 729.862 204.386 724.296 207.624 718.736C209.241 715.885 210.721 713.003 212.164 710.062C214.148 706.029 216.293 702.18 218.65 698.354C219.829 696.419 220.976 694.478 222.104 692.514C228.144 682.037 234.714 671.944 241.368 661.849C243.424 658.717 245.443 655.561 247.457 652.402C250.661 647.412 253.992 642.539 257.443 637.718C258.163 636.707 258.881 635.698 259.6 634.688C266.92 624.411 274.339 614.214 281.956 604.154C282.677 603.198 283.398 602.243 284.141 601.258C288.783 595.145 293.616 589.235 298.607 583.402C300.846 580.784 303.04 578.133 305.22 575.465C305.87 574.672 306.519 573.878 307.188 573.06C308.618 571.297 310.038 569.527 311.452 567.752C312.185 566.836 312.918 565.921 313.675 564.977C314.67 563.723 314.67 563.723 315.686 562.443C316.24 561.838 316.794 561.234 317.364 560.611C317.963 560.611 318.562 560.611 319.179 560.611C319.42 560.082 319.661 559.553 319.909 559.008C321.029 556.918 322.254 555.372 323.831 553.609C324.68 552.662 324.68 552.662 325.545 551.696C329.136 547.775 332.798 543.922 336.465 540.07C337.071 539.43 337.676 538.79 338.302 538.132C338.836 537.57 339.371 537.008 339.922 536.429C341.596 534.609 343.216 532.759 344.832 530.888C348.189 527.043 351.733 523.417 355.349 519.815C356.337 518.827 356.337 518.827 357.345 517.818C358.729 516.435 360.114 515.051 361.5 513.671C363.602 511.575 365.7 509.474 367.798 507.372C369.151 506.019 370.506 504.668 371.86 503.316C372.478 502.698 373.095 502.078 373.733 501.441C377.293 497.9 380.944 494.524 384.761 491.26C386.384 489.879 386.384 489.879 387.819 488.313C389.086 487.134 389.086 487.134 390.901 487.134C390.901 486.535 390.901 485.936 390.901 485.319C392.17 484.04 392.17 484.04 393.964 482.54C397.853 479.252 401.598 475.829 405.335 472.367C407.242 470.805 407.242 470.805 409.058 470.805C409.058 470.206 409.058 469.607 409.058 468.99C410.408 467.763 411.822 466.603 413.257 465.475C417.346 462.212 421.337 458.869 425.286 455.441C430.721 450.749 436.33 446.348 442.053 442.016C444.696 440 447.302 437.938 449.912 435.879C466.718 422.668 483.941 410.196 501.661 398.234C502.241 397.841 502.822 397.446 503.42 397.042C521.205 385.003 539.504 373.781 557.901 362.71C559.633 361.667 561.363 360.621 563.09 359.571C568.55 356.26 574.118 353.186 579.738 350.156C581.35 349.271 582.961 348.385 584.572 347.498C598.258 339.978 612.103 332.999 626.215 326.319C634.1 322.581 641.919 318.716 649.682 314.733C653.005 313.042 656.255 311.538 659.8 310.355C663.371 309.097 666.768 307.678 670.184 306.047C678.92 301.929 687.951 298.502 696.929 294.96C699.346 294.004 701.759 293.038 704.169 292.067C722.992 284.537 742.152 277.908 761.368 271.461C762.384 271.12 763.398 270.777 764.444 270.425C769.857 268.62 775.276 266.983 780.792 265.523C783.597 264.748 786.332 263.823 789.084 262.884C806.455 257.157 824.341 252.832 842.112 248.557C843.23 248.287 844.347 248.016 845.497 247.737C860.16 244.203 874.847 241.003 889.683 238.281C892.189 237.814 894.692 237.334 897.194 236.847C908.796 234.592 920.424 232.613 932.104 230.81C932.99 230.673 933.875 230.536 934.788 230.393C948.148 228.326 961.494 226.528 974.955 225.213C977.834 224.925 980.713 224.6 983.591 224.263C985.538 224.041 987.485 223.831 989.417 223.624C992.118 223.338 994.805 223.023 997.491 222.687C1014.94 220.662 1032.54 221.06 1050.09 221.069ZM1021.86 245.835C1020.29 245.952 1018.7 246.067 1017.11 246.181C1013.42 246.451 1009.73 246.758 1006.05 247.083C1005.4 247.138 1004.76 247.194 1004.1 247.25C989.102 248.563 974.16 250.252 959.227 252.185C958.27 252.308 958.27 252.308 957.293 252.436C928.112 256.237 899.079 261.145 870.418 267.84C867.39 268.547 864.36 269.242 861.33 269.934C856.392 271.065 851.458 272.206 846.525 273.354C844.173 273.9 841.82 274.439 839.467 274.977C832.748 276.52 826.095 278.2 819.479 280.143C816.609 280.984 813.727 281.781 810.84 282.568C797.232 286.288 783.814 290.469 770.404 294.85C767.892 295.655 765.372 296.417 762.84 297.16C759.594 298.121 756.439 299.209 753.28 300.425C750.972 301.305 748.648 302.137 746.321 302.966C711.586 315.25 711.586 315.25 677.781 329.826C674.651 331.3 671.486 332.68 668.311 334.054C653.649 340.441 639.23 347.065 625.135 354.632C622.698 355.927 620.23 357.157 617.755 358.377C608.384 363.018 599.06 367.808 590.155 373.301C587.909 374.647 585.633 375.901 583.327 377.139C577.87 380.099 572.499 383.194 567.14 386.328C565.702 387.168 565.702 387.168 564.234 388.026C543.456 400.197 523.062 413.243 503.476 427.263C502.906 427.67 502.336 428.077 501.749 428.498C481.099 443.271 460.798 458.492 441.457 474.949C439.931 476.243 438.402 477.531 436.869 478.817C431.579 483.26 426.381 487.771 421.272 492.424C418.961 494.465 416.578 496.384 414.164 498.302C409.879 501.761 405.99 505.474 402.169 509.427C399.808 511.855 397.387 514.138 394.813 516.34C390.939 519.712 387.289 523.268 383.663 526.902C383.003 527.56 382.343 528.218 381.663 528.897C380.28 530.28 378.896 531.663 377.513 533.047C375.416 535.149 373.313 537.245 371.209 539.341C369.856 540.694 368.503 542.047 367.15 543.401C366.53 544.018 365.912 544.635 365.273 545.271C361.741 548.817 358.366 552.455 355.102 556.251C352.776 558.928 350.326 561.49 347.89 564.07C343.692 568.552 339.705 573.135 335.861 577.929C333.242 581.135 330.528 584.254 327.804 587.372C323.002 592.88 318.314 598.462 313.731 604.154C312.885 605.197 312.04 606.24 311.193 607.283C301.169 619.674 291.708 632.435 282.587 645.5C280.894 647.918 279.19 650.326 277.485 652.735C270.517 662.617 263.878 672.589 257.689 682.975C255.741 686.211 253.724 689.404 251.713 692.599C242.879 706.684 234.424 721.029 226.576 735.689C225.79 737.12 225.79 737.12 224.987 738.58C220.227 747.293 215.945 756.215 211.7 765.189C210.151 768.459 208.559 771.703 206.925 774.932C204.284 780.184 202.055 785.582 199.842 791.023C197.654 796.395 195.417 801.714 192.928 806.955C190.414 812.318 188.312 817.789 186.28 823.343C185.288 826.048 184.263 828.736 183.208 831.416C175.183 851.871 168.237 872.75 162.717 894.016C162.129 896.208 161.494 898.381 160.837 900.554C156.51 914.901 153.38 929.5 150.232 944.14C149.523 947.433 148.796 950.72 148.063 954.007C145.5 965.668 143.659 977.361 142.056 989.205C141.491 993.359 140.862 997.512 140.155 1001.65C138.813 1009.55 137.903 1017.48 137.094 1025.46C136.99 1026.48 136.885 1027.49 136.779 1028.55C136.492 1031.49 136.229 1034.44 135.979 1037.39C135.845 1038.92 135.705 1040.47 135.56 1042.02C133.748 1061.56 133.663 1081.05 133.687 1100.65C133.691 1104.3 133.685 1107.93 133.668 1111.58C133.439 1162.42 137.99 1213.26 148.879 1262.98C149.572 1266.23 150.201 1269.47 150.831 1272.71C152.203 1279.8 153.782 1286.75 155.716 1293.7C156.411 1296.21 157.047 1298.72 157.653 1301.25C164.292 1328.94 173.689 1356.17 183.395 1382.93C183.796 1384.04 183.796 1384.04 184.203 1385.16C186.352 1390.99 188.752 1396.7 191.169 1402.43C191.971 1404.35 192.772 1406.26 193.574 1408.18C194.399 1410.14 195.224 1412.1 196.049 1414.06C196.452 1415.02 196.854 1415.98 197.269 1416.96C202.492 1429.36 208.332 1441.41 214.377 1453.4C214.958 1454.56 215.539 1455.72 216.119 1456.87C217.25 1459.13 218.382 1461.38 219.516 1463.63C221.472 1467.52 223.416 1471.43 225.356 1475.32C228.681 1481.88 232.311 1488.23 236.13 1494.51C237.434 1496.72 238.651 1498.94 239.853 1501.2C256.737 1532.32 277.328 1561.91 298.94 1589.93C300.892 1592.47 302.818 1595.03 304.721 1597.59C309.593 1604.19 314.595 1610.56 319.996 1616.74C322.47 1619.57 324.805 1622.43 327.009 1625.48C328.077 1626.87 328.077 1626.87 329.165 1628.31C329.764 1628.31 330.365 1628.31 330.981 1628.31C331.205 1628.82 331.428 1629.34 331.659 1629.86C332.992 1632.29 334.592 1634.06 336.485 1636.07C339.397 1639.24 342.158 1642.46 344.827 1645.83C348.476 1650.34 352.436 1654.43 356.602 1658.46C359.146 1660.94 361.559 1663.46 363.868 1666.15C367.173 1669.95 370.652 1673.52 374.215 1677.07C374.854 1677.72 375.493 1678.35 376.151 1679.01C377.491 1680.35 378.833 1681.69 380.177 1683.02C382.214 1685.05 384.247 1687.09 386.278 1689.12C387.59 1690.44 388.903 1691.75 390.217 1693.06C390.814 1693.66 391.412 1694.26 392.029 1694.88C395.523 1698.35 399.112 1701.67 402.851 1704.87C405.7 1707.35 408.418 1709.96 411.158 1712.56C415.9 1717.02 420.726 1721.24 425.815 1725.31C428.169 1727.23 430.418 1729.22 432.663 1731.27C437.361 1735.54 442.251 1739.53 447.188 1743.52C448.339 1744.45 449.487 1745.39 450.636 1746.34C456.515 1751.14 462.417 1755.92 468.41 1760.58C469.353 1761.32 470.296 1762.05 471.268 1762.82C473.308 1764.56 473.308 1764.56 475.332 1764.38C475.332 1764.98 475.332 1765.57 475.332 1766.19C476.566 1767.07 477.809 1767.92 479.084 1768.73C480.928 1769.92 482.698 1771.18 484.471 1772.47C485.131 1772.95 485.79 1773.43 486.469 1773.92C487.157 1774.41 487.845 1774.92 488.554 1775.44C495.283 1780.31 502.068 1785.08 508.924 1789.78C510.125 1790.62 511.327 1791.44 512.526 1792.28C518.57 1796.46 524.63 1800.57 530.862 1804.46C533.41 1806.09 535.918 1807.77 538.422 1809.45C544.251 1813.39 550.145 1817.07 556.252 1820.56C558.269 1821.72 560.269 1822.9 562.269 1824.09C581.519 1835.57 601.06 1846.37 621.003 1856.58C626.674 1859.49 632.296 1862.46 637.89 1865.52C640.243 1866.72 642.613 1867.79 645.051 1868.81C649.193 1870.58 653.269 1872.49 657.361 1874.37C658.33 1874.81 659.301 1875.26 660.3 1875.72C664.429 1877.61 668.555 1879.5 672.652 1881.46C678.836 1884.42 685.049 1887.04 691.485 1889.38C695.493 1890.85 699.411 1892.44 703.321 1894.15C708.519 1896.43 713.772 1898.38 719.142 1900.2C721.522 1901.08 723.757 1902.02 726.053 1903.08C731.042 1905.33 736.193 1906.98 741.395 1908.67C747.479 1910.66 753.522 1912.67 759.496 1914.96C767.46 1917.98 775.463 1920.5 783.659 1922.79C789.803 1924.5 795.901 1926.35 801.996 1928.23C808.995 1930.38 815.994 1932.36 823.117 1934.06C826.374 1934.84 829.605 1935.7 832.839 1936.58C840.281 1938.58 847.766 1940.39 855.265 1942.16C857.485 1942.69 859.702 1943.21 861.92 1943.75C869.772 1945.61 877.619 1947.31 885.564 1948.74C888.998 1949.37 892.417 1950.05 895.835 1950.75C905.997 1952.82 916.192 1954.59 926.43 1956.24C927.697 1956.44 927.697 1956.44 928.988 1956.65C952.913 1960.51 976.861 1963.53 1000.99 1965.76C1001.89 1965.85 1002.8 1965.94 1003.73 1966.02C1009.77 1966.6 1015.82 1967.11 1021.86 1967.57C1022.82 1967.66 1023.77 1967.74 1024.74 1967.81C1047.9 1969.64 1071.02 1969.7 1094.23 1969.68C1098.55 1969.67 1102.88 1969.68 1107.21 1969.7C1134.87 1969.81 1162.26 1969.1 1189.83 1966.67C1191.24 1966.55 1192.67 1966.42 1194.08 1966.3C1202.36 1965.59 1210.62 1964.79 1218.88 1963.95C1219.9 1963.85 1220.92 1963.75 1221.97 1963.64C1272.58 1958.51 1323.84 1950.03 1372.73 1935.83C1376.08 1934.88 1379.44 1934.04 1382.81 1933.22C1395.33 1930.15 1407.73 1926.61 1419.92 1922.39C1423.88 1921.02 1427.88 1919.83 1431.93 1918.7C1438.44 1916.87 1444.77 1914.67 1451.12 1912.36C1453.37 1911.55 1455.61 1910.74 1457.86 1909.92C1458.93 1909.53 1460 1909.15 1461.1 1908.75C1464.06 1907.7 1467.02 1906.66 1469.99 1905.64C1477.53 1903.05 1484.95 1900.17 1492.38 1897.28C1493.43 1896.87 1494.48 1896.46 1495.57 1896.03C1501.84 1893.58 1507.95 1890.9 1514.05 1888.05C1517.15 1886.61 1520.27 1885.35 1523.47 1884.12C1528.7 1882.08 1533.82 1879.83 1538.9 1877.43C1541.25 1876.35 1543.59 1875.29 1545.98 1874.26C1553.12 1871.15 1560.11 1867.92 1566.94 1864.16C1571.16 1861.87 1575.45 1859.81 1579.81 1857.81C1585.81 1855.06 1591.51 1851.97 1597.2 1848.63C1600.81 1846.57 1604.51 1844.74 1608.25 1842.95C1611.5 1841.27 1614.61 1839.39 1617.74 1837.5C1621.59 1835.18 1625.5 1832.99 1629.4 1830.77C1648.2 1820.06 1666.74 1808.83 1684.41 1796.36C1686.72 1794.74 1689.03 1793.17 1691.36 1791.59C1700.27 1785.56 1708.98 1779.32 1717.55 1772.81C1719.75 1771.17 1721.99 1769.56 1724.22 1767.96C1730.23 1763.61 1736.01 1759.01 1741.81 1754.4C1742.63 1753.76 1743.44 1753.11 1744.29 1752.44C1756.35 1742.83 1768.28 1733.06 1779.7 1722.69C1781.58 1720.99 1783.48 1719.32 1785.39 1717.66C1789.66 1713.93 1793.89 1710.14 1798.09 1706.33C1798.9 1705.6 1799.71 1704.87 1800.53 1704.13C1808.99 1696.43 1817.09 1688.38 1825.18 1680.29C1827.5 1677.96 1829.83 1675.65 1832.16 1673.33C1833.65 1671.82 1835.15 1670.33 1836.64 1668.83C1837.33 1668.15 1838.01 1667.46 1838.73 1666.76C1842.41 1663.06 1845.95 1659.29 1849.35 1655.33C1851.67 1652.66 1854.12 1650.1 1856.55 1647.53C1860.93 1642.84 1865.1 1638.06 1869.09 1633.03C1870.73 1631.03 1870.73 1631.03 1872.31 1629.51C1873.67 1628.37 1873.67 1628.37 1873.45 1626.49C1874.05 1626.49 1874.65 1626.49 1875.27 1626.49C1877 1624.68 1877 1624.68 1878.85 1622.3C1879.58 1621.39 1880.3 1620.47 1881.06 1619.54C1881.85 1618.53 1882.65 1617.53 1883.44 1616.51C1884.25 1615.5 1885.07 1614.47 1885.88 1613.44C1891.1 1606.83 1896.26 1600.17 1901.37 1593.5C1902.52 1592 1903.67 1590.51 1904.84 1589.01C1911.65 1580.21 1918.22 1571.29 1924.36 1561.99C1925.94 1559.64 1927.54 1557.31 1929.17 1555C1933.42 1548.99 1937.49 1542.84 1941.55 1536.69C1942.07 1535.89 1942.59 1535.11 1943.13 1534.3C1948.43 1526.11 1953.3 1517.65 1958.25 1509.23C1959.58 1506.97 1960.92 1504.71 1962.26 1502.45C1966.73 1494.91 1971.04 1487.3 1975.13 1479.54C1975.85 1478.22 1976.55 1476.91 1977.26 1475.58C1981.54 1467.57 1985.63 1459.51 1989.46 1451.27C1991.27 1447.41 1993.13 1443.58 1995.05 1439.77C1997.71 1434.48 2000.16 1429.12 2002.54 1423.69C2002.96 1422.73 2003.39 1421.78 2003.81 1420.79C2007.03 1413.4 2010.16 1405.97 2013.2 1398.53C2013.61 1397.54 2014.02 1396.54 2014.43 1395.52C2016.7 1389.97 2018.71 1384.39 2020.56 1378.69C2021.36 1376.35 2022.23 1374.06 2023.18 1371.77C2025.65 1365.72 2027.76 1359.55 2029.88 1353.39C2030.1 1352.76 2030.32 1352.12 2030.56 1351.47C2034.34 1340.45 2037.68 1329.36 2040.67 1318.1C2041.43 1315.3 2042.19 1312.51 2042.99 1309.73C2047.32 1294.19 2050.84 1278.53 2054.12 1262.73C2054.37 1261.57 2054.6 1260.42 2054.86 1259.21C2060.58 1231.56 2064.36 1203.76 2066.83 1175.65C2066.92 1174.67 2067 1173.7 2067.1 1172.7C2069.5 1146.56 2069.9 1120.24 2069.55 1094C2069.54 1093.41 2069.54 1092.82 2069.53 1092.21C2068.33 1005.68 2052.26 919.267 2002.6 790.019C2001.6 787.711 2000.6 785.395 1999.63 783.076C1996.92 776.698 1993.94 770.537 1990.61 764.459C1988.29 760.196 1986.2 755.856 1984.15 751.45C1978.11 738.433 1970.87 726.063 1963.78 713.592C1962.65 711.576 1961.51 709.559 1960.37 707.539C1955.85 699.531 1951.01 691.746 1946.09 683.982C1945.22 682.618 1945.22 682.618 1944.35 681.228C1935.16 666.688 1925.41 652.474 1915.22 638.625C1914.48 637.605 1913.74 636.584 1913 635.563C1906.37 626.444 1899.48 617.552 1892.52 608.69C1891.6 607.509 1890.66 606.329 1889.75 605.149C1887.72 602.562 1885.68 599.981 1883.65 597.402C1882.54 596.004 1881.45 594.598 1880.37 593.19C1879.71 592.355 1879.05 591.52 1878.38 590.659C1877.82 589.933 1877.26 589.205 1876.68 588.456C1876.22 587.948 1875.75 587.441 1875.27 586.918C1874.67 586.918 1874.06 586.918 1873.45 586.918C1873.23 586.408 1873.01 585.899 1872.78 585.374C1871.42 582.89 1869.76 581.06 1867.84 578.98C1865.32 576.247 1862.82 573.511 1860.4 570.703C1856.97 566.765 1853.42 562.927 1849.88 559.087C1848.36 557.439 1846.87 555.781 1845.37 554.107C1840.49 548.635 1835.46 543.378 1830.27 538.206C1829.47 537.408 1828.68 536.61 1827.85 535.789C1826.18 534.118 1824.51 532.447 1822.84 530.779C1820.29 528.239 1817.74 525.693 1815.2 523.147C1813.57 521.515 1811.93 519.881 1810.29 518.248C1809.54 517.497 1808.79 516.744 1808.02 515.968C1804.14 512.101 1800.19 508.367 1796.02 504.799C1793.68 502.79 1791.45 500.685 1789.18 498.585C1784.81 494.542 1780.32 490.736 1775.65 487.02C1773.58 485.319 1773.58 485.319 1772.06 483.731C1770.91 482.389 1770.91 482.389 1769.05 482.598C1768.75 481.7 1768.44 480.802 1768.14 479.877C1766.37 478.229 1766.37 478.229 1764.17 476.588C1760.84 474.001 1757.55 471.39 1754.3 468.707C1748.39 463.871 1742.39 459.162 1736.37 454.476C1735.87 454.092 1735.38 453.707 1734.87 453.311C1722.03 443.326 1708.84 433.848 1695.5 424.54C1694.93 424.134 1694.35 423.727 1693.75 423.309C1683.48 416.136 1673 409.295 1662.48 402.492C1660.41 401.156 1658.36 399.812 1656.3 398.465C1650.95 394.977 1645.57 391.718 1639.92 388.733C1637.07 387.162 1634.32 385.453 1631.56 383.719C1626.98 380.87 1622.33 378.4 1617.49 376.044C1614.57 374.577 1611.75 372.992 1608.92 371.36C1596.27 364.056 1583.51 357.02 1570.23 350.935C1566.57 349.254 1562.97 347.446 1559.38 345.62C1553 342.388 1546.5 339.46 1539.95 336.598C1536.67 335.167 1533.43 333.671 1530.19 332.162C1523.55 329.09 1516.83 326.221 1510.08 323.395C1509.16 323.008 1509.16 323.008 1508.21 322.613C1500.07 319.201 1491.91 315.947 1483.52 313.186C1481.08 312.317 1478.79 311.382 1476.44 310.308C1472.02 308.313 1467.51 306.703 1462.92 305.139C1462.03 304.829 1461.12 304.521 1460.19 304.203C1458.25 303.535 1456.29 302.869 1454.34 302.206C1452.31 301.517 1450.29 300.824 1448.27 300.127C1427.99 293.143 1407.47 287.061 1386.84 281.213C1386.24 281.042 1385.63 280.872 1385 280.695C1351.49 271.22 1317.38 264.149 1283.06 258.308C1282.17 258.156 1281.27 258.005 1280.37 257.849C1252.58 253.13 1224.66 249.516 1196.57 247.083C1195.44 246.981 1194.28 246.881 1193.1 246.777C1189.83 246.503 1186.54 246.254 1183.25 246.019C1181.47 245.888 1179.7 245.751 1177.93 245.608C1154.6 243.755 1131.28 243.74 1107.9 243.785C1102.41 243.794 1096.93 243.789 1091.45 243.778C1068.18 243.741 1045.07 243.97 1021.86 245.835Z" fill="#092663"/>
<path d="M406.174 875.148C407.068 875.146 407.963 875.143 408.884 875.14C411.879 875.133 414.875 875.139 417.871 875.144C420.021 875.142 422.17 875.139 424.319 875.135C429.556 875.128 434.792 875.129 440.029 875.133C444.298 875.137 448.566 875.139 452.836 875.136C453.445 875.136 454.054 875.136 454.681 875.136C455.919 875.135 457.157 875.135 458.393 875.135C470.007 875.129 481.62 875.135 493.234 875.144C503.143 875.152 513.051 875.151 522.961 875.143C534.502 875.133 546.043 875.129 557.583 875.135C558.823 875.136 560.062 875.136 561.302 875.136C562.215 875.137 562.215 875.137 563.149 875.137C567.389 875.139 571.63 875.136 575.87 875.132C606.609 875.106 636.74 875.129 667.116 880.39C669.289 880.766 671.464 881.122 673.641 881.47C683.017 883.066 692.026 885.683 701.134 888.383C703.683 889.126 706.25 889.798 708.821 890.46C713.475 891.726 717.831 893.461 722.269 895.336C723.567 895.868 724.865 896.397 726.163 896.928C754.097 908.396 779.624 923.221 802.162 943.414C802.655 943.852 803.15 944.29 803.659 944.741C809.298 949.742 814.581 954.851 819.411 960.644C820.144 961.48 820.876 962.303 821.631 963.139C831.899 974.749 840.234 987.841 847.555 1001.47C847.855 1002.03 848.154 1002.58 848.462 1003.15C859.341 1023.44 866.123 1045.84 869.343 1068.59C869.497 1069.55 869.649 1070.51 869.805 1071.5C871.456 1082.85 871.52 1094.16 871.5 1105.62C871.5 1106.65 871.5 1107.68 871.5 1108.73C871.471 1124.08 870.85 1138.83 867.528 1153.87C867.349 1154.72 867.169 1155.59 866.984 1156.46C864.206 1169.57 860.929 1182.81 855.087 1194.91C853.768 1197.71 852.629 1200.56 851.471 1203.43C843.734 1221.47 831.851 1237.71 818.824 1252.28C817.707 1253.53 816.607 1254.8 815.511 1256.08C803.304 1270.07 788.568 1281.56 773.11 1291.76C772.555 1292.12 772.001 1292.49 771.43 1292.87C763.454 1298.14 755.359 1302.56 746.636 1306.46C744.267 1307.53 742.011 1308.69 739.763 1310.01C735.874 1312.24 731.911 1313.76 727.716 1315.34C727.141 1315.56 726.565 1315.79 725.973 1316.01C685.483 1331.72 643.892 1337.24 600.722 1337.26C598.494 1337.26 596.266 1337.27 594.037 1337.27C588.036 1337.29 582.034 1337.29 576.033 1337.3C572.278 1337.3 568.525 1337.3 564.772 1337.3C554.354 1337.31 543.937 1337.33 533.52 1337.33C532.857 1337.33 532.193 1337.33 531.511 1337.33C530.846 1337.33 530.181 1337.33 529.496 1337.33C528.15 1337.33 526.803 1337.33 525.457 1337.33C524.455 1337.33 524.455 1337.33 523.433 1337.33C512.577 1337.34 501.722 1337.35 490.866 1337.37C479.69 1337.4 468.514 1337.41 457.339 1337.41C451.076 1337.41 444.813 1337.41 438.55 1337.42C432.67 1337.44 426.792 1337.45 420.913 1337.44C418.757 1337.44 416.6 1337.44 414.443 1337.45C411.5 1337.46 408.558 1337.45 405.615 1337.45C404.335 1337.45 404.335 1337.45 403.028 1337.46C397.165 1337.42 392.644 1336.65 388.041 1332.73C387.542 1332.13 387.042 1331.54 386.528 1330.93C385.76 1330.05 385.76 1330.05 384.977 1329.16C381.879 1324.5 381.555 1319.77 381.585 1314.31C381.581 1313.58 381.578 1312.86 381.575 1312.1C381.567 1309.64 381.571 1307.18 381.575 1304.73C381.572 1302.96 381.568 1301.18 381.563 1299.41C381.552 1294.52 381.552 1289.64 381.555 1284.74C381.555 1279.48 381.545 1274.21 381.535 1268.95C381.52 1258.63 381.516 1248.31 381.515 1237.98C381.513 1229.61 381.511 1221.22 381.504 1212.83C381.502 1210.42 381.501 1208.01 381.5 1205.59C381.5 1204.99 381.498 1204.39 381.498 1203.77C381.487 1186.88 381.481 1170.01 381.481 1153.12C381.481 1152.49 381.481 1151.84 381.481 1151.2C381.481 1147.96 381.481 1144.74 381.482 1141.52C381.482 1140.88 381.482 1140.23 381.482 1139.57C381.482 1138.29 381.482 1136.98 381.482 1135.68C381.483 1115.53 381.47 1095.37 381.445 1075.22C381.416 1052.57 381.401 1029.92 381.402 1007.26C381.404 995.284 381.398 983.29 381.379 971.295C381.363 961.083 381.359 950.878 381.371 940.67C381.376 935.46 381.376 930.251 381.361 925.041C381.346 920.271 381.349 915.503 381.365 910.733C381.368 909.009 381.364 907.284 381.354 905.558C381.253 887.152 381.253 887.152 387.012 880.955C392.668 875.543 398.675 875.113 406.174 875.148ZM487.131 968.814C487.131 1059.52 487.131 1150.23 487.131 1243.67C521.482 1243.73 521.482 1243.73 556.526 1243.78C563.733 1243.81 570.938 1243.82 578.363 1243.84C584.875 1243.85 584.875 1243.85 591.387 1243.85C594.266 1243.85 597.146 1243.85 600.025 1243.87C603.718 1243.88 607.409 1243.88 611.102 1243.88C612.444 1243.88 613.788 1243.88 615.131 1243.89C641.834 1244.03 669.496 1239.05 693.217 1226.44C694.11 1225.98 694.11 1225.98 695.021 1225.5C726.308 1209.02 747.219 1183.66 758.839 1150.55C761.519 1141.86 762.796 1132.93 764.032 1123.93C764.2 1122.77 764.37 1121.6 764.546 1120.4C766.31 1105.85 764.903 1091.09 762.215 1076.76C762.026 1075.75 762.026 1075.75 761.833 1074.71C759.139 1060.77 754.251 1047.16 746.781 1035.04C746.232 1034.15 745.682 1033.26 745.115 1032.34C741.556 1026.79 737.678 1021.85 733.175 1017.04C731.348 1015.08 731.348 1015.08 729.191 1012.3C725.498 1008.17 721.197 1004.85 716.823 1001.47C716.289 1001.06 715.756 1000.64 715.208 1000.22C707.915 994.585 700.746 989.842 692.31 986.045C690.914 985.373 690.914 985.373 689.49 984.674C682.155 981.137 674.668 978.437 666.89 976.065C665.816 975.75 664.743 975.421 663.637 975.079C657.183 973.242 650.766 971.926 644.136 970.911C643.076 970.747 643.076 970.747 641.995 970.582C590.888 963.303 538.755 968.814 487.131 968.814Z" fill="#092663"/>
<path d="M936.98 875.149C938.036 875.146 939.095 875.143 940.184 875.14C943.112 875.135 946.04 875.136 948.97 875.142C952.131 875.146 955.293 875.14 958.456 875.135C964.656 875.127 970.852 875.128 977.048 875.133C982.093 875.138 987.137 875.139 992.182 875.136C992.895 875.136 993.621 875.136 994.361 875.136C995.814 875.135 997.281 875.135 998.734 875.133C1012.44 875.129 1026.15 875.135 1039.86 875.144C1051.58 875.153 1063.3 875.151 1075.02 875.143C1088.65 875.133 1102.28 875.129 1115.92 875.135C1117.38 875.135 1118.84 875.136 1120.3 875.136C1121.38 875.138 1121.38 875.138 1122.48 875.138C1127.49 875.139 1132.52 875.136 1137.54 875.132C1143.68 875.127 1149.84 875.128 1155.98 875.138C1159.1 875.143 1162.23 875.144 1165.36 875.139C1202.28 875.084 1237.64 879.553 1270.62 897.151C1271.18 897.449 1271.74 897.748 1272.32 898.055C1280.15 902.245 1287.3 907.025 1294.22 912.571C1294.7 912.95 1295.18 913.327 1295.66 913.716C1313.2 927.695 1326.33 944.513 1335.07 965.181C1335.64 966.443 1335.64 966.443 1336.2 967.717C1349 997.82 1348.91 1035.34 1337.8 1065.88C1337.43 1066.96 1337.06 1068.05 1336.68 1069.16C1331.14 1084.3 1322.27 1097.53 1311.47 1109.42C1310.69 1110.38 1309.89 1111.32 1309.11 1112.28C1306.25 1115.68 1303.09 1118.4 1299.67 1121.22C1298.32 1122.34 1298.32 1122.34 1296.95 1123.48C1288.69 1130.25 1279.86 1135.83 1270.62 1141.17C1269.95 1141.56 1269.28 1141.96 1268.59 1142.37C1264.08 1144.96 1259.61 1146.91 1254.68 1148.54C1253.39 1148.98 1252.1 1149.42 1250.81 1149.86C1250.18 1150.06 1249.55 1150.28 1248.91 1150.5C1247.05 1151.13 1245.23 1151.84 1243.41 1152.56C1239.58 1154 1235.69 1154.93 1231.7 1155.79C1226.97 1156.72 1226.97 1156.72 1222.5 1158.41C1220.38 1158.44 1218.27 1158.45 1216.14 1158.41C1218.05 1161.74 1220.16 1164.65 1222.61 1167.59C1223.34 1168.47 1224.07 1169.35 1224.82 1170.24C1225.55 1171.13 1226.29 1172.01 1227.04 1172.93C1231.85 1178.74 1236.58 1184.62 1241.23 1190.57C1244.97 1195.33 1248.78 1200.01 1252.61 1204.7C1255.84 1208.66 1259.02 1212.65 1262.16 1216.68C1265.94 1221.52 1269.82 1226.24 1273.77 1230.93C1276.24 1233.9 1278.62 1236.94 1281.01 1239.99C1284.26 1244.17 1287.6 1248.27 1291.04 1252.3C1294.95 1256.86 1298.71 1261.52 1302.39 1266.25C1305.67 1270.46 1309.02 1274.59 1312.4 1278.68C1313 1279.41 1313.59 1280.12 1314.2 1280.86C1314.87 1281.67 1315.55 1282.48 1316.24 1283.3C1317.83 1285.4 1317.83 1285.4 1317.83 1287.22C1318.43 1287.22 1319.02 1287.22 1319.65 1287.22C1321.12 1288.97 1322.49 1290.72 1323.85 1292.54C1324.66 1293.64 1325.48 1294.72 1326.3 1295.81C1326.7 1296.34 1327.11 1296.89 1327.53 1297.45C1329.77 1300.38 1332.11 1303.22 1334.46 1306.07C1338.13 1310.88 1339.78 1314.71 1339.63 1320.78C1338.62 1326.28 1336.72 1329.87 1332.36 1333.49C1331.74 1334.01 1331.13 1334.53 1330.48 1335.06C1326.38 1337.71 1321.7 1337.26 1316.97 1337.27C1316.14 1337.27 1315.32 1337.29 1314.47 1337.29C1311.76 1337.31 1309.04 1337.31 1306.33 1337.33C1304.93 1337.33 1304.93 1337.33 1303.5 1337.34C1298.6 1337.35 1293.68 1337.37 1288.75 1337.38C1283.68 1337.4 1278.61 1337.42 1273.54 1337.45C1269.63 1337.48 1265.73 1337.49 1261.82 1337.49C1259.95 1337.49 1258.09 1337.51 1256.21 1337.52C1253.59 1337.55 1250.98 1337.55 1248.36 1337.53C1247.21 1337.56 1247.21 1337.56 1246.03 1337.57C1240.05 1337.52 1235.32 1335.91 1230.74 1331.99C1230.33 1331.47 1229.91 1330.95 1229.48 1330.42C1228.96 1329.79 1228.45 1329.16 1227.92 1328.5C1227.33 1327.76 1226.74 1327 1226.14 1326.22C1225.4 1325.29 1224.66 1324.37 1223.9 1323.41C1222.2 1321.26 1220.52 1319.11 1218.83 1316.96C1216.16 1313.52 1213.43 1310.12 1210.7 1306.72C1206.78 1301.84 1202.89 1296.93 1199.04 1291.99C1195.98 1288.12 1192.91 1284.26 1189.82 1280.41C1185.05 1274.48 1180.32 1268.49 1175.62 1262.48C1173.13 1259.31 1170.63 1256.13 1168.14 1252.97C1166.08 1250.35 1164.03 1247.73 1161.97 1245.1C1157.51 1239.42 1153.02 1233.79 1148.45 1228.2C1144.16 1222.95 1140 1217.63 1135.88 1212.24C1133.21 1208.76 1130.41 1205.35 1127.63 1201.95C1124.08 1197.61 1120.58 1193.26 1117.19 1188.8C1111.89 1181.86 1106.4 1175.11 1100.85 1168.39C1100.23 1167.47 1099.61 1166.54 1098.97 1165.59C1096.83 1163.04 1096.32 1162.95 1092.77 1162.25C1091.36 1162.22 1089.95 1162.22 1088.55 1162.23C1087.77 1162.23 1087 1162.22 1086.21 1162.21C1083.67 1162.18 1081.13 1162.19 1078.58 1162.21C1076.83 1162.21 1075.06 1162.19 1073.29 1162.18C1068.66 1162.14 1064.03 1162.14 1059.38 1162.15C1054.65 1162.15 1049.92 1162.12 1045.18 1162.1C1035.9 1162.04 1026.62 1162.03 1017.32 1162.03C1017.32 1162.85 1017.34 1163.67 1017.34 1164.52C1017.42 1184.48 1017.47 1204.45 1017.51 1224.41C1017.53 1234.06 1017.56 1243.73 1017.6 1253.38C1017.64 1261.8 1017.66 1270.21 1017.66 1278.63C1017.66 1283.08 1017.68 1287.54 1017.71 1291.99C1017.73 1296.19 1017.75 1300.4 1017.73 1304.59C1017.73 1306.13 1017.75 1307.66 1017.76 1309.2C1017.91 1326.44 1017.91 1326.44 1011.59 1332.91C1005.93 1336.34 1001.63 1337.52 995.115 1337.48C993.991 1337.49 993.991 1337.49 992.867 1337.49C990.427 1337.52 987.987 1337.51 985.547 1337.51C983.847 1337.51 982.147 1337.52 980.448 1337.52C976.884 1337.53 973.319 1337.52 969.755 1337.52C965.191 1337.51 960.64 1337.52 956.082 1337.55C952.566 1337.57 949.049 1337.57 945.532 1337.56C943.854 1337.56 942.175 1337.57 940.496 1337.57C938.142 1337.59 935.791 1337.59 933.437 1337.56C932.752 1337.57 932.067 1337.59 931.361 1337.59C925.071 1337.51 920.476 1335.31 915.757 1331.21C912.102 1326.92 911.749 1323.62 911.776 1318.07C911.773 1317.33 911.769 1316.59 911.766 1315.82C911.757 1313.32 911.76 1310.83 911.764 1308.33C911.76 1306.52 911.754 1304.73 911.749 1302.93C911.736 1297.97 911.735 1293 911.735 1288.03C911.733 1282.69 911.721 1277.34 911.711 1271.99C911.691 1260.9 911.684 1249.81 911.68 1238.73C911.679 1238.12 911.679 1237.52 911.679 1236.9C911.679 1236.3 911.679 1235.7 911.679 1235.07C911.675 1228.38 911.669 1221.69 911.664 1215C911.646 1194.79 911.631 1174.57 911.628 1154.37C911.628 1153.72 911.628 1153.08 911.628 1152.41C911.628 1149.79 911.627 1147.17 911.627 1144.55C911.627 1142.58 911.627 1140.6 911.627 1138.63C911.625 1137.98 911.625 1137.33 911.625 1136.66C911.622 1116.19 911.603 1095.71 911.57 1075.23C911.533 1052.24 911.511 1029.24 911.511 1006.25C911.511 1003.8 911.511 1001.34 911.511 998.889C911.511 998.286 911.511 997.683 911.511 997.066C911.51 987.951 911.496 978.821 911.477 969.705C911.455 959.342 911.448 948.973 911.462 938.603C911.467 933.312 911.468 928.019 911.447 922.728C911.428 917.883 911.431 913.04 911.45 908.197C911.452 906.444 911.448 904.691 911.435 902.937C911.418 900.554 911.431 898.174 911.448 895.79C911.432 894.769 911.432 894.769 911.414 893.726C911.518 887.42 914.305 883.01 918.764 878.667C924.616 874.959 930.268 875.121 936.98 875.149ZM1017.32 958.836C1017.32 998.656 1017.32 1038.46 1017.32 1079.48C1045.81 1079.59 1045.81 1079.59 1074.29 1079.66C1085.92 1079.68 1097.54 1079.71 1109.17 1079.75C1117.64 1079.79 1126.11 1079.82 1134.58 1079.82C1139.05 1079.84 1143.53 1079.84 1148.01 1079.86C1152.24 1079.89 1156.47 1079.9 1160.69 1079.89C1162.23 1079.89 1163.78 1079.9 1165.31 1079.92C1184.93 1080.08 1204.38 1075.97 1219.78 1063.15C1219.78 1062.56 1219.78 1061.96 1219.78 1061.34C1220.65 1060.97 1220.65 1060.97 1221.54 1060.6C1223.71 1059.63 1223.71 1059.63 1224.31 1056.81C1224.92 1056.81 1225.52 1056.81 1226.14 1056.81C1237.16 1043.41 1239.34 1026.4 1237.94 1009.64C1236.16 995.257 1229.02 983.564 1217.97 974.256C1209.33 967.786 1199.89 963.893 1189.48 961.33C1188.89 961.179 1188.3 961.028 1187.7 960.877C1176.58 958.336 1164.93 958.706 1153.58 958.733C1152.09 958.733 1150.59 958.733 1149.1 958.732C1145.07 958.732 1141.05 958.737 1137.03 958.744C1132.83 958.75 1128.6 958.75 1124.4 958.751C1116.43 958.754 1108.47 958.762 1100.5 958.77C1089.73 958.783 1078.95 958.788 1068.18 958.792C1051.22 958.802 1034.28 958.82 1017.32 958.836Z" fill="#092663"/>
<path d="M1588.43 866.03C1589.43 866.032 1590.44 866.032 1591.47 866.034C1607.85 866.073 1623.89 866.74 1640.12 869.035C1641.09 869.171 1642.08 869.306 1643.08 869.446C1666.6 872.821 1690.07 878.394 1711.84 888.084C1712.81 888.481 1713.79 888.877 1714.77 889.286C1734.47 897.404 1752.22 908.392 1768.13 922.555C1769.44 923.671 1770.74 924.786 1772.05 925.9C1782.18 934.878 1790.61 945.087 1797.65 956.64C1798.46 957.97 1799.31 959.283 1800.2 960.554C1807.55 971.191 1815.23 991.274 1813.53 1004.2C1811.89 1009.07 1808.71 1012.33 1804.45 1015.08C1800.06 1016.88 1796.05 1017.15 1791.39 1017.13C1790.63 1017.14 1789.89 1017.14 1789.13 1017.14C1786.67 1017.15 1784.23 1017.14 1781.78 1017.14C1780.07 1017.14 1778.37 1017.14 1776.65 1017.14C1773.07 1017.14 1769.5 1017.14 1765.92 1017.14C1761.34 1017.13 1756.76 1017.13 1752.18 1017.14C1748.65 1017.14 1745.12 1017.14 1741.6 1017.14C1739.91 1017.14 1738.21 1017.14 1736.53 1017.14C1734.17 1017.15 1731.81 1017.14 1729.44 1017.13C1728.76 1017.14 1728.06 1017.14 1727.34 1017.14C1720.82 1017.09 1716.03 1015.51 1710.94 1011.45C1706.82 1007.15 1704.16 1002.56 1701.68 997.168C1692.87 978.32 1673.2 967.134 1654.38 960.294C1641.12 955.685 1627.71 953.209 1613.8 951.583C1613.21 951.508 1612.62 951.433 1612 951.355C1606.96 950.738 1601.98 950.531 1596.9 950.524C1596.08 950.521 1595.27 950.518 1594.43 950.516C1592.7 950.51 1590.99 950.509 1589.28 950.509C1586.71 950.507 1584.15 950.491 1581.57 950.473C1567.19 950.428 1552.96 951.304 1538.9 954.476C1538.02 954.668 1537.16 954.86 1536.27 955.058C1516.8 959.596 1495.8 967.6 1484.59 985.215C1481.11 991.767 1479.98 998.498 1480 1005.85C1480 1006.56 1480 1007.27 1480 1008C1480.2 1017.43 1483.35 1025.04 1489.81 1031.97C1504.05 1045.17 1525.38 1049.09 1544.05 1051.88C1544.99 1052.03 1544.99 1052.03 1545.95 1052.16C1555.69 1053.66 1565.45 1054.84 1575.27 1055.82C1582.98 1056.59 1590.67 1057.57 1598.37 1058.62C1607.11 1059.83 1615.86 1060.9 1624.63 1061.8C1634.88 1062.86 1645.1 1064.1 1655.31 1065.45C1660.54 1066.15 1665.79 1066.83 1671.05 1067.41C1682.08 1068.61 1692.91 1070.46 1703.79 1072.63C1704.79 1072.82 1704.79 1072.82 1705.82 1073.03C1714.64 1074.78 1723.2 1076.94 1731.81 1079.48C1733.1 1079.84 1734.39 1080.18 1735.66 1080.51C1743.51 1082.65 1750.98 1085.39 1758.49 1088.5C1759.38 1088.87 1760.27 1089.24 1761.2 1089.63C1775.32 1095.59 1787.89 1103.36 1799 1113.96C1799.82 1114.67 1799.82 1114.67 1800.65 1115.41C1810.28 1124.17 1816.24 1136.46 1820.79 1148.44C1821.15 1149.38 1821.52 1150.33 1821.89 1151.3C1828.88 1171.67 1829.56 1196.37 1825.33 1217.37C1825.11 1218.5 1824.88 1219.62 1824.66 1220.77C1816.53 1258.37 1791.26 1287.87 1759.74 1308.6C1693.09 1351.47 1598.17 1355.36 1522.48 1339.32C1504.52 1335.36 1486.88 1330.79 1470.35 1322.6C1468.8 1321.9 1467.25 1321.18 1465.7 1320.49C1449.02 1312.88 1433.36 1303.83 1419.52 1291.75C1417.89 1290.46 1416.27 1289.18 1414.64 1287.9C1411.51 1285.41 1408.54 1282.97 1405.89 1279.96C1405.89 1279.38 1405.89 1278.77 1405.89 1278.16C1405.29 1278.16 1404.7 1278.16 1404.08 1278.16C1401.56 1275.44 1399.31 1272.52 1397.04 1269.6C1395.98 1268.26 1394.91 1266.93 1393.84 1265.6C1380.64 1248.71 1366.22 1222.51 1366.97 1200.42C1368.47 1194.76 1370.91 1190.67 1375.94 1187.44C1380.35 1185.61 1384.44 1185.37 1389.15 1185.38C1390.29 1185.37 1390.29 1185.37 1391.46 1185.37C1393.95 1185.35 1396.46 1185.35 1398.97 1185.35C1400.71 1185.35 1402.46 1185.34 1404.2 1185.34C1407.86 1185.34 1411.52 1185.34 1415.18 1185.34C1419.87 1185.34 1424.55 1185.32 1429.24 1185.31C1432.84 1185.3 1436.45 1185.3 1440.05 1185.3C1441.78 1185.3 1443.51 1185.3 1445.23 1185.28C1447.65 1185.27 1450.06 1185.28 1452.48 1185.28C1453.18 1185.28 1453.9 1185.27 1454.62 1185.27C1461.02 1185.32 1466 1187.16 1470.89 1191.52C1474.4 1195.26 1476.56 1199.55 1478.3 1204.34C1486.15 1224.87 1504.3 1239.16 1523.82 1248.04C1543.4 1256.61 1564 1260.31 1585.19 1261.94C1586.71 1262.06 1586.71 1262.06 1588.26 1262.19C1621.48 1264.58 1658.91 1262.14 1689.15 1247.31C1690.51 1246.72 1690.51 1246.72 1691.89 1246.13C1703.49 1240.97 1713.12 1231.97 1718.01 1220.17C1720.08 1214.67 1720.46 1209.66 1720.41 1203.83C1720.44 1202.98 1720.45 1202.14 1720.46 1201.28C1720.46 1191.96 1717.16 1184.36 1710.94 1177.46C1692.5 1159.13 1661.6 1156.22 1636.94 1153.48C1635.31 1153.29 1633.66 1153.1 1632.02 1152.92C1628.59 1152.52 1625.18 1152.12 1621.75 1151.74C1616.51 1151.15 1611.29 1150.56 1606.06 1149.96C1592.9 1148.44 1579.74 1146.93 1566.55 1145.57C1532.21 1141.99 1498.21 1137.8 1465.19 1127.33C1463.4 1126.76 1461.61 1126.22 1459.82 1125.68C1452.42 1123.39 1445.49 1120.12 1438.57 1116.69C1438.01 1116.4 1437.43 1116.13 1436.84 1115.84C1426 1110.44 1415.86 1103.91 1406.8 1095.82C1406.8 1095.22 1406.8 1094.62 1406.8 1094C1406.06 1093.71 1406.06 1093.71 1405.29 1093.43C1402.41 1091.75 1400.5 1089.44 1398.41 1086.91C1397.97 1086.39 1397.53 1085.87 1397.08 1085.34C1392.77 1080.09 1389.25 1074.52 1385.92 1068.6C1385.49 1067.85 1385.07 1067.11 1384.63 1066.33C1381.16 1059.84 1378.86 1052.97 1376.84 1045.93C1376.65 1045.32 1376.47 1044.72 1376.3 1044.1C1369.78 1021.88 1370.7 993.453 1377.75 971.534C1377.97 970.849 1378.2 970.15 1378.42 969.423C1380.89 961.98 1383.99 954.853 1387.74 947.955C1388.33 947.955 1388.93 947.955 1389.55 947.955C1389.62 947.477 1389.69 946.999 1389.76 946.506C1390.74 943.452 1392.51 941.06 1394.38 938.487C1394.77 937.932 1395.17 937.376 1395.6 936.803C1411.76 914.894 1434.81 899.903 1459.46 888.991C1460.96 888.309 1460.96 888.309 1462.48 887.614C1501.66 870.775 1546.19 865.888 1588.43 866.03Z" fill="#092663"/>
</g>
</svg>
