<svg width="3907" height="974" viewBox="0 0 3907 974" fill="none" xmlns="http://www.w3.org/2000/svg">
<mask id="mask0_68_7" style="mask-type:luminance" maskUnits="userSpaceOnUse" x="0" y="0" width="1088" height="974">
<path d="M1088 0H0V974H1088V0Z" fill="white"/>
</mask>
<g mask="url(#mask0_68_7)">
<path d="M544 60.1719C810.01 60.1719 1022.9 252.706 1022.9 487C1022.9 721.3 810.01 913.83 544 913.83C277.987 913.83 65.0938 721.3 65.0938 487C65.0938 252.706 277.987 60.1719 544 60.1719Z" stroke="#092663" stroke-width="29"/>
<path d="M544 968.72C841.53 968.72 1082.72 753.05 1082.72 487C1082.72 220.952 841.53 5.27734 544 5.27734C246.475 5.27734 5.28125 220.952 5.28125 487C5.28125 753.05 246.475 968.72 544 968.72Z" stroke="#092663" stroke-width="15" stroke-linecap="round" stroke-linejoin="round"/>
<path d="M186.844 209.367C305.546 253.977 614.45 316.431 900.45 209.367" stroke="#092663" stroke-width="29"/>
<path d="M196.695 793.491C312.12 726.571 612.5 632.891 890.59 793.491" stroke="#092663" stroke-width="29"/>
<path d="M67.2109 484.541H1017.28" stroke="#092663" stroke-width="40"/>
<path d="M550.34 60.1719C573.05 60.1719 595.72 70.3939 617.51 90.9759C639.37 111.629 659.7 142.174 677.07 180.986C711.81 258.578 733.66 366.759 733.66 487C733.66 607.24 711.81 715.43 677.07 793.02C659.7 831.83 639.37 862.37 617.51 883.03C595.72 903.61 573.05 913.83 550.34 913.83C527.62 913.83 504.95 903.61 483.16 883.03C461.301 862.37 440.973 831.83 423.596 793.02C388.856 715.43 367.008 607.24 367.008 487C367.008 366.759 388.856 258.578 423.596 180.986C440.973 142.174 461.301 111.629 483.16 90.9759C504.95 70.3939 527.62 60.1719 550.34 60.1719Z" stroke="#092663" stroke-width="29"/>
<path d="M555.609 58.7656V910.66" stroke="#092663" stroke-width="40"/>
<path d="M381.782 445.121H196.695V527.461H381.782V445.121Z" fill="white"/>
<path d="M768.14 492.281H653.43V561.251H768.14V492.281Z" fill="white"/>
<path d="M595.72 409.23H520.42V469.76H595.72V409.23Z" fill="white"/>
<path d="M269.429 360.141C298.93 360.141 324.716 365.434 346.785 376.018C369.08 386.6 386.421 401.35 398.807 420.27C411.193 439.19 417.386 461.37 417.386 486.82C417.386 512.04 411.193 534.22 398.807 553.36C386.421 572.28 369.08 587.03 346.785 597.62C324.716 608.2 298.93 613.49 269.429 613.49H160.172C154.097 613.49 149.172 608.57 149.172 602.49V371.141C149.172 365.066 154.097 360.141 160.172 360.141H269.429ZM206.26 571.18C206.26 578.55 197.405 582.32 192.099 577.19C186.69 571.97 190.386 562.82 197.903 562.82H273.82C290.936 562.82 305.911 559.67 318.748 553.36C331.809 547.06 341.831 538.16 348.812 526.68C355.793 515.19 359.284 501.91 359.284 486.82C359.284 471.5 355.793 458.22 348.812 446.96C341.831 435.47 331.809 426.58 318.748 420.27C305.911 413.96 290.936 410.81 273.82 410.81H197.903C190.386 410.81 186.69 401.66 192.099 396.44C197.405 391.32 206.26 395.08 206.26 402.45V571.18ZM479.924 483.63C479.924 477.55 484.85 472.63 490.92 472.63H577.55C590.38 472.63 600.52 469.7 607.95 463.85C615.61 457.77 619.44 449.43 619.44 438.85C619.44 428.26 615.61 420.05 607.95 414.19C600.52 408.33 590.38 405.41 577.55 405.41H489.41C482.45 405.41 478.751 397.19 483.36 391.98C488.29 386.41 497.49 389.9 497.49 397.33V602.49C497.49 608.57 492.56 613.49 486.49 613.49H451.063C444.988 613.49 440.063 608.57 440.063 602.49V371.141C440.063 365.066 444.988 360.141 451.063 360.141H584.3C602.77 360.141 618.99 363.519 632.95 370.275C646.91 376.806 657.83 385.93 665.71 397.64C673.6 409.35 677.54 423.09 677.54 438.85C677.54 454.39 673.6 468.01 665.71 479.72C657.83 491.43 646.91 500.67 632.95 507.42C618.99 513.95 602.77 517.22 584.3 517.22H490.92C484.85 517.22 479.924 512.3 479.924 506.22V483.63ZM537.96 512.75C532.25 505.54 537.38 494.92 546.58 494.92H584.11C587.44 494.92 590.59 496.43 592.67 499.02L670.53 595.59C676.33 602.79 671.21 613.49 661.97 613.49H623.07C619.71 613.49 616.53 611.96 614.44 609.32L537.96 512.75ZM690.77 542.22C689.59 536.04 694.68 530.73 700.98 530.73H738.1C743.51 530.73 747.97 534.75 749.96 539.78C751.91 544.72 754.81 549.24 758.65 553.36C764.95 559.67 773.29 564.62 783.65 568.23C794.23 571.61 806.39 573.3 820.13 573.3C840.17 573.3 855.94 570.48 867.42 564.85C879.13 558.99 884.99 550.89 884.99 540.53C884.99 532.42 881.61 526.23 874.85 521.95C868.32 517.45 856.05 514.18 838.03 512.15L787.02 506.41C754.14 502.81 730.27 495.15 715.41 483.44C700.78 471.5 693.46 454.95 693.46 433.78C693.46 417.12 698.3 402.93 707.98 391.22C717.89 379.51 731.74 370.613 749.53 364.533C767.32 358.227 788.26 355.074 812.36 355.074C835.78 355.074 856.61 358.565 874.85 365.546C893.09 372.302 907.62 381.87 918.43 394.26C926.63 403.49 931.98 413.95 934.48 425.65C935.8 431.82 930.69 437.16 924.38 437.16H887.35C881.91 437.16 877.49 433.06 875.19 428.13C873.44 424.39 870.97 420.98 867.76 417.91C862.35 412.28 854.81 408 845.13 405.07C835.44 401.92 824.07 400.34 811.01 400.34C792.77 400.34 778.24 403.04 767.43 408.45C756.62 413.85 751.22 421.51 751.22 431.42C751.22 439.07 754.37 445.04 760.68 449.32C767.21 453.38 778.58 456.42 794.79 458.44L847.83 464.86C871.25 467.34 889.83 471.39 903.57 477.02C917.53 482.43 927.44 489.75 933.29 498.98C939.37 508.21 942.41 519.92 942.41 534.11C942.41 551 937.23 565.86 926.87 578.7C916.74 591.31 902.44 601.11 883.97 608.09C865.51 615.07 843.89 618.56 819.12 618.56C793.89 618.56 771.71 614.96 752.57 607.75C733.43 600.32 718.34 590.07 707.3 577.01C698.74 566.7 693.23 555.11 690.77 542.22Z" fill="#092663"/>
<mask id="mask1_68_7" style="mask-type:luminance" maskUnits="userSpaceOnUse" x="112" y="317" width="868" height="339">
<path d="M979.27 317.914H112.25V655.72H979.27V317.914Z" fill="white"/>
<path d="M269.429 360.141C298.93 360.141 324.716 365.434 346.785 376.018C369.08 386.6 386.421 401.35 398.807 420.27C411.193 439.19 417.386 461.37 417.386 486.82C417.386 512.04 411.193 534.22 398.807 553.36C386.421 572.28 369.08 587.03 346.785 597.62C324.716 608.2 298.93 613.49 269.429 613.49H149.172V360.141H269.429ZM206.26 590.86L177.209 562.82H273.82C290.936 562.82 305.911 559.67 318.748 553.36C331.809 547.06 341.831 538.16 348.812 526.68C355.793 515.19 359.284 501.91 359.284 486.82C359.284 471.5 355.793 458.22 348.812 446.96C341.831 435.47 331.809 426.58 318.748 420.27C305.911 413.96 290.936 410.81 273.82 410.81H177.209L206.26 382.77V590.86ZM479.924 472.63H577.55C590.38 472.63 600.52 469.7 607.95 463.85C615.61 457.77 619.44 449.43 619.44 438.85C619.44 428.26 615.61 420.05 607.95 414.19C600.52 408.33 590.38 405.41 577.55 405.41H471.479L497.49 376.018V613.49H440.063V360.141H584.3C602.77 360.141 618.99 363.519 632.95 370.275C646.91 376.806 657.83 385.93 665.71 397.64C673.6 409.35 677.54 423.09 677.54 438.85C677.54 454.39 673.6 468.01 665.71 479.72C657.83 491.43 646.91 500.67 632.95 507.42C618.99 513.95 602.77 517.22 584.3 517.22H479.924V472.63ZM523.84 494.92H589.37L684.97 613.49H617.75L523.84 494.92ZM689.4 530.73H747.5C748.85 539.29 752.57 546.83 758.65 553.36C764.95 559.67 773.29 564.62 783.65 568.23C794.23 571.61 806.39 573.3 820.13 573.3C840.17 573.3 855.94 570.48 867.42 564.85C879.13 558.99 884.99 550.89 884.99 540.53C884.99 532.42 881.61 526.23 874.85 521.95C868.32 517.45 856.05 514.18 838.03 512.15L787.02 506.41C754.14 502.81 730.27 495.15 715.41 483.44C700.78 471.5 693.46 454.95 693.46 433.78C693.46 417.12 698.3 402.93 707.98 391.22C717.89 379.51 731.74 370.613 749.53 364.533C767.32 358.227 788.26 355.074 812.36 355.074C835.78 355.074 856.61 358.565 874.85 365.546C893.09 372.302 907.62 381.87 918.43 394.26C929.24 406.42 935.09 420.72 935.99 437.16H877.89C876.77 429.73 873.39 423.31 867.76 417.91C862.35 412.28 854.81 408 845.13 405.07C835.44 401.92 824.07 400.34 811.01 400.34C792.77 400.34 778.24 403.04 767.43 408.45C756.62 413.85 751.22 421.51 751.22 431.42C751.22 439.07 754.37 445.04 760.68 449.32C767.21 453.38 778.58 456.42 794.79 458.44L847.83 464.86C871.25 467.34 889.83 471.39 903.57 477.02C917.53 482.43 927.44 489.75 933.29 498.98C939.37 508.21 942.41 519.92 942.41 534.11C942.41 551 937.23 565.86 926.87 578.7C916.74 591.31 902.44 601.11 883.97 608.09C865.51 615.07 843.89 618.56 819.12 618.56C793.89 618.56 771.71 614.96 752.57 607.75C733.43 600.32 718.34 590.07 707.3 577.01C696.27 563.72 690.3 548.3 689.4 530.73Z" fill="black"/>
</mask>
<g mask="url(#mask1_68_7)">
<path d="M346.779 376.016L330.954 409.01C330.997 409.03 331.041 409.05 331.085 409.07L346.779 376.016ZM398.8 553.36L429.416 573.41C429.453 573.35 429.489 573.3 429.525 573.24L398.8 553.36ZM346.779 597.61L331.085 564.56C331.041 564.58 330.997 564.6 330.954 564.62L346.779 597.61ZM149.165 613.49H112.57C112.57 633.7 128.954 650.09 149.165 650.09V613.49ZM149.165 360.139V323.544C128.954 323.544 112.57 339.928 112.57 360.139H149.165ZM206.254 590.86L180.841 617.19C191.406 627.39 207.043 630.28 220.557 624.54C234.072 618.8 242.849 605.54 242.849 590.86H206.254ZM177.203 562.82V526.23C162.283 526.23 148.857 535.28 143.271 549.12C137.684 562.95 141.054 578.79 151.79 589.15L177.203 562.82ZM318.741 553.36L302.832 520.41C302.756 520.44 302.682 520.48 302.606 520.52L318.741 553.36ZM348.806 446.95L317.534 465.96C317.59 466.05 317.646 466.15 317.703 466.24L348.806 446.95ZM318.741 420.27L302.606 453.11C302.682 453.15 302.756 453.19 302.832 453.22L318.741 420.27ZM177.203 410.81L151.79 384.48C141.054 394.84 137.684 410.68 143.271 424.51C148.857 438.35 162.283 447.4 177.203 447.4V410.81ZM206.254 382.77H242.849C242.849 368.089 234.072 354.827 220.557 349.088C207.043 343.349 191.406 346.243 180.841 356.44L206.254 382.77ZM269.422 360.139V396.73C294.554 396.73 314.734 401.23 330.954 409.01L346.779 376.016L362.603 343.019C334.684 329.629 303.293 323.544 269.422 323.544V360.139ZM346.779 376.016L331.085 409.07C347.88 417.05 359.816 427.53 368.184 440.31L398.8 420.27L429.416 400.22C413.012 375.168 390.269 356.152 362.473 342.957L346.779 376.016ZM398.8 420.27L368.184 440.31C376.193 452.55 380.784 467.57 380.784 486.82H417.379H453.974C453.974 455.17 446.18 425.82 429.416 400.22L398.8 420.27ZM417.379 486.82H380.784C380.784 505.76 376.229 520.88 368.076 533.48L398.8 553.36L429.525 573.24C446.144 547.56 453.974 518.31 453.974 486.82H417.379ZM398.8 553.36L368.184 533.32C359.816 546.1 347.88 556.58 331.085 564.56L346.779 597.61L362.473 630.67C390.269 617.48 413.012 598.46 429.416 573.41L398.8 553.36ZM346.779 597.61L330.954 564.62C314.734 572.4 294.554 576.9 269.422 576.9V613.49V650.09C303.293 650.09 334.684 644 362.603 630.61L346.779 597.61ZM269.422 613.49V576.9H149.165V613.49V650.09H269.422V613.49ZM149.165 613.49H185.76V360.139H149.165H112.57V613.49H149.165ZM149.165 360.139V396.73H269.422V360.139V323.544H149.165V360.139ZM206.254 590.86L231.667 564.53L202.616 536.49L177.203 562.82L151.79 589.15L180.841 617.19L206.254 590.86ZM177.203 562.82V599.42H273.814V562.82V526.23H177.203V562.82ZM273.814 562.82V599.42C295.435 599.42 316.126 595.42 334.876 586.21L318.741 553.36L302.606 520.52C295.684 523.92 286.424 526.23 273.814 526.23V562.82ZM318.741 553.36L334.651 586.32C353.546 577.2 369.136 563.68 380.077 545.68L348.806 526.68L317.534 507.67C314.513 512.64 310.06 516.92 302.832 520.41L318.741 553.36ZM348.806 526.68L380.077 545.68C390.954 527.79 395.873 507.76 395.873 486.82H359.277H322.682C322.682 496.04 320.62 502.59 317.534 507.67L348.806 526.68ZM359.277 486.82H395.873C395.873 465.77 391.01 445.58 379.908 427.67L348.806 446.95L317.703 466.24C320.563 470.85 322.682 477.23 322.682 486.82H359.277ZM348.806 446.95L380.077 427.95C369.136 409.95 353.546 396.43 334.651 387.31L318.741 420.27L302.832 453.22C310.06 456.71 314.513 460.99 317.534 465.96L348.806 446.95ZM318.741 420.27L334.876 387.42C316.126 378.21 295.435 374.214 273.814 374.214V410.81V447.4C286.424 447.4 295.684 449.71 302.606 453.11L318.741 420.27ZM273.814 410.81V374.214H177.203V410.81V447.4H273.814V410.81ZM177.203 410.81L202.616 437.14L231.667 409.1L206.254 382.77L180.841 356.44L151.79 384.48L177.203 410.81ZM206.254 382.77H169.659V590.86H206.254H242.849V382.77H206.254ZM479.917 472.63V436.03C459.706 436.03 443.322 452.42 443.322 472.63H479.917ZM607.94 463.84L630.59 492.59C630.63 492.56 630.67 492.53 630.7 492.5L607.94 463.84ZM607.94 414.19L585.3 442.93C585.43 443.04 585.57 443.15 585.71 443.26L607.94 414.19ZM471.472 405.4L444.068 381.15C434.527 391.93 432.193 407.3 438.105 420.43C444.016 433.56 457.076 442 471.472 442V405.4ZM497.48 376.016H534.08C534.08 360.808 524.67 347.185 510.45 341.796C496.23 336.406 480.159 340.373 470.079 351.761L497.48 376.016ZM497.48 613.49V650.09C517.69 650.09 534.08 633.7 534.08 613.49H497.48ZM440.057 613.49H403.462C403.462 633.7 419.846 650.09 440.057 650.09V613.49ZM440.057 360.139V323.544C419.846 323.544 403.462 339.928 403.462 360.139H440.057ZM632.94 370.273L617 403.21C617.15 403.28 617.29 403.35 617.44 403.42L632.94 370.273ZM632.94 507.42L648.45 540.57C648.59 540.5 648.74 540.43 648.88 540.36L632.94 507.42ZM479.917 517.22H443.322C443.322 537.43 459.706 553.81 479.917 553.81V517.22ZM523.83 494.92V458.33C509.8 458.33 497 466.35 490.89 478.99C484.78 491.62 486.43 506.64 495.14 517.64L523.83 494.92ZM589.36 494.92L617.85 471.95C610.91 463.34 600.43 458.33 589.36 458.33V494.92ZM684.96 613.49V650.09C699.06 650.09 711.89 641.99 717.97 629.28C724.05 616.57 722.29 601.49 713.45 590.52L684.96 613.49ZM617.74 613.49L589.05 636.21C595.99 644.98 606.56 650.09 617.74 650.09V613.49ZM479.917 472.63V509.22H577.54V472.63V436.03H479.917V472.63ZM577.54 472.63V509.22C595.68 509.22 614.74 505.08 630.59 492.59L607.94 463.84L585.3 435.1C586.28 434.32 585.07 436.03 577.54 436.03V472.63ZM607.94 463.84L630.7 492.5C647.9 478.85 656.02 459.54 656.02 438.85H619.43H582.83C582.83 439.68 582.7 439.07 583.3 437.76C583.59 437.14 583.95 436.56 584.35 436.06C584.74 435.56 585.06 435.28 585.19 435.19L607.94 463.84ZM619.43 438.85H656.02C656.02 418.15 647.86 398.64 630.17 385.12L607.94 414.19L585.71 443.26C585.5 443.09 585.09 442.74 584.62 442.16C584.13 441.57 583.71 440.9 583.38 440.19C582.7 438.72 582.83 438.01 582.83 438.85H619.43ZM607.94 414.19L630.59 385.44C614.74 372.954 595.68 368.809 577.54 368.809V405.4V442C585.07 442 586.28 443.71 585.3 442.93L607.94 414.19ZM577.54 405.4V368.809H471.472V405.4V442H577.54V405.4ZM471.472 405.4L498.88 429.66L524.89 400.27L497.48 376.016L470.079 351.761L444.068 381.15L471.472 405.4ZM497.48 376.016H460.888V613.49H497.48H534.08V376.016H497.48ZM497.48 613.49V576.9H440.057V613.49V650.09H497.48V613.49ZM440.057 613.49H476.652V360.139H440.057H403.462V613.49H440.057ZM440.057 360.139V396.73H584.3V360.139V323.544H440.057V360.139ZM584.3 360.139V396.73C598.28 396.73 608.87 399.28 617 403.21L632.94 370.273L648.88 337.332C629.09 327.755 607.24 323.544 584.3 323.544V360.139ZM632.94 370.273L617.44 403.42C625.96 407.41 631.51 412.37 635.35 418.07L665.71 397.64L696.07 377.201C684.14 359.483 667.85 346.201 648.45 337.125L632.94 370.273ZM665.71 397.64L635.35 418.07C638.7 423.05 640.94 429.48 640.94 438.85H677.53H714.12C714.12 416.69 708.48 395.64 696.07 377.201L665.71 397.64ZM677.53 438.85H640.94C640.94 447.87 638.76 454.22 635.35 459.29L665.71 479.72L696.07 500.16C708.42 481.8 714.12 460.9 714.12 438.85H677.53ZM665.71 479.72L635.35 459.29C631.43 465.11 625.73 470.26 617 474.48L632.94 507.42L648.88 540.36C668.08 531.07 684.22 517.76 696.07 500.16L665.71 479.72ZM632.94 507.42L617.44 474.27C609.19 478.13 598.45 480.62 584.3 480.62V517.22V553.81C607.08 553.81 628.76 549.78 648.45 540.57L632.94 507.42ZM584.3 517.22V480.62H479.917V517.22V553.81H584.3V517.22ZM479.917 517.22H516.51V472.63H479.917H443.322V517.22H479.917ZM523.83 494.92V531.52H589.36V494.92V458.33H523.83V494.92ZM589.36 494.92L560.88 517.89L656.47 636.46L684.96 613.49L713.45 590.52L617.85 471.95L589.36 494.92ZM684.96 613.49V576.9H617.74V613.49V650.09H684.96V613.49ZM617.74 613.49L646.43 590.77L552.52 472.2L523.83 494.92L495.14 517.64L589.05 636.21L617.74 613.49ZM689.4 530.73V494.13C679.36 494.13 669.77 498.25 662.86 505.52C655.96 512.8 652.34 522.59 652.85 532.6L689.4 530.73ZM747.5 530.73L783.65 525.02C780.84 507.23 765.5 494.13 747.5 494.13V530.73ZM758.64 553.36L731.86 578.3C732.16 578.62 732.46 578.93 732.77 579.24L758.64 553.36ZM783.64 568.23L771.62 602.79C771.92 602.89 772.22 602.99 772.51 603.09L783.64 568.23ZM867.41 564.85L883.52 597.71C883.61 597.67 883.7 597.62 883.78 597.58L867.41 564.85ZM874.85 521.95L854.07 552.07C854.47 552.34 854.87 552.61 855.27 552.86L874.85 521.95ZM787.02 506.41L791.11 470.04C791.08 470.04 791.04 470.03 791.01 470.03L787.02 506.41ZM715.4 483.44L692.28 511.8C692.44 511.93 692.6 512.06 692.76 512.18L715.4 483.44ZM707.97 391.22L680.04 367.578C679.95 367.684 679.86 367.79 679.77 367.896L707.97 391.22ZM749.52 364.53L761.36 399.16C761.49 399.11 761.62 399.07 761.75 399.02L749.52 364.53ZM874.85 365.544L861.77 399.72C861.89 399.77 862.02 399.82 862.14 399.86L874.85 365.544ZM918.42 394.26L890.86 418.32C890.93 418.4 891 418.49 891.07 418.57L918.42 394.26ZM935.99 437.16V473.75C946.04 473.75 955.65 469.62 962.57 462.32C969.48 455.02 973.08 445.19 972.53 435.16L935.99 437.16ZM877.89 437.16L841.71 442.64C844.42 460.53 859.79 473.75 877.89 473.75V437.16ZM867.75 417.9L841.35 443.25C841.7 443.61 842.05 443.96 842.41 444.3L867.75 417.9ZM845.12 405.07L833.8 439.86C834.04 439.94 834.28 440.02 834.54 440.1L845.12 405.07ZM760.67 449.32L740.13 479.6C740.53 479.88 740.95 480.15 741.37 480.41L760.67 449.32ZM794.79 458.44L790.25 494.75C790.3 494.76 790.35 494.76 790.4 494.77L794.79 458.44ZM847.82 464.86L843.43 501.19C843.61 501.21 843.79 501.23 843.97 501.25L847.82 464.86ZM903.56 477.02L889.68 510.88C889.91 510.97 890.12 511.06 890.35 511.15L903.56 477.02ZM933.29 498.98L902.38 518.57C902.5 518.75 902.61 518.93 902.72 519.1L933.29 498.98ZM926.87 578.7L898.39 555.72C898.37 555.73 898.36 555.75 898.34 555.78L926.87 578.7ZM752.56 607.75L739.32 641.86C739.44 641.91 739.56 641.95 739.67 642L752.56 607.75ZM707.3 577.01L679.15 600.39C679.21 600.47 679.28 600.55 679.35 600.63L707.3 577.01ZM689.4 530.73V567.33H747.5V530.73V494.13H689.4V530.73ZM747.5 530.73L711.35 536.44C713.88 552.42 720.97 566.6 731.86 578.3L758.64 553.36L785.43 528.43C784.15 527.06 783.82 526.16 783.65 525.02L747.5 530.73ZM758.64 553.36L732.77 579.24C743.77 590.24 757.22 597.78 771.62 602.79L783.64 568.23L795.67 533.66C789.35 531.46 786.13 529.09 784.52 527.49L758.64 553.36ZM783.64 568.23L772.51 603.09C787.43 607.85 803.46 609.89 820.12 609.89V573.29V536.7C809.31 536.7 801.02 535.36 794.77 533.36L783.64 568.23ZM820.12 573.29V609.89C842.91 609.89 864.98 606.8 883.52 597.71L867.41 564.85L851.31 531.99C846.89 534.16 837.43 536.7 820.12 536.7V573.29ZM867.41 564.85L883.78 597.58C903.99 587.48 921.58 568.63 921.58 540.53H884.98H848.38C848.38 539.62 848.53 538.32 849 536.81C849.48 535.29 850.19 533.97 850.93 532.95C852.35 530.97 853.2 531.04 851.05 532.12L867.41 564.85ZM884.98 540.53H921.58C921.58 520.09 911.95 502.13 894.43 491.03L874.85 521.95L855.27 552.86C854.11 552.13 851.99 550.38 850.32 547.32C848.67 544.29 848.38 541.67 848.38 540.53H884.98ZM874.85 521.95L895.63 491.82C880.88 481.65 860.29 477.83 842.12 475.78L838.03 512.15L833.94 548.52C841.84 549.41 847.51 550.47 851.33 551.49C855.55 552.61 855.71 553.2 854.07 552.07L874.85 521.95ZM838.03 512.15L842.12 475.78L791.11 470.04L787.02 506.41L782.93 542.77L833.94 548.52L838.03 512.15ZM787.02 506.41L791.01 470.03C760.49 466.69 744.86 460.05 738.06 454.69L715.4 483.44L692.76 512.18C715.69 530.24 747.8 538.92 783.03 542.79L787.02 506.41ZM715.4 483.44L738.53 455.08C733.52 450.99 730.04 445.45 730.04 433.78H693.45H656.85C656.85 464.44 668.02 492.02 692.28 511.8L715.4 483.44ZM693.45 433.78H730.04C730.04 424.75 732.46 419.04 736.18 414.54L707.97 391.22L679.77 367.896C664.13 386.81 656.85 409.48 656.85 433.78H693.45ZM707.97 391.22L735.91 414.86C740.68 409.22 748.42 403.58 761.36 399.16L749.52 364.53L737.69 329.901C715.04 337.641 695.09 349.789 680.04 367.578L707.97 391.22ZM749.52 364.53L761.75 399.02C774.7 394.43 791.32 391.67 812.35 391.67V355.072V318.477C785.19 318.477 759.93 322.016 737.3 330.037L749.52 364.53ZM812.35 355.072V391.67C832.17 391.67 848.44 394.62 861.77 399.72L874.85 365.544L887.93 331.366C864.77 322.503 839.38 318.477 812.35 318.477V355.072ZM874.85 365.544L862.14 399.86C875.7 404.88 884.74 411.32 890.86 418.32L918.42 394.26L946 370.194C930.49 352.426 910.48 339.717 887.56 331.227L874.85 365.544ZM918.42 394.26L891.07 418.57C896.32 424.47 899 430.88 899.45 439.16L935.99 437.16L972.53 435.16C971.18 410.56 962.15 388.37 945.78 369.944L918.42 394.26ZM935.99 437.16V400.56H877.89V437.16V473.75H935.99V437.16ZM877.89 437.16L914.07 431.68C911.69 415.95 904.31 402.27 893.1 391.5L867.75 417.9L842.41 444.3C842.61 444.49 842.4 444.34 842.13 443.82C842 443.58 841.9 443.33 841.82 443.09C841.75 442.86 841.71 442.7 841.71 442.64L877.89 437.16ZM867.75 417.9L894.16 392.56C883.3 381.25 869.67 374.258 855.71 370.037L845.12 405.07L834.54 440.1C837.2 440.9 838.93 441.7 839.99 442.3C840.51 442.6 840.85 442.84 841.06 443C841.26 443.15 841.35 443.24 841.35 443.25L867.75 417.9ZM845.12 405.07L856.45 370.27C842.24 365.644 826.89 363.742 811 363.742V400.34V436.93C821.25 436.93 828.63 438.18 833.8 439.86L845.12 405.07ZM811 400.34V363.742C789.73 363.742 768.88 366.803 751.06 375.713L767.43 408.44L783.79 441.18C787.59 439.28 795.8 436.93 811 436.93V400.34ZM767.43 408.44L751.06 375.713C741.77 380.36 732.42 387.15 725.37 397.14C718.05 407.5 714.62 419.36 714.62 431.42H751.21H787.81C787.81 432.3 787.68 433.62 787.2 435.17C786.72 436.74 786 438.17 785.17 439.35C783.52 441.67 782.27 441.94 783.79 441.18L767.43 408.44ZM751.21 431.42H714.62C714.62 451.13 723.72 468.47 740.13 479.6L760.67 449.32L781.22 419.04C782.37 419.82 784.37 421.58 785.93 424.54C787.5 427.5 787.81 430.1 787.81 431.42H751.21ZM760.67 449.32L741.37 480.41C755.12 488.95 773.39 492.65 790.25 494.75L794.79 458.44L799.33 422.13C792.3 421.25 787.14 420.24 783.55 419.29C779.7 418.26 779.02 417.63 779.97 418.23L760.67 449.32ZM794.79 458.44L790.4 494.77L843.43 501.19L847.82 464.86L852.22 428.53L799.19 422.11L794.79 458.44ZM847.82 464.86L843.97 501.25C865.72 503.55 880.46 507.1 889.68 510.88L903.56 477.02L917.44 443.16C899.19 435.68 876.77 431.12 851.67 428.47L847.82 464.86ZM903.56 477.02L890.35 511.15C899.66 514.75 902.02 518 902.38 518.57L933.29 498.98L964.19 479.38C952.84 461.48 935.39 450.1 916.78 442.89L903.56 477.02ZM933.29 498.98L902.72 519.1C903.9 520.88 905.81 525.06 905.81 534.11H942.41H979C979 514.78 974.84 495.54 963.85 478.85L933.29 498.98ZM942.41 534.11H905.81C905.81 542.85 903.36 549.55 898.39 555.72L926.87 578.7L955.35 601.68C971.1 582.17 979 559.14 979 534.11H942.41ZM926.87 578.7L898.34 555.78C893.12 562.28 884.73 568.68 871.03 573.86L883.97 608.09L896.91 642.32C920.15 633.53 940.36 620.34 955.4 601.62L926.87 578.7ZM883.97 608.09L871.03 573.86C857.6 578.93 840.55 581.96 819.11 581.96V618.56V655.15C847.22 655.15 873.4 651.2 896.91 642.32L883.97 608.09ZM819.11 618.56V581.96C797.3 581.96 779.64 578.84 765.45 573.5L752.56 607.75L739.67 642C763.77 651.07 790.47 655.15 819.11 655.15V618.56ZM752.56 607.75L765.81 573.63C751.23 567.97 741.62 560.93 735.26 553.39L707.3 577.01L679.35 600.63C695.05 619.22 715.62 632.66 739.32 641.86L752.56 607.75ZM707.3 577.01L735.45 553.63C729.56 546.54 726.45 538.69 725.95 528.86L689.4 530.73L652.85 532.6C654.15 557.9 662.97 580.91 679.15 600.39L707.3 577.01Z" fill="white"/>
</g>
<path d="M75 484H113" stroke="#092663" stroke-width="44" stroke-linecap="round"/>
<path d="M966 484H1013" stroke="#092663" stroke-width="42" stroke-linecap="round"/>
</g>
<path d="M1246.76 375.86H1310.75C1312.24 385.28 1316.33 393.59 1323.02 400.78C1329.97 407.73 1339.14 413.18 1350.55 417.15C1362.21 420.87 1375.6 422.73 1390.73 422.73C1412.8 422.73 1430.16 419.63 1442.81 413.43C1455.7 406.98 1462.15 398.06 1462.15 386.65C1462.15 377.72 1458.43 370.9 1450.99 366.188C1443.8 361.228 1430.28 357.632 1410.44 355.4L1354.27 349.076C1318.06 345.108 1291.78 336.676 1275.41 323.78C1259.29 310.636 1251.23 292.408 1251.23 269.096C1251.23 250.744 1256.56 235.12 1267.22 222.224C1278.14 209.328 1293.39 199.532 1312.98 192.836C1332.57 185.892 1355.64 182.42 1382.17 182.42C1407.96 182.42 1430.9 186.264 1450.99 193.952C1471.08 201.392 1487.08 211.932 1498.98 225.572C1510.88 238.964 1517.33 254.712 1518.32 272.816H1454.34C1453.1 264.632 1449.38 257.564 1443.18 251.612C1437.23 245.412 1428.92 240.7 1418.26 237.476C1407.59 234.004 1395.07 232.268 1380.68 232.268C1360.6 232.268 1344.6 235.244 1332.7 241.196C1320.79 247.148 1314.84 255.58 1314.84 266.492C1314.84 274.924 1318.31 281.496 1325.26 286.208C1332.45 290.672 1344.97 294.02 1362.83 296.252L1421.23 303.32C1447.02 306.048 1467.48 310.512 1482.61 316.712C1497.99 322.664 1508.9 330.724 1515.35 340.892C1522.04 351.06 1525.39 363.956 1525.39 379.58C1525.39 398.18 1519.69 414.55 1508.28 428.68C1497.12 442.57 1481.37 453.36 1461.04 461.05C1440.7 468.74 1416.89 472.58 1389.61 472.58C1361.84 472.58 1337.41 468.61 1316.33 460.68C1295.25 452.49 1278.63 441.21 1266.48 426.82C1254.33 412.19 1247.76 395.2 1246.76 375.86ZM1959.61 188V467H1899.34V209.204L1915.34 210.32L1796.3 467H1731.2L1612.16 211.064L1627.78 209.576V467H1567.89V188H1664.98L1777.33 436.5H1750.17L1862.51 188H1959.61ZM2062.3 408.22V356.888H2255.74V408.22H2062.3ZM2201.05 188L2331.63 467H2264.29L2150.09 213.668H2170.92L2056.72 467H1989.39L2119.96 188H2201.05ZM2405.56 311.876H2513.06C2527.2 311.876 2538.36 308.652 2546.54 302.204C2554.98 295.508 2559.19 286.332 2559.19 274.676C2559.19 263.02 2554.98 253.968 2546.54 247.52C2538.36 241.072 2527.2 237.848 2513.06 237.848H2396.26L2424.9 205.484V467H2361.66V188H2520.5C2540.84 188 2558.7 191.72 2574.07 199.16C2589.45 206.352 2601.48 216.396 2610.16 229.292C2618.84 242.188 2623.18 257.316 2623.18 274.676C2623.18 291.788 2618.84 306.792 2610.16 319.688C2601.48 332.584 2589.45 342.752 2574.07 350.192C2558.7 357.384 2540.84 360.98 2520.5 360.98H2405.56V311.876ZM2453.92 336.428H2526.08L2631.36 467H2557.33L2453.92 336.428ZM2750.27 216.272H2813.14V467H2750.27V216.272ZM2639.05 188H2924V243.8H2639.05V188ZM1246.76 726.86H1310.75C1312.24 736.28 1316.33 744.59 1323.02 751.78C1329.97 758.73 1339.14 764.18 1350.55 768.15C1362.21 771.87 1375.6 773.73 1390.73 773.73C1412.8 773.73 1430.16 770.63 1442.81 764.43C1455.7 757.98 1462.15 749.06 1462.15 737.65C1462.15 728.72 1458.43 721.9 1450.99 717.19C1443.8 712.23 1430.28 708.63 1410.44 706.4L1354.27 700.08C1318.06 696.11 1291.78 687.68 1275.41 674.78C1259.29 661.64 1251.23 643.41 1251.23 620.1C1251.23 601.74 1256.56 586.12 1267.22 573.22C1278.14 560.33 1293.39 550.53 1312.98 543.84C1332.57 536.89 1355.64 533.42 1382.17 533.42C1407.96 533.42 1430.9 537.26 1450.99 544.95C1471.08 552.39 1487.08 562.93 1498.98 576.57C1510.88 589.96 1517.33 605.71 1518.32 623.82H1454.34C1453.1 615.63 1449.38 608.56 1443.18 602.61C1437.23 596.41 1428.92 591.7 1418.26 588.48C1407.59 585 1395.07 583.27 1380.68 583.27C1360.6 583.27 1344.6 586.24 1332.7 592.2C1320.79 598.15 1314.84 606.58 1314.84 617.49C1314.84 625.92 1318.31 632.5 1325.26 637.21C1332.45 641.67 1344.97 645.02 1362.83 647.25L1421.23 654.32C1447.02 657.05 1467.48 661.51 1482.61 667.71C1497.99 673.66 1508.9 681.72 1515.35 691.89C1522.04 702.06 1525.39 714.96 1525.39 730.58C1525.39 749.18 1519.69 765.55 1508.28 779.68C1497.12 793.57 1481.37 804.36 1461.04 812.05C1440.7 819.74 1416.89 823.58 1389.61 823.58C1361.84 823.58 1337.41 819.61 1316.33 811.68C1295.25 803.49 1278.63 792.21 1266.48 777.82C1254.33 763.19 1247.76 746.2 1246.76 726.86ZM1717.06 823.58C1684.57 823.58 1656.05 817.5 1631.5 805.35C1607.2 793.2 1588.23 776.34 1574.59 754.76C1560.95 732.94 1554.13 707.52 1554.13 678.5C1554.13 649.48 1560.95 624.19 1574.59 602.61C1588.23 580.79 1607.2 563.8 1631.5 551.65C1656.05 539.5 1684.57 533.42 1717.06 533.42C1749.55 533.42 1777.95 539.5 1802.25 551.65C1826.8 563.8 1845.9 580.79 1859.54 602.61C1873.18 624.19 1880 649.48 1880 678.5C1880 707.52 1873.18 732.94 1859.54 754.76C1845.9 776.34 1826.8 793.2 1802.25 805.35C1777.95 817.5 1749.55 823.58 1717.06 823.58ZM1717.06 767.41C1737.4 767.41 1754.88 763.81 1769.51 756.62C1784.39 749.43 1795.8 739.14 1803.74 725.74C1811.92 712.35 1816.01 696.6 1816.01 678.5C1816.01 660.4 1811.92 644.65 1803.74 631.26C1795.8 617.86 1784.39 607.57 1769.51 600.38C1754.88 593.19 1737.4 589.59 1717.06 589.59C1696.97 589.59 1679.49 593.19 1664.61 600.38C1649.73 607.57 1638.2 617.86 1630.01 631.26C1622.08 644.65 1618.11 660.4 1618.11 678.5C1618.11 696.6 1622.08 712.35 1630.01 725.74C1638.2 739.14 1649.73 749.43 1664.61 756.62C1679.49 763.81 1696.97 767.41 1717.06 767.41ZM1986.78 539V790.1L1958.14 762.2H2167.57V818H1923.54V539H1986.78ZM2249.71 695.61C2249.71 710.49 2252.56 723.26 2258.27 733.93C2263.97 744.59 2272.28 752.9 2283.19 758.85C2294.35 764.56 2307.74 767.41 2323.37 767.41C2339.24 767.41 2352.63 764.56 2363.54 758.85C2374.45 752.9 2382.76 744.59 2388.47 733.93C2394.17 723.26 2397.02 710.49 2397.02 695.61V539H2460.26V698.59C2460.26 723.64 2454.56 745.58 2443.15 764.43C2431.74 783.03 2415.75 797.54 2395.16 807.96C2374.58 818.37 2350.65 823.58 2323.37 823.58C2296.09 823.58 2272.15 818.37 2251.57 807.96C2231.23 797.54 2215.24 783.03 2203.58 764.43C2192.17 745.58 2186.47 723.64 2186.47 698.59V539H2249.71V695.61ZM2602.78 567.27H2665.65V818H2602.78V567.27ZM2491.55 539H2776.51V594.8H2491.55V539ZM2811.77 539H2875.01V818H2811.77V539ZM3081.18 823.58C3048.7 823.58 3020.18 817.5 2995.62 805.35C2971.32 793.2 2952.35 776.34 2938.71 754.76C2925.07 732.94 2918.25 707.52 2918.25 678.5C2918.25 649.48 2925.07 624.19 2938.71 602.61C2952.35 580.79 2971.32 563.8 2995.62 551.65C3020.18 539.5 3048.7 533.42 3081.18 533.42C3113.67 533.42 3142.07 539.5 3166.37 551.65C3190.92 563.8 3210.02 580.79 3223.66 602.61C3237.3 624.19 3244.12 649.48 3244.12 678.5C3244.12 707.52 3237.3 732.94 3223.66 754.76C3210.02 776.34 3190.92 793.2 3166.37 805.35C3142.07 817.5 3113.67 823.58 3081.18 823.58ZM3081.18 767.41C3101.52 767.41 3119 763.81 3133.64 756.62C3148.52 749.43 3159.92 739.14 3167.86 725.74C3176.04 712.35 3180.14 696.6 3180.14 678.5C3180.14 660.4 3176.04 644.65 3167.86 631.26C3159.92 617.86 3148.52 607.57 3133.64 600.38C3119 593.19 3101.52 589.59 3081.18 589.59C3061.1 589.59 3043.61 593.19 3028.73 600.38C3013.85 607.57 3002.32 617.86 2994.14 631.26C2986.2 644.65 2982.23 660.4 2982.23 678.5C2982.23 696.6 2986.2 712.35 2994.14 725.74C3002.32 739.14 3013.85 749.43 3028.73 756.62C3043.61 763.81 3061.1 767.41 3081.18 767.41ZM3546.2 776.34L3524.26 779.68V539H3585.64V818H3505.66L3327.1 577.32L3348.67 573.97V818H3287.66V539H3369.5L3546.2 776.34ZM3627.71 726.86H3691.69C3693.18 736.28 3697.27 744.59 3703.97 751.78C3710.91 758.73 3720.09 764.18 3731.5 768.15C3743.15 771.87 3756.55 773.73 3771.67 773.73C3793.75 773.73 3811.11 770.63 3823.75 764.43C3836.65 757.98 3843.1 749.06 3843.1 737.65C3843.1 728.72 3839.38 721.9 3831.94 717.19C3824.75 712.23 3811.23 708.63 3791.39 706.4L3735.22 700.08C3699.01 696.11 3672.72 687.68 3656.35 674.78C3640.23 661.64 3632.17 643.41 3632.17 620.1C3632.17 601.74 3637.51 586.12 3648.17 573.22C3659.08 560.33 3674.33 550.53 3693.93 543.84C3713.52 536.89 3736.58 533.42 3763.12 533.42C3788.91 533.42 3811.85 537.26 3831.94 544.95C3852.03 552.39 3868.02 562.93 3879.93 576.57C3891.83 589.96 3898.28 605.71 3899.27 623.82H3835.29C3834.05 615.63 3830.33 608.56 3824.13 602.61C3818.17 596.41 3809.87 591.7 3799.2 588.48C3788.54 585 3776.01 583.27 3761.63 583.27C3741.54 583.27 3725.55 586.24 3713.64 592.2C3701.74 598.15 3695.79 606.58 3695.79 617.49C3695.79 625.92 3699.26 632.5 3706.2 637.21C3713.39 641.67 3725.92 645.02 3743.77 647.25L3802.18 654.32C3827.97 657.05 3848.43 661.51 3863.56 667.71C3878.93 673.66 3889.85 681.72 3896.29 691.89C3902.99 702.06 3906.34 714.96 3906.34 730.58C3906.34 749.18 3900.63 765.55 3889.23 779.68C3878.07 793.57 3862.32 804.36 3841.98 812.05C3821.65 819.74 3797.84 823.58 3770.56 823.58C3742.78 823.58 3718.35 819.61 3697.27 811.68C3676.19 803.49 3659.58 792.21 3647.43 777.82C3635.27 763.19 3628.7 746.2 3627.71 726.86Z" fill="#092663"/>
<path d="M708.37 623C708.37 623 697.68 687.92 694 698.93L722.74 705C722.74 705 727.89 685.64 730.84 669.31C733.79 652.99 736 639.7 736 639.7C736 639.7 729.74 637.43 708.37 623Z" fill="#092663"/>
</svg>
